<svg xmlns="http://www.w3.org/2000/svg" width="145" height="32"  viewBox="0 0 145 32"><defs><style>.a{fill:#ebf1f9;}.b{fill:#136ef6;}</style></defs><path class="a" d="M15.34,5.11l-4.6,1.67L8,11.23,5.26,6.84.64,5.15,6.07,13.6,0,23.21H3.57l4.34-7.08,4.39,7.08h3.56l-6-9.42ZM20,14.27a4.33,4.33,0,0,1,4.34-3.41,4.15,4.15,0,0,1,4.18,3.41Zm4.35-6a7.34,7.34,0,0,0-7.56,7.13,4.69,4.69,0,0,0,0,.53,7.34,7.34,0,0,0,7.05,7.62h.56a7.09,7.09,0,0,0,7.05-4.82h-3.1a4.12,4.12,0,0,1-3.92,2.18,4.34,4.34,0,0,1-4.57-4.08v-.1H31.75c.3-4.83-2.68-8.48-7.39-8.48ZM48,8.57H44.16L37.82,14.9V8.57h-3V23.21h3V16.45l6.9,6.76H48.6l-7.74-7.7ZM56.7,11a4.05,4.05,0,0,1,4.07,2.85h3.11a7,7,0,0,0-7.18-5.6,7.44,7.44,0,0,0-7.62,7.26v.38a7.44,7.44,0,0,0,7.24,7.64h.35a7,7,0,0,0,7.21-5.67H60.76a4.12,4.12,0,0,1-4.09,2.88,4.54,4.54,0,0,1-4.57-4.51c0-.11,0-.23,0-.34A4.55,4.55,0,0,1,56.29,11Zm11.74,6.21C68,20,67.37,20.73,66,20.73a8.72,8.72,0,0,1-.88-.08v2.72a9.3,9.3,0,0,0,1.49.16c2.51,0,4.13-1.65,4.85-6l1-6.12H77.3v11.8h3V8.57H69.82Zm18.15-3a4.33,4.33,0,0,1,4.34-3.41,4.15,4.15,0,0,1,4.18,3.41Zm4.34-6a7.34,7.34,0,0,0-7.56,7.13,4.69,4.69,0,0,0,0,.53,7.35,7.35,0,0,0,7,7.66H91a7.11,7.11,0,0,0,7-4.82H94.92A4.09,4.09,0,0,1,91,20.89a4.35,4.35,0,0,1-4.58-4.09v-.09h11.9c.3-4.81-2.68-8.46-7.39-8.46Zm16.82.32H100v2.82h4.8V23.21h3V11.39h4.76V8.57Z"/><path class="b" d="M15.36,2.78,7.93,0,.5,2.78,7.93,5.49Z"/><path class="b" d="M114.35,16.94V8.57h3.16a3,3,0,0,1,2,.61,2.21,2.21,0,0,1,.72,1.76,2.16,2.16,0,0,1-.51,1.52,2.38,2.38,0,0,1-1.45.75,1.85,1.85,0,0,1,.9.93l1.52,2.8h-.8l-1.44-2.68a1.78,1.78,0,0,0-.69-.75,2.31,2.31,0,0,0-1-.19h-1.69v3.62Zm.73-4.24h2.34c1.41,0,2.11-.58,2.11-1.76s-.7-1.74-2.11-1.74h-2.34Z"/><path class="b" d="M124.1,17c-1.37,0-2.06-.75-2.06-2.23V11.18h.73v3.59a1.86,1.86,0,0,0,.34,1.25,1.32,1.32,0,0,0,1.08.4,1.72,1.72,0,0,0,1.3-.53,2,2,0,0,0,.51-1.43V11.18h.72v5.76H126v-1a1.89,1.89,0,0,1-.8.83A2.2,2.2,0,0,1,124.1,17Z"/><path class="b" d="M128.63,16.94V11.18h.71v1a1.92,1.92,0,0,1,.82-.85,2.61,2.61,0,0,1,1.19-.29c1.37,0,2.06.75,2.06,2.24v3.63h-.73V13.37a1.89,1.89,0,0,0-.34-1.26,1.37,1.37,0,0,0-1.09-.41,1.82,1.82,0,0,0-1.38.54,1.93,1.93,0,0,0-.51,1.41v3.29Z"/><path class="b" d="M135.42,16.94V8.57h.73v8.37Z"/><path class="b" d="M140.4,16.94V9.22h-3.12V8.57h7v.65h-3.13v7.72Z"/></svg>