<svg xmlns="http://www.w3.org/2000/svg" viewBox="0 0 576 458"><defs><style>.a{fill:none;stroke:#999;stroke-width:0.54px;}</style></defs><path class="a" d="M258.93-.29c19.89,53,42,106.76,16.84,151.09-50.82,89.4-247,37.68-269,138.13-18.75,85.91,121,129.92,204.17,158.63,62.43,21.56,126.88-21.8,192.93-21.5,37,.17,69.71,28,106.38,22.86,24.61-3.43,45.89-15.29,66.59-28.86"/><path class="a" d="M287.52-.29C303.79,53.47,324.74,108.9,297,151.79,243.39,234.85,60.64,176,34.61,271.25c-22.24,81.55,107.93,132,186.17,164.35,58.56,24.14,122.62-13.58,185.86-9.8C442.29,427.9,472.36,456,508,453c25-2.13,47.28-13,68.93-25.54"/><path class="a" d="M315-.29c12.35,54,31.83,110.8,1.83,151.93-55.92,76.69-225.08,12.08-254.7,102-25.29,77.07,95,133.08,168.21,168.56,54.6,26.35,117.85-5.93,178.11,1,34.19,3.87,61.71,32,96.1,31,25.85-.82,49.39-10.85,72.3-22.67"/><path class="a" d="M341.45-.29c8.21,53.58,25.93,111.48-6.09,150.54C277.7,220.6,122.17,151.54,89.48,236c-27.91,72.52,82.36,133.11,150.39,171.28,50.6,28.2,112.63,1.16,169.76,11,32.64,5.5,57.72,33.44,90.8,34.3,26.92.58,52.06-8.77,76.45-19.92"/><path class="a" d="M366.74-.29c4,52.53,19.66,111.11-14.08,147.82-58.87,64.07-200.84-8.12-236.08,70.89-30.06,67.81,69.65,131.93,132.49,172.33l.32.21c46.58,29.69,107,7.63,160.9,20,31,6.95,53.75,34.56,85.44,37.12,28.16,2.1,55.15-6.55,81.15-17.11"/><path class="a" d="M390.85-.29c-.23,50.82,13.14,109.61-22,143.72-59.56,57.88-188.14-16.14-225.43,57.38-31.88,63.34,58,130.25,115.62,172.39,42.54,30.82,101,13.47,151.57,28,29.34,8.24,49.85,35.35,80.06,39.45,29.48,3.77,58.54-4.08,86.18-14.1"/><path class="a" d="M413.71-.29c-4.25,48.46,6.54,106.87-29.53,138.16C324.43,189.7,209,115.12,170.12,183.18,136.88,242,216.65,310.61,269,354.06c38.54,31.58,94.73,18.65,141.88,35,27.63,9.36,46,35.81,74.7,41.3,30.81,5.6,62.09-1.25,91.3-10.84"/><path class="a" d="M435.21-.29c-7.9,45.5.05,102.83-36.53,131.1-59.45,45.95-162.18-28-202.09,34.71-34.18,54.26,35.54,123.74,82.71,168,34.6,32,88.2,23.18,131.9,41,25.89,10.33,42.35,36,69.4,42.69,31.49,7.44,64.44,2.22,94.6-6.86l1.68-.46"/><path class="a" d="M456.24-.29C444.86,41.86,450.15,98,413.29,123.26c-58.69,40.27-149.15-31.81-189.64,25.6-34.73,49.84,25.12,119.24,67.2,164,30.73,32.08,81.47,27,121.71,46.06,24.12,11.12,38.79,35.83,64.2,43.61,30.21,8.82,62.66,6.39,92.2-1.36,2.66-.63,5.3-1.21,7.92-1.77"/><path class="a" d="M511.85-.29C516.53,11,526.52,21.39,534.19,31.6c12.07,16.06,22.62,38.54,42.69,39.26"/><path class="a" d="M476.36-.29c-5.53,8.65-9.06,18.28-9.23,29.05.12,14.87,10.43,25.76,18.87,38.17,7.13,10,13.48,20.25,21.56,29.42,14.67,16.18,30,36.7,51.33,37a36.18,36.18,0,0,0,18-3.83"/><path class="a" d="M466.49-.29C453,15.4,445.06,35.56,446.55,56.8c1.67,17.45,15.72,28.89,26.18,43.14,8.3,10.71,14.51,22.33,23.88,32.07,16,16.08,33.59,35.31,55.64,35.36a44.31,44.31,0,0,0,24.63-6.16"/><path class="a" d="M460-.29c-.95.64-1.92,1.3-2.9,2-24.7,18.54-34.87,52-30.15,83.39C430.42,105,448.3,116.6,461,132.5c9.57,11.35,15.81,24.34,26.57,34.54,17.44,15.87,37.14,33.63,59.91,33.32,11.88.24,21.1-2.5,29.39-7.27"/><path class="a" d="M544.77-.29c-6.71,5.7-14.28,10.44-24,11.9C481.74,17.52,462.54-5,432.08,18.06c-26.89,21-31.62,61.08-23.83,95.17,5.63,22.18,27.4,33.52,42.57,50.85,10.93,11.88,17.39,26.28,29.61,36.8,18.86,15.55,40.6,31.66,64.13,30.9,13,.06,23.17-2.46,32.32-7.2"/><path class="a" d="M546.2-.29C535.6,12.51,525,26.89,507.15,30.62c-42.55,8.91-67.4-22.51-100.3,3.84C378,58.2,379.39,104.34,390.58,140.92c8,24.28,33.69,35,51.52,53.5,12.38,12.28,19.24,28.1,33,38.8,20.31,15.13,44,29.41,68.25,28.11,13.29-.19,23.94-2.23,33.54-6.4"/><path class="a" d="M542-.29c-13.7,17.71-24.18,42.14-48.16,48.58C448,60.61,416.46,20.91,381.39,50.86,350.79,77.64,359,129.25,373.88,168c10.64,26.17,40.22,35.81,60.89,55.28,13.91,12.55,21.34,29.78,36.68,40.53,21.76,14.59,47.18,26.88,72.26,24.95,12.82-.49,23.52-2,33.17-5.35"/><path class="a" d="M534.29-.29c-16.2,21.73-25,55.37-53.62,64.82-48.79,16.13-88-31.16-124.95,2.72-32.07,30.08-16.47,86.53,2.4,127.21,13.51,27.83,46.93,36,70.6,56.16,15.51,12.69,23.7,31.31,40.67,42,23.22,13.93,50.26,24.08,76.11,21.42,11.79-.76,22-2,31.38-4.41"/><path class="a" d="M523.55-.29c-17.63,25.69-23.84,67-55.93,79.6-51.49,20.3-99.37-33.8-137.79,4.3-33.26,33.63-9.7,94.22,13.41,136.46,16.6,29.26,53.77,35.56,80.58,56.1,17.16,12.69,26.3,32.66,44.94,43.06,24.67,13.15,53.16,21,79.79,17.54A276.55,276.55,0,0,0,576.88,333"/><path class="a" d="M510-.29c-17.74,29.88-21,77-55.51,92.86-53.86,24.83-111.25-35.23-150.8,7.37-34.14,37.41-2.11,101.4,25.46,144.85,19.89,30.4,60.71,34.45,90.76,55.08,18.87,12.53,29.13,33.81,49.46,43.79,26.1,12.25,55.86,17.7,83.27,13.31,8.58-1.08,16.64-2.05,24.23-3.32"/><path class="a" d="M494-.29c-16.59,34.18-16.91,85.51-52.86,104.6C385.31,134,317.6,68.91,277.31,116.24c-34.7,41.39,6.25,108,38.49,152.29,23.35,31.27,67.67,32.65,101.07,53.07,20.59,12.22,32.16,34.73,54.18,44.14a154.68,154.68,0,0,0,86.52,8.74c6.68-1.06,13.12-2,19.31-3"/><path class="a" d="M476-.29c-14.39,38.34-11.83,92.58-48.54,114.82-57.48,34.85-136.25-34.27-176.86,18-34.9,45.54,15.34,114,52.43,158.67,27,31.83,74.61,30.18,111.41,50.08,22.36,11.75,35.39,35.41,59.11,44.08,28.88,10.09,60.64,10.38,89.51,3.85,4.68-.92,9.28-1.74,13.79-2.54"/></svg>