<svg width="50" height="50" viewBox="0 0 50 50" fill="none" xmlns="http://www.w3.org/2000/svg">
<g clip-path="url(#clip0_93_1176)">
<path d="M25 50C38.8071 50 50 38.8071 50 25C50 11.1929 38.8071 0 25 0C11.1929 0 0 11.1929 0 25C0 38.8071 11.1929 50 25 50Z" fill="#EBF1F9"/>
<path fill-rule="evenodd" clip-rule="evenodd" d="M11.4672 24.5696C18.737 21.4022 23.5843 19.3138 26.0091 18.3045C32.9347 15.4254 34.3812 14.9254 35.3114 14.9068C35.6564 14.9001 35.9947 15.0018 36.2788 15.1975C36.4782 15.3694 36.6053 15.6103 36.6347 15.8719C36.6847 16.1973 36.6988 16.5272 36.6765 16.8556C36.3021 20.8091 34.6765 30.3649 33.8509 34.7812C33.5021 36.6417 32.8137 37.2766 32.1463 37.3394C30.6998 37.4719 29.5881 36.3812 28.1928 35.4626C25.9974 34.0231 24.7579 33.137 22.6277 31.7231C20.1649 30.0952 21.7626 29.2091 23.1649 27.7533C23.5323 27.3719 29.9091 21.5673 30.0347 21.0417C30.0512 20.9641 30.0493 20.8837 30.0291 20.8069C30.0089 20.7302 29.971 20.6592 29.9184 20.5998C29.842 20.5521 29.7556 20.5229 29.666 20.5144C29.5764 20.5059 29.486 20.5184 29.4021 20.551C29.1835 20.5991 25.6781 22.9161 18.8858 27.5022C17.8905 28.1859 16.9889 28.5192 16.1812 28.5022C15.2905 28.4812 13.5788 27.9975 12.3044 27.5719C10.7439 27.0649 9.51372 26.7975 9.6114 25.944C9.66876 25.4975 10.2874 25.0394 11.4672 24.5696Z" fill="#136EF6"/>
</g>
<defs>
<clipPath id="clip0_93_1176">
<rect width="50" height="50" fill="white"/>
</clipPath>
</defs>
</svg>
