<svg width="30" height="30" viewBox="0 0 30 30" fill="none" xmlns="http://www.w3.org/2000/svg">
<g clip-path="url(#clip0_208_1491)">
<path d="M14.8189 29.0909C22.8521 29.0909 29.3643 22.5787 29.3643 14.5455C29.3643 6.51222 22.8521 0 14.8189 0C6.78566 0 0.273438 6.51222 0.273438 14.5455C0.273438 22.5787 6.78566 29.0909 14.8189 29.0909Z" fill="#136EF6"/>
<path d="M21.9944 10.8487C21.9086 10.5292 21.7403 10.2379 21.5064 10.0039C21.2725 9.76999 20.9811 9.6017 20.6616 9.51595C19.4871 9.20068 14.7717 9.20068 14.7717 9.20068C14.7717 9.20068 10.0563 9.20068 8.88045 9.51595C8.5613 9.60245 8.27035 9.77099 8.03653 10.0048C7.80272 10.2386 7.63418 10.5296 7.54768 10.8487C7.23242 12.0245 7.23242 14.4776 7.23242 14.4776C7.23242 14.4776 7.23242 16.9307 7.54768 18.1066C7.63418 18.4257 7.80272 18.7167 8.03653 18.9505C8.27035 19.1843 8.5613 19.3528 8.88045 19.4393C10.0563 19.7546 14.7717 19.7546 14.7717 19.7546C14.7717 19.7546 19.4858 19.7546 20.6616 19.4393C20.9811 19.3536 21.2725 19.1853 21.5064 18.9514C21.7403 18.7174 21.9086 18.4261 21.9944 18.1066C22.3096 16.9307 22.3096 14.4776 22.3096 14.4776C22.3096 14.4776 22.3096 12.0245 21.9944 10.8487ZM13.263 16.7386V12.2167L17.1869 14.4776L13.263 16.7386Z" fill="#EBF1F9"/>
</g>
<defs>
<clipPath id="clip0_208_1491">
<rect width="29.0909" height="29.0909" fill="white" transform="translate(0.272461)"/>
</clipPath>
</defs>
</svg>
