<?xml version="1.0" encoding="utf-8"?>
<svg version="1.1" id="Слой_1" x="100px" y="100px" viewBox="0 -25 270 60.5" style="enable-background:new 0 0 263.03 55;" xmlns="http://www.w3.org/2000/svg" xmlns:bx="https://boxy-svg.com">
  <style type="text/css">
	.st0{fill:#FFFFFF;}
	.st1{fill:#1D1D1B;}
	.st2{fill:#136EF6;}
</style>
  <g transform="matrix(1, 0, 0, 1, 1.359521, -23.24774)" bx:origin="0.001 0.001">
    <polygon class="st1" points="35.85,11.95 25.11,15.86 18.67,26.25 12.3,15.98 1.49,12.05 14.19,31.79 0,54.25 8.34,54.25 &#10;&#9;&#9;18.48,37.7 28.75,54.25 37.08,54.25 22.96,32.23 &#9;" style="fill: rgb(255, 255, 255);"/>
    <path class="st1" d="M46.79,33.35c1.18-4.6,4.79-7.96,10.14-7.96c5.17,0,8.71,3.3,9.77,7.96H46.79z M56.94,19.28 c-10.33,0-17.67,7.59-17.67,17.92c0,10.33,7.4,17.8,17.79,17.8c7.28,0,13.81-3.61,16.49-11.26h-7.28c-1.62,3.36-5.04,5.1-9.15,5.1 c-5.73,0-10.14-3.48-10.7-9.77h27.81C74.92,27.81,67.95,19.28,56.94,19.28" style="fill: rgb(255, 255, 255);"/>
    <polygon class="st1" points="112.25,20.03 103.23,20.03 88.42,34.84 88.42,20.03 81.39,20.03 81.39,54.25 88.42,54.25 88.42,38.45 &#10;&#9;&#9;104.54,54.25 113.62,54.25 95.52,36.27 &#9;" style="fill: rgb(255, 255, 255);"/>
    <path class="st1" d="M132.54,25.82c4.42,0,8.21,2.36,9.52,6.66h7.28c-1.56-8.28-8.71-13.19-16.8-13.19 c-10.2,0-17.8,7.65-17.8,17.86c0,10.2,7.59,17.86,17.73,17.86c8.03,0,15.24-4.79,16.86-13.25h-7.28c-1.31,4.23-5.1,6.72-9.58,6.72 c-6.16,0-10.64-4.67-10.64-11.33C121.84,30.55,126.2,25.82,132.54,25.82" style="fill: rgb(255, 255, 255);"/>
    <path class="st1" d="M159.99,40.32c-1.06,6.35-2.49,8.15-5.79,8.15c-0.68,0-1.37-0.13-2.05-0.19v6.35 c1.12,0.19,2.36,0.37,3.48,0.37c5.85,0,9.65-3.86,11.33-14.06l2.24-14.31h11.33v27.63h7.03V20.03h-24.33L159.99,40.32z" style="fill: rgb(255, 255, 255);"/>
    <path class="st1" d="M202.43,33.35c1.18-4.6,4.79-7.96,10.14-7.96c5.16,0,8.71,3.3,9.77,7.96H202.43z M212.57,19.28 c-10.33,0-17.67,7.59-17.67,17.92c0,10.33,7.4,17.8,17.8,17.8c7.28,0,13.81-3.61,16.49-11.26h-7.28c-1.62,3.36-5.04,5.1-9.15,5.1 c-5.72,0-10.14-3.48-10.7-9.77h27.81C230.55,27.81,223.58,19.28,212.57,19.28" style="fill: rgb(255, 255, 255);"/>
    <polygon class="st1" points="251.9,20.03 233.67,20.03 233.67,26.63 244.87,26.63 244.87,54.25 251.9,54.25 251.9,26.63 &#10;&#9;&#9;263.03,26.63 263.03,20.03 &#9;" style="fill: rgb(255, 255, 255);"/>
    <polygon class="st2" points="35.91,6.5 18.54,0 1.17,6.5 18.54,12.83 &#9;"/>
  </g>
</svg>