<svg xmlns="http://www.w3.org/2000/svg" id="Слой_1" x="100" y="100" style="enable-background:new 0 0 263.03 55" version="1.1" viewBox="0 -25 270 60.5">
  <style>
    .st1{fill:#1d1d1b}
  </style>
  <g bx="0.001 0.001">
    <path d="m35.85 11.95-10.74 3.91-6.44 10.39-6.37-10.27-10.81-3.93 12.7 19.74L0 54.25h8.34L18.48 37.7l10.27 16.55h8.33L22.96 32.23zM46.79 33.35c1.18-4.6 4.79-7.96 10.14-7.96 5.17 0 8.71 3.3 9.77 7.96H46.79zm10.15-14.07c-10.33 0-17.67 7.59-17.67 17.92 0 10.33 7.4 17.8 17.79 17.8 7.28 0 13.81-3.61 16.49-11.26h-7.28c-1.62 3.36-5.04 5.1-9.15 5.1-5.73 0-10.14-3.48-10.7-9.77h27.81c.69-11.26-6.28-19.79-17.29-19.79M112.25 20.03h-9.02L88.42 34.84V20.03h-7.03v34.22h7.03v-15.8l16.12 15.8h9.08l-18.1-17.98zM132.54 25.82c4.42 0 8.21 2.36 9.52 6.66h7.28c-1.56-8.28-8.71-13.19-16.8-13.19-10.2 0-17.8 7.65-17.8 17.86 0 10.2 7.59 17.86 17.73 17.86 8.03 0 15.24-4.79 16.86-13.25h-7.28c-1.31 4.23-5.1 6.72-9.58 6.72-6.16 0-10.64-4.67-10.64-11.33.01-6.6 4.37-11.33 10.71-11.33M159.99 40.32c-1.06 6.35-2.49 8.15-5.79 8.15-.68 0-1.37-.13-2.05-.19v6.35c1.12.19 2.36.37 3.48.37 5.85 0 9.65-3.86 11.33-14.06l2.24-14.31h11.33v27.63h7.03V20.03h-24.33l-3.24 20.29zM202.43 33.35c1.18-4.6 4.79-7.96 10.14-7.96 5.16 0 8.71 3.3 9.77 7.96h-19.91zm10.14-14.07c-10.33 0-17.67 7.59-17.67 17.92 0 10.33 7.4 17.8 17.8 17.8 7.28 0 13.81-3.61 16.49-11.26h-7.28c-1.62 3.36-5.04 5.1-9.15 5.1-5.72 0-10.14-3.48-10.7-9.77h27.81c.68-11.26-6.29-19.79-17.3-19.79M251.9 20.03h-18.23v6.6h11.2v27.62h7.03V26.63h11.13v-6.6z" class="st1" style="fill:#fff" transform="translate(1.36 -23.248)"/>
    <path d="M35.91 6.5 18.54 0 1.17 6.5l17.37 6.33z" style="fill:#136ef6" transform="translate(1.36 -23.248)"/>
  </g>
</svg>