<?xml version="1.0" standalone="no"?>
<!DOCTYPE svg PUBLIC "-//W3C//DTD SVG 20010904//EN"
 "http://www.w3.org/TR/2001/REC-SVG-20010904/DTD/svg10.dtd">
<svg version="1.0" xmlns="http://www.w3.org/2000/svg"
 width="225.000000pt" height="225.000000pt" viewBox="0 0 225.000000 225.000000"
 preserveAspectRatio="xMidYMid meet">

<g transform="translate(0.000000,225.000000) scale(0.100000,-0.100000)"
fill="#606060"  stroke="none">
<path d="M1075 2001 c-16 -11 -128 -118 -247 -239 -200 -200 -218 -221 -218
-253 0 -32 21 -75 44 -91 6 -4 28 -8 50 -8 36 0 47 8 180 139 l141 140 5 -394
5 -393 23 -25 c13 -14 35 -28 48 -31 37 -10 91 20 103 56 7 20 11 167 11 412
l0 380 143 -142 c137 -135 145 -142 184 -142 29 0 48 7 68 26 24 22 27 31 22
70 -5 44 -13 54 -223 266 -198 199 -257 248 -296 248 -7 0 -26 -9 -43 -19z"/>
<path d="M304 980 c-49 -20 -54 -41 -54 -240 0 -102 5 -202 10 -222 16 -55 79
-129 141 -163 l54 -30 644 -3 c714 -3 707 -3 792 61 28 22 55 56 74 93 30 58
30 61 33 244 2 110 -1 197 -7 212 -22 58 -115 73 -157 27 -17 -19 -20 -43 -24
-221 -5 -183 -7 -201 -24 -214 -17 -12 -124 -14 -666 -14 -611 0 -648 1 -663
18 -14 15 -17 47 -18 193 -1 96 -6 186 -12 202 -18 53 -71 78 -123 57z"/>
</g>
</svg>
