<svg xmlns="http://www.w3.org/2000/svg" viewBox="0 0 48 48"><defs><style>.a{fill:#4f5b93;}.b{fill:#fff;}</style></defs><rect class="a" x="4" y="4" width="40" height="40"/><path class="b" d="M18.11,20.38A4.74,4.74,0,0,0,14.38,19H8.73L6.11,32.54H9.05L9.74,29h2.5A9,9,0,0,0,15,28.65a5.23,5.23,0,0,0,2-1.17,6.37,6.37,0,0,0,1.23-1.55,6.07,6.07,0,0,0,.65-1.8A4.2,4.2,0,0,0,18.11,20.38Zm-2.33,3.54a3.68,3.68,0,0,1-1.18,2.24,4.42,4.42,0,0,1-2.65.67H10.16l1.1-5.65h2a3,3,0,0,1,2.23.61A2.53,2.53,0,0,1,15.78,23.92Z"/><path class="b" d="M25.83,29,27,23a1.68,1.68,0,0,0-.14-1.4,2.06,2.06,0,0,0-1.47-.36H23L21.54,29H18.62l2.63-13.5h2.92l-.7,3.58h2.6a5.21,5.21,0,0,1,3.38.84A2.76,2.76,0,0,1,30,22.69L28.79,29Z"/><path class="b" d="M41.06,20.38A4.74,4.74,0,0,0,37.33,19H31.68l-2.62,13.5H32L32.69,29h2.5a9,9,0,0,0,2.74-.35,5.25,5.25,0,0,0,2-1.18,5.75,5.75,0,0,0,1.19-1.5,5.56,5.56,0,0,0,.65-1.8A4.25,4.25,0,0,0,41.06,20.38Zm-2.34,3.54a3.63,3.63,0,0,1-1.18,2.24,4.37,4.37,0,0,1-2.64.67H33.11l1.1-5.65h2a3.05,3.05,0,0,1,2.24.61A2.54,2.54,0,0,1,38.72,23.92Z"/></svg>