<svg xmlns="http://www.w3.org/2000/svg" viewBox="0 0 48 48"><defs><style>.a{fill:#363636;}.b{fill:#206eb0;}.c{fill:#ffcf46;}</style></defs><rect class="a" x="4" y="4" width="40" height="40"/><path class="b" d="M24,8.17a18,18,0,0,0-3.28.3C17.55,9,17,10.2,17,12.33v3.34h7.5v1.66H13.06a4.49,4.49,0,0,0-4.73,3.52,14,14,0,0,0,0,7.6c.54,2.22,1.74,3.88,3.95,3.88h3V28.08a5.09,5.09,0,0,1,4.81-4.91h6c2.11,0,4.17-1.55,4.17-3.65V12.33a3.94,3.94,0,0,0-3.52-3.89A14,14,0,0,0,24,8.17ZM19.87,11.5a1.25,1.25,0,1,1-1.25,1.25A1.24,1.24,0,0,1,19.87,11.5Z"/><path class="c" d="M23.23,39.83a17.08,17.08,0,0,0,3.27-.3c3.21-.56,3.79-1.73,3.79-3.9v-3.3h-7.5V30.67H34.21a4.48,4.48,0,0,0,4.72-3.52,13.82,13.82,0,0,0,0-7.6c-.54-2.22-1.74-3.88-3.94-3.88H32v4.25a5.09,5.09,0,0,1-4.8,4.91h-6C19,24.83,17,26.38,17,28.48v7.19a4,4,0,0,0,3.51,3.9A15,15,0,0,0,23.23,39.83ZM27.4,36.5a1.25,1.25,0,1,1,1.25-1.25A1.25,1.25,0,0,1,27.4,36.5Z"/></svg>