<svg width="27" height="27" viewBox="0 0 27 27" fill="none" xmlns="http://www.w3.org/2000/svg">
<g clip-path="url(#clip0_1_190)">
<path d="M9.20884 24.1028C9.09805 24.0585 8.99279 24.0031 8.88754 23.9532L8.24495 23.6485C7.41955 23.1832 6.61077 22.6736 5.91278 22.0254C5.54162 21.7263 5.22587 21.3662 4.89903 21.0228C4.7273 20.8566 4.59989 20.6516 4.44478 20.4688C4.30075 20.2749 4.14011 20.1032 4.01269 19.8982C3.76341 19.4938 3.47535 19.1061 3.27593 18.6684C3.17068 18.4524 3.0488 18.2474 2.94909 18.0259L2.68873 17.3611C1.87441 15.3336 1.76916 13.4391 1.22628 13.6053C0.999153 13.6828 0.821886 14.1481 0.716634 14.9292C0.705555 15.317 0.700015 15.7823 0.749872 16.3086C0.794188 16.5689 0.844045 16.8459 0.899441 17.134C0.932678 17.278 0.954837 17.4276 0.999154 17.5771C1.04901 17.7212 1.09887 17.8707 1.14872 18.0259C1.48664 19.1338 2.0406 20.1586 2.64995 21.1446C2.99341 21.6155 3.30917 22.103 3.71356 22.5295L4.00162 22.8564C4.09579 22.9672 4.1955 23.078 4.30075 23.1721L4.93781 23.7704C5.82414 24.5238 6.78803 25.2162 7.85718 25.7037C8.37236 25.9863 8.9374 26.1635 9.48582 26.3685C9.7628 26.4682 10.0509 26.5236 10.3334 26.6012C10.6214 26.6732 10.8929 26.7563 11.2031 26.7895L11.9288 26.8947L12.2889 26.9446L12.6157 26.9612L13.2749 26.9889L13.4411 26.9945L13.5242 27H13.563H13.6128H13.6184H13.6294H13.6516L14.0061 26.9834C14.477 26.9501 14.9479 26.9557 15.4132 26.8615C15.8785 26.784 16.3438 26.7286 16.7981 26.5901C18.6206 26.1303 20.3379 25.2772 21.8059 24.1139C23.2683 22.9506 24.4981 21.4881 25.3457 19.8262L25.6448 19.1947C25.739 18.9842 25.8498 18.7792 25.9218 18.5521L26.1545 17.8929L26.2708 17.5661C26.304 17.4553 26.3262 17.3389 26.3594 17.2281L26.5256 16.5523C26.5533 16.436 26.5866 16.3307 26.6032 16.2089L26.653 15.8543C26.714 15.3835 26.8026 14.896 26.8026 14.4694C26.9909 12.8408 26.8635 11.1124 26.3927 9.48933C25.9273 7.85515 25.1241 6.3096 24.0494 4.96902C22.9747 3.62844 21.6342 2.49282 20.1163 1.65634L18.9475 1.08576C18.5431 0.930652 18.1331 0.781083 17.7287 0.631514C17.3133 0.509643 16.8923 0.40993 16.4713 0.299138C16.0392 0.210505 15.5794 0.155109 15.1362 0.0886336L14.97 0.0664752L14.8204 0.055396L14.5213 0.0387772L13.923 0.0110792L13.7735 0.0055396L13.7015 0H13.6239H13.6017H13.563L13.2361 0.0166188L12.5714 0.0332376L12.2445 0.0498564C12.1393 0.0609356 12.0285 0.083094 11.9232 0.0941732L11.2806 0.199426C10.8486 0.249282 10.4331 0.382232 10.0121 0.487485C8.33912 0.947271 6.7548 1.73943 5.38098 2.7975C4.00162 3.85002 2.83276 5.16844 1.94089 6.65306C1.83009 6.8414 1.70822 7.01867 1.61405 7.21256L1.33153 7.79421C1.2429 7.9881 1.13764 8.18199 1.05455 8.38141L0.827426 8.99077C0.755411 9.19573 0.672317 9.39516 0.605842 9.60012L0.439654 10.2261L0.273466 10.8576L0.162674 11.5279C0.0241842 12.2037 0.212531 13.0624 0.323323 13.356C0.572604 13.921 0.816347 13.2175 1.07117 12.1483C1.55865 10.3867 2.38405 8.61407 3.58061 7.01867C3.7191 6.81371 3.9019 6.63644 4.05701 6.44255L4.30075 6.15449L4.42262 6.01046L4.55558 5.87751C4.73284 5.70025 4.91565 5.52298 5.09292 5.34017L5.22587 5.20722L5.37544 5.08535L5.66903 4.84161C6.04573 4.49815 6.47782 4.22117 6.89883 3.92204C7.10379 3.76693 7.34199 3.66167 7.55804 3.52872C7.77962 3.40131 7.99567 3.25728 8.23387 3.16311C9.33625 2.59253 10.5439 2.25462 11.7626 2.07735C12.0673 2.04411 12.3719 1.97764 12.6822 1.98318L13.142 1.96656L13.3746 1.96102L13.4909 1.95548H13.5463H13.574H13.5851L14.549 2.02195L14.7983 2.03857C14.8814 2.04411 14.9479 2.06073 15.0199 2.07181L15.4575 2.14936L15.8951 2.22138C16.0392 2.24908 16.1887 2.29893 16.3383 2.33771L16.7815 2.45958C16.931 2.49836 17.0751 2.53714 17.2191 2.59807L18.0722 2.92491C18.3492 3.05786 18.6206 3.19635 18.8921 3.33484C19.9667 3.9165 20.9472 4.6588 21.7948 5.52852C22.6424 6.40378 23.3293 7.42306 23.8666 8.50882L24.0605 8.91875L24.1602 9.12372L24.2378 9.33976L24.548 10.1929L24.7696 11.0737C24.7862 11.1457 24.8083 11.2177 24.825 11.2952L24.8582 11.5224L24.9247 11.9711L24.9967 12.4198L25.0189 12.874L25.041 13.3283L25.0521 13.5554V13.5776V13.6274L25.0465 13.7493L25.0022 14.7409C24.969 15.0455 24.9136 15.317 24.8804 15.6106C24.6754 16.7794 24.2932 17.9705 23.7392 19.0562C23.1298 20.1032 22.3709 21.056 21.4901 21.8814C18.7092 24.5183 14.5878 25.5708 10.904 24.6401L10.217 24.4629L9.54675 24.2191L9.20884 24.1028Z" fill="#136EF6"/>
<path d="M9.74032 18.176L9.88583 18.3078C10.4497 18.8164 11.2955 18.7599 11.7866 18.176C12.496 17.3379 13.169 16.4621 13.8602 15.6146C16.4976 14.4093 18.0164 11.9609 20.09 10.134C20.1809 10.0492 20.09 9.68198 19.9809 9.47481C19.7535 9.06047 19.3715 8.90038 19.0168 8.86271C17.8163 8.73088 16.8796 9.10755 16.1338 9.71023C14.3513 11.1698 12.4778 12.5259 11.0772 14.4093C11.0136 14.4658 10.9408 14.5223 10.8771 14.5693C10.286 13.9855 9.64937 13.4487 8.95818 12.9779C8.53073 12.686 7.93958 12.686 7.37572 13.3169C6.86642 13.8913 6.73 14.5599 7.03012 15.0025C7.5758 15.803 8.11238 16.6128 8.78538 17.2814C9.10369 17.5922 9.42201 17.8841 9.74032 18.176Z" fill="#136EF6"/>
</g>
<defs>
<clipPath id="clip0_1_190">
<rect width="27" height="27" fill="white"/>
</clipPath>
</defs>
</svg>
