<svg width="25" height="20" viewBox="0 0 25 20" fill="none" xmlns="http://www.w3.org/2000/svg">
<g clip-path="url(#clip0_4_25)">
<rect width="25" height="20" fill="white"/>
<line x1="4.5" y1="11" x2="4.5" y2="19" stroke="#BBA34D"/>
<line x1="4.5" y1="6" x2="4.5" y2="11" stroke="white"/>
<line x1="0.5" y1="20" x2="0.5" y2="2" stroke="black"/>
<line x1="0.5" y1="6.77105e-10" x2="0.5" y2="2" stroke="black"/>
<line x1="1" y1="0.5" x2="6" y2="0.5" stroke="black"/>
<line x1="1" y1="19.5" x2="25" y2="19.5" stroke="black"/>
<line x1="24.5" y1="21" x2="24.5" y2="2" stroke="black"/>
<line x1="5.5" y1="1" x2="5.5" y2="3" stroke="black"/>
<line x1="6" y1="2.5" x2="24" y2="2.5" stroke="black"/>
<path d="M1 1H4V19H1V1Z" fill="#BBA34D"/>
<rect x="5" y="3" width="19" height="16" fill="#BBA34D"/>
<line x1="5" y1="7.5" x2="24" y2="7.5" stroke="white"/>
<line x1="0.544817" y1="19.7931" x2="5.54482" y2="8.7931" stroke="black"/>
<line x1="5" y1="8.5" x2="24" y2="8.5" stroke="black"/>
<line x1="24" y1="5.5" x2="4" y2="5.5" stroke="black"/>
<line x1="3.5" y1="5" x2="3.5" y2="13" stroke="black"/>
<line x1="5" y1="6.5" x2="24" y2="6.5" stroke="white"/>
<line x1="4.5" y1="1" x2="4.5" y2="5" stroke="#BBA34D"/>
</g>
<defs>
<clipPath id="clip0_4_25">
<rect width="25" height="20" fill="white"/>
</clipPath>
</defs>
</svg>