<svg width="360" height="890" viewBox="0 0 360 890" fill="none" xmlns="http://www.w3.org/2000/svg">
<g opacity="0.7">
<path fill-rule="evenodd" clip-rule="evenodd" d="M472.756 140.068C499.719 143.602 503.167 181.512 516.596 205.159C526.702 222.954 541.965 238.797 540.409 259.202C538.809 280.196 522.738 295.389 508.532 310.929C490.067 331.126 474.757 361.867 447.408 360.933C419.724 359.987 405.192 328.983 388.56 306.832C372.619 285.6 349.358 263.861 355.054 237.93C360.614 212.615 393.918 208.265 413.848 191.695C434.719 174.342 445.843 136.542 472.756 140.068Z" stroke="#136EF6" stroke-width="0.3"/>
<path fill-rule="evenodd" clip-rule="evenodd" d="M32.7069 471.078C100.173 352.332 -78.7639 184.349 -2.31325 71.1782C62.9848 -25.4831 222.268 -1.05338 336.851 20.8505C444.718 41.4705 558.634 93.0498 612.558 188.718C664.159 280.264 596.951 392.769 605.519 497.503C611.033 564.916 676.229 626.671 653.598 690.41C630.89 754.366 551.463 773.88 494.363 810.564C449.723 839.244 408.197 874.506 355.645 881.833C305.156 888.873 260.133 850.562 209.156 850.33C118.214 849.917 29.4594 909.662 -56.4982 879.961C-171.012 840.392 -363.467 779.757 -337.643 661.391C-307.447 522.984 -37.2725 594.249 32.7069 471.078Z" stroke="#136EF6" stroke-width="0.3"/>
<path d="M489.069 190.558C469.496 178.306 455.629 192.367 430.324 191.88C392.282 191.174 379.884 200.428 349.931 221.897C322.621 242.025 296.759 268.21 296.217 302.922C296.385 323.416 310.575 338.412 322.195 355.511C332.021 369.253 340.757 383.416 351.883 396.056C372.092 418.341 393.158 446.611 422.566 447.073C452.907 448.241 468.76 424.813 489.682 403.776C501.638 395.076 509.88 379.137 519.812 367.49C532.733 353.898 548.249 345.851 553.23 327.865C558.118 300.512 541.941 275.95 527.882 251.014C517.285 230.478 506.754 202.623 489.069 190.558Z" stroke="#136EF6" stroke-width="0.3"/>
<path d="M482.005 205.051C455.653 194.209 440.701 220.907 409.557 222.057C366.086 223.691 350.592 219.033 316.375 243.412C285.606 266.024 265.142 302.475 267.877 341.56C270.175 365.607 289.528 381.36 303.926 400.997C315.353 415.759 323.901 431.761 336.811 445.189C358.898 467.338 383.066 493.835 413.423 493.906C445.404 494.931 462.209 474.943 484.364 453.176C498.688 443.561 506.597 423.417 518.236 409.761C534.186 392.938 555.327 384.402 561.753 362.284C567.709 331.093 550.26 302.199 533.572 273.964C520.268 249.369 505.513 215.774 482.005 205.051Z" stroke="#136EF6" stroke-width="0.3"/>
<path d="M474.033 217.195C441.02 208.489 426.374 247.954 389.513 251.398C340.773 255.984 320.581 237.842 282.352 265.678C248.331 291.225 234.331 337.387 240.832 380.573C245.661 407.986 270.293 423.953 287.789 445.859C300.96 461.499 309.56 479.401 324.375 493.45C348.388 515.317 375.518 539.784 406.872 539.352C440.568 540.048 458.759 523.303 482.122 500.599C498.739 489.774 505.865 465.424 519.008 449.533C537.65 429.101 564.392 419.412 571.803 392.953C578.401 357.728 559.136 324.584 539.406 293.28C522.906 264.881 503.253 225.955 474.033 217.195Z" stroke="#136EF6" stroke-width="0.3"/>
<path d="M464.974 226.514C425.475 220.662 412.536 272.906 370.138 279.295C316.341 287.432 289.89 256.368 247.947 288.187C210.924 317.107 204.407 372.338 215.142 419.308C222.885 449.867 252.868 465.498 273.758 489.375C288.808 505.738 297.703 525.576 314.531 540.071C340.507 561.506 370.442 583.694 402.83 582.644C438.301 582.814 458.29 569.079 482.819 545.229C501.629 532.906 507.52 504.386 521.943 486.051C542.909 461.66 575.169 450.158 583.087 419.188C589.881 379.768 568.266 342.505 545.097 308.399C524.934 276.493 499.741 232.703 464.974 226.514Z" stroke="#136EF6" stroke-width="0.3"/>
<path d="M454.608 232.9C408.86 230.604 399.029 295.523 351.326 305.489C292.735 317.762 258.516 274.472 213.205 310.778C173.465 343.487 175.398 407.061 190.809 457.462C201.834 490.914 237.195 505.651 261.75 531.175C278.799 548.094 288.239 569.885 307.174 584.637C335.138 605.486 367.704 625.158 401.152 623.367C438.44 622.809 460.617 611.813 486.25 586.613C507.127 572.511 511.333 539.895 526.796 518.926C549.686 490.257 587.324 476.287 595.257 440.678C601.787 396.94 577.294 355.734 550.313 319.128C526.044 284.053 494.709 235.921 454.608 232.9Z" stroke="#136EF6" stroke-width="0.3"/>
<path d="M442.704 236.355C391.002 238.3 385.671 315.669 332.95 329.831C269.879 346.805 226.442 292.111 178.153 333.38C136.022 370.273 147.31 441.386 167.814 494.826C182.467 530.886 223.187 544.168 251.653 570.992C270.808 588.288 281.044 612.026 302.165 626.84C332.132 646.943 367.134 663.875 401.658 661.217C440.79 659.722 465.519 651.161 492.173 624.41C514.967 608.257 517.044 571.657 533.288 547.883C557.675 514.65 600.497 497.569 607.939 457.234C613.732 409.095 585.849 364.169 554.703 325.396C525.912 287.53 487.876 235.627 442.704 236.355Z" stroke="#136EF6" stroke-width="0.3"/>
<path d="M429.02 236.936C371.717 243.782 372.259 333.263 314.862 352.215C247.671 374.431 193.639 309.28 142.805 355.958C98.6414 397.403 120.126 475.175 146.108 531.227C164.714 569.581 210.727 580.847 243.322 608.602C264.677 626.087 275.961 651.743 299.33 666.415C331.302 685.61 368.531 699.593 404.137 695.936C445.119 693.289 472.736 686.829 500.31 658.33C524.848 639.867 524.359 599.431 541.11 572.704C566.54 534.657 614.294 513.837 620.732 468.731C625.305 416.146 593.536 367.769 557.901 327.196C524.204 286.95 478.952 231.9 429.02 236.936Z" stroke="#136EF6" stroke-width="0.3"/>
<path d="M413.302 234.737C350.805 247.118 358.57 348.256 296.886 372.566C225.983 400.539 160.059 325.998 107.152 378.496C61.3498 424.834 93.7997 508.315 125.614 566.517C148.474 606.825 199.666 615.518 236.578 643.813C260.212 661.289 272.794 688.813 298.46 703.133C332.427 721.254 371.656 732.093 408.337 727.304C451.159 723.288 481.97 718.562 510.343 688.127C536.428 667.109 532.948 623.023 549.916 593.215C575.914 550.14 628.296 524.973 633.209 475.094C636.073 418.062 599.943 366.544 559.524 324.567L559.152 324.165C520.231 282.024 467.463 224.89 413.302 234.737Z" stroke="#136EF6" stroke-width="0.3"/>
<path d="M395.286 229.889C328.055 248.407 344.357 360.633 278.827 390.841C204.664 425.056 125.638 342.301 71.1698 400.992C24.1546 452.535 68.2638 540.711 106.228 600.571C133.615 642.463 189.828 648.033 231.214 676.462C257.19 693.723 271.318 723.042 299.31 736.794C335.25 753.674 376.239 761.191 413.978 755.134C458.607 749.529 492.886 746.145 521.92 713.593C549.332 689.79 542.449 642.274 559.336 609.282C585.405 561.005 642.057 530.906 644.922 476.297C645.584 414.856 604.641 360.553 559.172 317.594C514.639 273.961 453.617 214.66 395.286 229.889Z" stroke="#136EF6" stroke-width="0.3"/>
<path d="M374.711 222.552C303.26 247.774 329.368 370.409 260.479 407.019C183.551 447.928 90.3112 358.241 34.8278 423.461C-12.946 480.484 43.4351 572.282 87.8288 633.28C119.989 676.363 181.019 678.27 227.002 706.41C255.367 723.245 271.285 754.264 301.616 767.227C339.494 782.699 381.99 786.732 420.754 779.27C467.143 771.856 505.128 769.396 534.667 734.558C563.166 707.756 552.483 657.065 568.977 620.811C594.604 567.199 655.117 531.609 655.412 472.357C653.38 406.587 607.199 349.894 556.449 306.4C506.061 261.821 436.595 201.496 374.711 222.552Z" stroke="#136EF6" stroke-width="0.3"/>
<path d="M351.329 212.913C276.216 245.367 313.35 377.624 241.632 421.104C162.475 469.121 54.0148 373.882 -1.90532 445.922C-49.9564 508.667 19.2243 602.962 70.2881 664.55C107.435 708.411 173.034 706.129 223.705 733.544C254.488 749.733 272.433 782.335 305.099 794.286C344.867 808.184 388.602 808.591 428.35 799.585C476.43 790.143 518.322 788.169 548.192 750.884C577.52 720.889 562.66 667.314 578.44 627.743C603.098 568.703 667.014 527.098 664.222 463.333C659.004 393.356 607.192 334.707 550.965 291.149C494.483 246.157 416.277 185.589 351.329 212.913Z" stroke="#136EF6" stroke-width="0.3"/>
<path d="M324.904 201.184C246.736 241.354 296.054 382.342 222.08 433.121C141.266 488.619 16.6929 389.298 -39.0567 468.404C-86.879 537.075 -4.4605 632.693 53.472 694.303C95.7887 738.506 165.663 731.527 221.076 757.771C254.291 773.091 274.493 807.139 309.47 817.853C351.069 830.01 395.765 826.667 436.442 815.98C486.125 804.294 532.087 802.346 562.099 762.469C591.978 729.106 572.583 672.968 587.324 630.053C610.473 565.536 677.288 517.426 670.899 449.322C662.012 375.303 604.207 315.168 542.341 272.035C479.57 227.189 392.392 167.185 324.904 201.184Z" stroke="#136EF6" stroke-width="0.3"/>
<path d="M295.556 188.011C214.982 236.334 277.576 385.064 201.958 443.524C120.094 506.835 -21.3672 404.985 -76.3132 491.354C-123.379 566.117 -27.3774 661.845 37.5786 722.887C85.2139 766.979 159.027 754.816 219.203 779.435C254.845 793.66 277.522 828.993 314.77 838.246C358.127 848.497 403.497 841.301 445.035 828.798C496.213 814.653 546.37 812.258 576.318 769.656C606.454 732.773 582.193 674.425 595.562 628.165C616.656 558.166 685.821 503.098 675.334 430.872C662.304 353.016 598.18 291.901 530.555 249.701C461.342 205.577 365.023 146.972 295.556 188.011Z" stroke="#136EF6" stroke-width="0.3"/>
<path d="M264.01 174.524C181.717 231.391 258.603 386.776 181.988 453.256C99.7142 524.666 -59.2838 421.908 -112.771 515.691C-158.534 596.668 -48.6992 691.26 23.3899 751.127C76.4577 794.641 153.833 776.829 218.753 799.363C256.801 812.265 282.161 848.706 321.622 856.272C366.649 864.456 412.399 853.325 454.717 838.872C507.265 822.062 561.699 818.731 591.364 773.287C621.446 732.754 592.012 672.577 603.676 622.998C622.163 547.557 693.088 485.122 678.018 409.035C660.38 327.587 589.652 266.027 516.187 225.283C440.424 182.475 334.864 126.123 264.01 174.524Z" stroke="#136EF6" stroke-width="0.3"/>
<path d="M229.039 159.516C145.75 225.262 237.863 386.128 160.93 460.915C78.9132 540.662 -98.1385 438.684 -149.492 539.978C-193.392 627.249 -69.5718 719.432 9.71347 777.505C68.2913 819.961 148.813 796.063 218.423 816.049C258.834 827.4 287.074 864.749 328.67 870.408C375.27 876.367 421.095 861.238 464.101 844.706C517.874 825.03 576.626 820.266 605.775 771.88C635.481 727.591 600.595 665.994 610.217 613.149C625.545 532.351 697.603 462.184 677.48 382.538C654.789 297.785 577.211 236.345 497.864 197.589C415.493 156.707 300.656 103.475 229.039 159.516Z" stroke="#136EF6" stroke-width="0.3"/>
<path d="M190.475 143.245C106.946 218.151 215.131 383.243 138.587 466.573C57.5197 554.843 -137.967 455.386 -186.499 564.235C-227.888 657.674 -90.5791 746.013 -4.05536 801.678L-3.60668 801.967C60.5213 842.874 143.734 812.483 217.943 829.459C260.659 839.03 291.96 877.071 335.595 880.603C383.656 884.185 429.249 865.019 472.839 846.283C527.673 823.548 590.74 816.846 619.129 765.435C648.124 717.31 607.538 654.727 614.783 598.697C626.402 512.672 698.93 434.457 673.306 351.595C645.132 263.862 560.502 203.133 475.275 166.907C386.286 128.568 262.207 79.3363 190.475 143.245Z" stroke="#136EF6" stroke-width="0.3"/>
<path d="M148.172 125.986C65.1842 210.275 190.192 378.257 114.771 470.311C35.366 567.241 -178.795 472.088 -223.805 588.481C-262.243 688.403 -110.403 771.881 -16.7281 824.469C52.952 863.329 138.365 826.07 217.045 839.577C261.988 847.142 296.515 885.641 342.077 886.833C391.476 887.891 436.525 864.671 480.581 843.611C536.295 817.633 603.631 808.486 631.005 753.986C658.943 701.97 612.442 638.859 616.979 579.752C624.342 488.675 696.646 402.148 665.096 316.451C631.032 226.101 539.194 166.696 448.131 133.548C352.561 98.3775 219.346 54.0282 148.172 125.986Z" stroke="#136EF6" stroke-width="0.3"/>
<path d="M102.004 108.023C20.3648 201.859 162.844 371.326 89.2996 472.23C12.2884 577.9 -220.644 488.868 -261.426 612.74C-296.251 718.928 -130.58 796.093 -29.8099 844.98C45.3854 881.291 132.476 836.824 215.459 846.408C262.533 851.745 300.436 890.452 347.793 889.096C398.395 887.489 442.584 860.22 486.978 836.723C543.375 807.331 614.889 795.231 640.983 737.596C667.513 681.662 614.914 618.502 616.416 556.454C618.989 460.545 690.346 365.495 652.471 277.382C612.133 184.814 512.979 127.365 416.168 97.8453C314.106 66.4714 171.93 27.8879 102.004 108.023Z" stroke="#136EF6" stroke-width="0.3"/>
<path d="M51.8694 89.6516C-27.5959 193.136 132.896 362.622 61.9997 472.444C-11.8729 586.879 -263.526 505.806 -299.369 637.035C-329.99 749.386 -150.746 818.934 -43.0128 863.479C37.6216 896.737 125.836 844.762 212.918 849.978C262.01 852.868 303.417 891.516 352.423 887.414C404.079 883.009 447.094 851.718 491.686 825.679C548.55 792.713 624.11 777.156 648.65 716.362C673.412 656.511 614.569 593.797 612.718 528.972C609.975 428.495 679.64 324.767 635.071 234.693C588.103 140.341 481.573 85.4971 379.146 60.1546C270.729 33.2043 119.841 1.26421 51.8694 89.6516Z" stroke="#136EF6" stroke-width="0.3"/>
</g>
</svg>
