<svg width="80" height="80" viewBox="0 0 80 80" fill="none" xmlns="http://www.w3.org/2000/svg">
<rect width="80" height="80" rx="40" fill="#136EF6"/>
<path d="M51.2297 55.1042H15.7812C15.574 55.1042 15.3753 55.1864 15.2288 55.3329C15.0823 55.4795 15 55.6783 15 55.8855C15 58.0871 16.9688 59.7917 19.2812 59.7917H51.3922M51.0344 58.2292H19.2812C18.0891 58.2292 17.3141 57.5261 16.9281 56.6667H51.1328" fill="#EBF1F9"/>
<path d="M51.0345 55.1041H19.6876V48.8541C19.7033 47.7979 18.1095 47.7979 18.1251 48.8541V55.8854C18.1251 56.0926 18.2074 56.2912 18.354 56.4377C18.5005 56.5842 18.6992 56.6666 18.9064 56.6666H50.9861M57.1876 41.0416V32.4479C57.1876 32.2407 57.1053 32.0418 56.9588 31.8953C56.8123 31.7488 56.6136 31.6666 56.4064 31.6666H18.9064C18.6992 31.6666 18.5005 31.7488 18.354 31.8953C18.2074 32.0418 18.1251 32.2407 18.1251 32.4479V48.8541C18.1095 49.9104 19.7033 49.9104 19.6876 48.8541V33.2291H55.6251V41.0899M62.5767 20.204C61.9575 19.1344 61.0352 18.2722 59.9264 17.7263C58.8175 17.1804 57.5718 16.9751 56.3464 17.1366C55.1211 17.2981 53.971 17.8191 53.0415 18.6336C52.1119 19.4482 51.4445 20.5199 51.1236 21.7134C51.0703 21.9142 51.099 22.1278 51.2033 22.3074C51.3076 22.4871 51.479 22.6179 51.6798 22.6712C51.8806 22.7244 52.0943 22.6958 52.2739 22.5915C52.4535 22.4871 52.5844 22.3158 52.6376 22.115C52.8762 21.2183 53.3756 20.4127 54.0726 19.8002C54.7697 19.1878 55.6329 18.7963 56.5527 18.6751C57.4726 18.5539 58.4078 18.7086 59.2396 19.1196C60.0715 19.5306 60.7625 20.1795 61.2251 20.9837C61.274 21.0771 61.3412 21.1596 61.4227 21.2263C61.5043 21.293 61.5985 21.3425 61.6997 21.3719C61.8009 21.4012 61.907 21.4099 62.0116 21.3972C62.1162 21.3845 62.2171 21.3507 62.3084 21.298C62.3996 21.2453 62.4792 21.1746 62.5424 21.0903C62.6056 21.006 62.6511 20.9098 62.6762 20.8074C62.7013 20.7051 62.7054 20.5988 62.6883 20.4948C62.6712 20.3908 62.6332 20.2929 62.5767 20.204Z" fill="#EBF1F9"/>
<path fill-rule="evenodd" clip-rule="evenodd" d="M49.9423 19.4698C49.8068 19.4751 49.6751 19.5154 49.5599 19.5869C49.4448 19.6585 49.3503 19.7588 49.2857 19.878C49.221 19.9972 49.1885 20.1311 49.1913 20.2666C49.1941 20.4022 49.2322 20.5347 49.3017 20.651L50.8642 23.3541C50.9153 23.4433 50.9836 23.5216 51.0651 23.5844C51.1465 23.6471 51.2396 23.6931 51.3389 23.7198C51.4382 23.7465 51.5417 23.7534 51.6437 23.74C51.7456 23.7266 51.8439 23.6931 51.9329 23.6416L54.6392 22.0791C54.7325 22.0302 54.8151 21.963 54.8818 21.8815C54.9485 21.7999 54.998 21.7057 55.0274 21.6045C55.0567 21.5033 55.0653 21.3973 55.0526 21.2927C55.0399 21.1881 55.0062 21.0871 54.9534 20.9959C54.9007 20.9047 54.8301 20.8251 54.7458 20.7619C54.6615 20.6986 54.5653 20.6531 54.4629 20.6281C54.3606 20.603 54.2542 20.5989 54.1503 20.616C54.0463 20.6331 53.9468 20.6711 53.8579 20.7276L51.8267 21.8994L50.6548 19.8698C50.5845 19.7439 50.4808 19.6398 50.355 19.5692C50.2293 19.4986 50.0864 19.4642 49.9423 19.4698Z" fill="#EBF1F9"/>
<path d="M51.086 26.8632C51.7043 27.9335 52.626 28.7966 53.7345 29.3433C54.843 29.8901 56.0887 30.096 57.3142 29.9352C58.5394 29.773 59.6892 29.2515 60.6183 28.4364C61.5474 27.6213 62.2142 26.5492 62.5345 25.3555C62.5659 25.255 62.5768 25.1492 62.5663 25.0444C62.5558 24.9396 62.5243 24.838 62.4735 24.7457C62.4228 24.6534 62.354 24.5725 62.2711 24.5075C62.1883 24.4425 62.0931 24.3948 61.9914 24.3675C61.8897 24.3402 61.7835 24.3338 61.6793 24.3486C61.575 24.3634 61.4748 24.399 61.3847 24.4535C61.2946 24.508 61.2164 24.5801 61.1549 24.6656C61.0934 24.751 61.0498 24.848 61.0267 24.9507C60.7872 25.8467 60.2871 26.6516 59.5897 27.263C58.8923 27.8744 58.0291 28.2649 57.1095 28.3851C56.1905 28.5066 55.2561 28.3526 54.4247 27.9426C53.5933 27.5326 52.9023 26.885 52.4392 26.082C52.3882 25.9924 52.3201 25.9139 52.2387 25.8508C52.1572 25.7877 52.0641 25.7412 51.9647 25.7142C51.8653 25.6872 51.7615 25.6802 51.6593 25.6934C51.5571 25.7067 51.4586 25.7402 51.3694 25.7917C51.2802 25.8432 51.202 25.9118 51.1394 25.9937C51.0768 26.0755 51.031 26.1689 51.0047 26.2685C50.9784 26.3681 50.972 26.472 50.986 26.5741C50.9999 26.6762 51.0339 26.7743 51.086 26.8632Z" fill="#EBF1F9"/>
<path fill-rule="evenodd" clip-rule="evenodd" d="M62.0778 23.3213C61.9547 23.3275 61.8347 23.3629 61.7278 23.4245L59.0216 24.987C58.932 25.0379 58.8534 25.106 58.7903 25.1874C58.7271 25.2688 58.6808 25.3619 58.6538 25.4613C58.6268 25.5607 58.6197 25.6645 58.633 25.7667C58.6463 25.8689 58.6796 25.9674 58.7311 26.0566C58.7827 26.1458 58.8513 26.224 58.9332 26.2866C59.015 26.3492 59.1084 26.3949 59.208 26.4213C59.3076 26.4476 59.4115 26.4541 59.5136 26.4402C59.6156 26.4262 59.7139 26.3921 59.8028 26.34L61.8341 25.1682L63.006 27.1962C63.0569 27.2858 63.125 27.3645 63.2064 27.4276C63.2879 27.4907 63.381 27.5372 63.4804 27.5642C63.5798 27.5912 63.6836 27.5982 63.7858 27.585C63.888 27.5717 63.9865 27.5382 64.0757 27.4867C64.165 27.4352 64.2431 27.3666 64.3057 27.2847C64.3683 27.2029 64.4141 27.1095 64.4404 27.0099C64.4667 26.9103 64.4731 26.8064 64.4592 26.7043C64.4452 26.6023 64.4112 26.5039 64.3591 26.415L62.7966 23.7088C62.7242 23.5842 62.6187 23.482 62.4919 23.4136C62.365 23.3452 62.2217 23.3133 62.0778 23.3213Z" fill="#EBF1F9"/>
<path d="M51.7188 41.0417C51.5115 41.0417 51.3128 41.1239 51.1663 41.2704C51.0198 41.417 50.9375 41.6158 50.9375 41.823V52.4885C50.9375 52.6957 51.0198 52.8944 51.1663 53.0409C51.3128 53.1874 51.5115 53.2698 51.7188 53.2698C51.926 53.2698 52.1247 53.1874 52.2712 53.0409C52.4177 52.8944 52.5 52.6957 52.5 52.4885V42.6042H63.4375V61.3542H52.5V51.3964C52.5 51.1892 52.4177 50.9905 52.2712 50.844C52.1247 50.6975 51.926 50.6151 51.7188 50.6151C51.5115 50.6151 51.3128 50.6975 51.1663 50.844C51.0198 50.9905 50.9375 51.1892 50.9375 51.3964V62.1355C50.9375 62.3427 51.0198 62.5414 51.1663 62.6879C51.3128 62.8344 51.5115 62.9167 51.7188 62.9167H64.2188C64.426 62.9167 64.6247 62.8344 64.7712 62.6879C64.9177 62.5414 65 62.3427 65 62.1355V41.823C65 41.6158 64.9177 41.417 64.7712 41.2704C64.6247 41.1239 64.426 41.0417 64.2188 41.0417H51.7188Z" fill="#EBF1F9"/>
<path fill-rule="evenodd" clip-rule="evenodd" d="M52.5 58.2292V59.7917H63.4375V58.2292H52.5ZM52.5 44.1667V45.7292H63.4375V44.1667H52.5Z" fill="#EBF1F9"/>
</svg>
