<svg width="80" height="80" viewBox="0 0 80 80" fill="none" xmlns="http://www.w3.org/2000/svg">
<rect width="80" height="80" rx="40" fill="#136EF6"/>
<path d="M20.5002 26.25C20.5002 26.4489 20.4212 26.6396 20.2806 26.7803C20.1399 26.9209 19.9492 27 19.7502 27C19.5513 27 19.3606 26.9209 19.2199 26.7803C19.0793 26.6396 19.0002 26.4489 19.0002 26.25C19.0002 26.0511 19.0793 25.8602 19.2199 25.7195C19.3606 25.5789 19.5513 25.5 19.7502 25.5C19.9492 25.5 20.1399 25.5789 20.2806 25.7195C20.4212 25.8602 20.5002 26.0511 20.5002 26.25ZM23.5002 26.25C23.5002 26.4489 23.4212 26.6396 23.2806 26.7803C23.1399 26.9209 22.9492 27 22.7502 27C22.5513 27 22.3606 26.9209 22.2199 26.7803C22.0793 26.6396 22.0002 26.4489 22.0002 26.25C22.0002 26.0511 22.0793 25.8602 22.2199 25.7195C22.3606 25.5789 22.5513 25.5 22.7502 25.5C22.9492 25.5 23.1399 25.5789 23.2806 25.7195C23.4212 25.8602 23.5002 26.0511 23.5002 26.25ZM26.5002 26.25C26.5002 26.4489 26.4212 26.6396 26.2806 26.7803C26.1399 26.9209 25.9492 27 25.7502 27C25.5513 27 25.3606 26.9209 25.2199 26.7803C25.0793 26.6396 25.0002 26.4489 25.0002 26.25C25.0002 26.0511 25.0793 25.8602 25.2199 25.7195C25.3606 25.5789 25.5513 25.5 25.7502 25.5C25.9492 25.5 26.1399 25.5789 26.2806 25.7195C26.4212 25.8602 26.5002 26.0511 26.5002 26.25Z" fill="#EBF1F9"/>
<path d="M16.75 22.5C16.5511 22.5 16.3603 22.5618 16.2197 22.6717C16.079 22.7815 16 22.9305 16 23.0859V59.4141C16 59.5695 16.079 59.7186 16.2197 59.8285C16.3603 59.9384 16.5511 60 16.75 60H63.25C63.4489 60 63.6397 59.9384 63.7803 59.8285C63.921 59.7186 64 59.5695 64 59.4141V39.7513C64 39.5959 63.921 39.4467 63.7803 39.3368C63.6397 39.2269 63.4489 39.1653 63.25 39.1653C63.0511 39.1653 62.8603 39.2269 62.7197 39.3368C62.579 39.4467 62.5 39.5959 62.5 39.7513V57.8294C62.5 58.3817 62.0523 58.8294 61.5 58.8294L18.5081 58.8294C17.9558 58.8294 17.5081 58.3817 17.5081 57.8294L17.5081 24.9995C17.5081 24.4472 17.9558 23.9995 18.5081 23.9995H61.5C62.0523 23.9995 62.5 24.4472 62.5 24.9995L62.5 39.5872C62.5 39.7426 62.579 39.8916 62.7197 40.0015C62.8603 40.1113 63.0511 40.1731 63.25 40.1731C63.4489 40.1731 63.6397 40.1113 63.7803 40.0015C63.921 39.8916 64 39.7426 64 39.5872V23.0872C64 22.9318 63.921 22.7827 63.7803 22.6728C63.6397 22.5629 63.4489 22.5013 63.25 22.5013L16.75 22.5Z" fill="#EBF1F9"/>
<path fill-rule="evenodd" clip-rule="evenodd" d="M16.7502 28.4985V29.9985H63.2502V28.4985H16.7502Z" fill="#EBF1F9"/>
<path d="M20.5002 33.7083C20.5002 33.9072 20.4212 34.0979 20.2806 34.2385C20.1399 34.3792 19.9492 34.4583 19.7502 34.4583C19.5513 34.4583 19.3606 34.3792 19.2199 34.2385C19.0793 34.0979 19.0002 33.9072 19.0002 33.7083C19.0002 33.5093 19.0793 33.3186 19.2199 33.178C19.3606 33.0373 19.5513 32.9583 19.7502 32.9583C19.9492 32.9583 20.1399 33.0373 20.2806 33.178C20.4212 33.3186 20.5002 33.5093 20.5002 33.7083ZM20.5002 36.7083C20.5002 36.9072 20.4212 37.0979 20.2806 37.2385C20.1399 37.3792 19.9492 37.4583 19.7502 37.4583C19.5513 37.4583 19.3606 37.3792 19.2199 37.2385C19.0793 37.0979 19.0002 36.9072 19.0002 36.7083C19.0002 36.5093 19.0793 36.3186 19.2199 36.178C19.3606 36.0373 19.5513 35.9583 19.7502 35.9583C19.9492 35.9583 20.1399 36.0373 20.2806 36.178C20.4212 36.3186 20.5002 36.5093 20.5002 36.7083ZM20.5002 39.7083C20.5002 39.9072 20.4212 40.0979 20.2806 40.2385C20.1399 40.3792 19.9492 40.4583 19.7502 40.4583C19.5513 40.4583 19.3606 40.3792 19.2199 40.2385C19.0793 40.0979 19.0002 39.9072 19.0002 39.7083C19.0002 39.5093 19.0793 39.3186 19.2199 39.178C19.3606 39.0373 19.5513 38.9583 19.7502 38.9583C19.9492 38.9583 20.1399 39.0373 20.2806 39.178C20.4212 39.3186 20.5002 39.5093 20.5002 39.7083ZM20.5002 42.7083C20.5002 42.9072 20.4212 43.0979 20.2806 43.2385C20.1399 43.3792 19.9492 43.4583 19.7502 43.4583C19.5513 43.4583 19.3606 43.3792 19.2199 43.2385C19.0793 43.0979 19.0002 42.9072 19.0002 42.7083C19.0002 42.5093 19.0793 42.3186 19.2199 42.178C19.3606 42.0373 19.5513 41.9583 19.7502 41.9583C19.9492 41.9583 20.1399 42.0373 20.2806 42.178C20.4212 42.3186 20.5002 42.5093 20.5002 42.7083ZM20.5002 45.7083C20.5002 45.9072 20.4212 46.0979 20.2806 46.2385C20.1399 46.3792 19.9492 46.4583 19.7502 46.4583C19.5513 46.4583 19.3606 46.3792 19.2199 46.2385C19.0793 46.0979 19.0002 45.9072 19.0002 45.7083C19.0002 45.5093 19.0793 45.3186 19.2199 45.178C19.3606 45.0373 19.5513 44.9583 19.7502 44.9583C19.9492 44.9583 20.1399 45.0373 20.2806 45.178C20.4212 45.3186 20.5002 45.5093 20.5002 45.7083ZM20.5002 48.7083C20.5002 48.9072 20.4212 49.0979 20.2806 49.2385C20.1399 49.3792 19.9492 49.4583 19.7502 49.4583C19.5513 49.4583 19.3606 49.3792 19.2199 49.2385C19.0793 49.0979 19.0002 48.9072 19.0002 48.7083C19.0002 48.5093 19.0793 48.3186 19.2199 48.178C19.3606 48.0373 19.5513 47.9583 19.7502 47.9583C19.9492 47.9583 20.1399 48.0373 20.2806 48.178C20.4212 48.3186 20.5002 48.5093 20.5002 48.7083ZM20.5002 51.7083C20.5002 51.9072 20.4212 52.0979 20.2806 52.2385C20.1399 52.3792 19.9492 52.4583 19.7502 52.4583C19.5513 52.4583 19.3606 52.3792 19.2199 52.2385C19.0793 52.0979 19.0002 51.9072 19.0002 51.7083C19.0002 51.5093 19.0793 51.3186 19.2199 51.178C19.3606 51.0373 19.5513 50.9583 19.7502 50.9583C19.9492 50.9583 20.1399 51.0373 20.2806 51.178C20.4212 51.3186 20.5002 51.5093 20.5002 51.7083ZM20.5002 54.7083C20.5002 54.9072 20.4212 55.0979 20.2806 55.2385C20.1399 55.3792 19.9492 55.4583 19.7502 55.4583C19.5513 55.4583 19.3606 55.3792 19.2199 55.2385C19.0793 55.0979 19.0002 54.9072 19.0002 54.7083C19.0002 54.5093 19.0793 54.3186 19.2199 54.178C19.3606 54.0373 19.5513 53.9583 19.7502 53.9583C19.9492 53.9583 20.1399 54.0373 20.2806 54.178C20.4212 54.3186 20.5002 54.5093 20.5002 54.7083Z" fill="#EBF1F9"/>
<path fill-rule="evenodd" clip-rule="evenodd" d="M24.2502 32.9583C23.836 32.9583 23.5002 33.294 23.5002 33.7083C23.5002 34.1225 23.836 34.4583 24.2502 34.4583H30.2502C30.6645 34.4583 31.0002 34.1225 31.0002 33.7083C31.0002 33.294 30.6645 32.9583 30.2502 32.9583H24.2502ZM33.2502 32.9583C32.836 32.9583 32.5002 33.294 32.5002 33.7083C32.5002 34.1225 32.836 34.4583 33.2502 34.4583H34.7502C35.1645 34.4583 35.5002 34.1225 35.5002 33.7083C35.5002 33.294 35.1645 32.9583 34.7502 32.9583H33.2502ZM37.7502 32.9583C37.336 32.9583 37.0002 33.294 37.0002 33.7083C37.0002 34.1225 37.336 34.4583 37.7502 34.4583H51.2502C51.6645 34.4583 52.0002 34.1225 52.0002 33.7083C52.0002 33.294 51.6645 32.9583 51.2502 32.9583H37.7502ZM24.2502 35.9583C23.836 35.9583 23.5002 36.294 23.5002 36.7083C23.5002 37.1225 23.836 37.4583 24.2502 37.4583H34.7502C35.1645 37.4583 35.5002 37.1225 35.5002 36.7083C35.5002 36.294 35.1645 35.9583 34.7502 35.9583H24.2502ZM24.2502 38.9583C23.836 38.9583 23.5002 39.294 23.5002 39.7083C23.5002 40.1225 23.836 40.4583 24.2502 40.4583H25.7502C26.1645 40.4583 26.5002 40.1225 26.5002 39.7083C26.5002 39.294 26.1645 38.9583 25.7502 38.9583H24.2502ZM28.7502 38.9583C28.336 38.9583 28.0002 39.294 28.0002 39.7083C28.0002 40.1225 28.336 40.4583 28.7502 40.4583H37.7502C38.1645 40.4583 38.5002 40.1225 38.5002 39.7083C38.5002 39.294 38.1645 38.9583 37.7502 38.9583H28.7502ZM30.2502 41.9583C29.836 41.9583 29.5002 42.294 29.5002 42.7083C29.5002 43.1225 29.836 43.4583 30.2502 43.4583H34.7502C35.1645 43.4583 35.5002 43.1225 35.5002 42.7083C35.5002 42.294 35.1645 41.9583 34.7502 41.9583H30.2502ZM30.2502 44.9583C29.836 44.9583 29.5002 45.294 29.5002 45.7083C29.5002 46.1225 29.836 46.4583 30.2502 46.4583H37.7502C38.1645 46.4583 38.5002 46.1225 38.5002 45.7083C38.5002 45.294 38.1645 44.9583 37.7502 44.9583H30.2502ZM40.7502 44.9583C40.336 44.9583 40.0002 45.294 40.0002 45.7083C40.0002 46.1225 40.336 46.4583 40.7502 46.4583C41.1645 46.4583 41.5002 46.1225 41.5002 45.7083C41.5002 45.294 41.1645 44.9583 40.7502 44.9583ZM30.2502 47.9583C29.836 47.9583 29.5002 48.294 29.5002 48.7083C29.5002 49.1225 29.836 49.4583 30.2502 49.4583H31.7502C32.1645 49.4583 32.5002 49.1225 32.5002 48.7083C32.5002 48.294 32.1645 47.9583 31.7502 47.9583H30.2502ZM24.2502 50.9583C23.836 50.9583 23.5002 51.294 23.5002 51.7083C23.5002 52.1225 23.836 52.4583 24.2502 52.4583H34.7502C35.1645 52.4583 35.5002 52.1225 35.5002 51.7083C35.5002 51.294 35.1645 50.9583 34.7502 50.9583H24.2502ZM24.2502 53.9583C23.836 53.9583 23.5002 54.294 23.5002 54.7083C23.5002 55.1225 23.836 55.4583 24.2502 55.4583H30.2502C30.6645 55.4583 31.0002 55.1225 31.0002 54.7083C31.0002 54.294 30.6645 53.9583 30.2502 53.9583H24.2502ZM33.2502 53.9583C32.836 53.9583 32.5002 54.294 32.5002 54.7083C32.5002 55.1225 32.836 55.4583 33.2502 55.4583H43.7502C44.1645 55.4583 44.5002 55.1225 44.5002 54.7083C44.5002 54.294 44.1645 53.9583 43.7502 53.9583H33.2502ZM37.7502 50.9583C37.336 50.9583 37.0002 51.294 37.0002 51.7083C37.0002 52.1225 37.336 52.4583 37.7502 52.4583H39.2502C39.6645 52.4583 40.0002 52.1225 40.0002 51.7083C40.0002 51.294 39.6645 50.9583 39.2502 50.9583H37.7502Z" fill="#EBF1F9"/>
</svg>
