<svg width="80" height="80" viewBox="0 0 80 80" fill="none" xmlns="http://www.w3.org/2000/svg">
<rect width="80" height="80" rx="40" fill="#136EF6"/>
<path d="M17.1187 20.2261C16.8939 20.2261 16.6784 20.3004 16.5195 20.4329C16.3605 20.5653 16.2712 20.745 16.2712 20.9323V59.0678C16.2712 59.2551 16.3605 59.4348 16.5195 59.5673C16.6784 59.6997 16.8939 59.774 17.1187 59.774H40H62.8813C63.1061 59.774 63.3216 59.6997 63.4805 59.5673C63.6395 59.4348 63.7288 59.2551 63.7288 59.0678V38.4252C63.7288 38.2379 63.6395 38.0583 63.4805 37.9258C63.3216 37.7934 63.1061 37.7189 62.8813 37.7189C62.6565 37.7189 62.441 37.7934 62.2821 37.9258C62.1231 38.0583 62.0338 38.2379 62.0338 38.4252V57.3616C62.0338 57.9139 61.5861 58.3616 61.0338 58.3616H18.9662C18.4139 58.3616 17.9662 57.9139 17.9662 57.3616V22.6385C17.9662 22.0862 18.4139 21.6385 18.9662 21.6385H61.0338C61.5861 21.6385 62.0338 22.0862 62.0338 22.6385V42.5562C62.0338 42.7435 62.1231 42.9233 62.2821 43.0557C62.441 43.1881 62.6565 43.2624 62.8813 43.2624C63.1061 43.2624 63.3216 43.1881 63.4805 43.0557C63.6395 42.9233 63.7288 42.7435 63.7288 42.5562V20.9323C63.7288 20.745 63.6395 20.5653 63.4805 20.4329C63.3216 20.3004 63.1061 20.2261 62.8813 20.2261H17.1187Z" fill="#EBF1F9"/>
<path fill-rule="evenodd" clip-rule="evenodd" d="M17.1189 27.0034V28.6983H62.8812V27.0034H17.1189Z" fill="#EBF1F9"/>
<path d="M21.3563 24.4624C21.3563 24.6872 21.267 24.9027 21.1081 25.0616C20.9491 25.2205 20.7336 25.3099 20.5088 25.3099C20.2841 25.3099 20.0685 25.2205 19.9096 25.0616C19.7507 24.9027 19.6614 24.6872 19.6614 24.4624C19.6614 24.2377 19.7507 24.022 19.9096 23.8631C20.0685 23.7041 20.2841 23.615 20.5088 23.615C20.7336 23.615 20.9491 23.7041 21.1081 23.8631C21.267 24.022 21.3563 24.2377 21.3563 24.4624ZM24.7461 24.4624C24.7461 24.6872 24.6568 24.9027 24.4979 25.0616C24.3389 25.2205 24.1234 25.3099 23.8986 25.3099C23.6739 25.3099 23.4583 25.2205 23.2994 25.0616C23.1405 24.9027 23.0512 24.6872 23.0512 24.4624C23.0512 24.2377 23.1405 24.022 23.2994 23.8631C23.4583 23.7041 23.6739 23.615 23.8986 23.615C24.1234 23.615 24.3389 23.7041 24.4979 23.8631C24.6568 24.022 24.7461 24.2377 24.7461 24.4624ZM28.1359 24.4624C28.1359 24.6872 28.0466 24.9027 27.8877 25.0616C27.7287 25.2205 27.5132 25.3099 27.2884 25.3099C27.0637 25.3099 26.8481 25.2205 26.6892 25.0616C26.5303 24.9027 26.441 24.6872 26.441 24.4624C26.441 24.2377 26.5303 24.022 26.6892 23.8631C26.8481 23.7041 27.0637 23.615 27.2884 23.615C27.5132 23.615 27.7287 23.7041 27.8877 23.8631C28.0466 24.022 28.1359 24.2377 28.1359 24.4624Z" fill="#EBF1F9"/>
<path d="M30.8582 36.1763L23.9053 43.1303L30.7067 50.0079" stroke="#EBF1F9" stroke-width="2.32635" stroke-linecap="round"/>
<path d="M49.236 36.1763L56.189 43.1303L49.3875 50.0079" stroke="#EBF1F9" stroke-width="2.32635" stroke-linecap="round"/>
<path d="M46.0579 32.8743L34.0876 53.3576" stroke="#EBF1F9" stroke-width="2.32635" stroke-linecap="round"/>
</svg>
