<svg width="80" height="80" viewBox="0 0 80 80" fill="none" xmlns="http://www.w3.org/2000/svg">
<rect width="80" height="80" rx="40" fill="#136EF6"/>
<g clip-path="url(#clip0_104_37738)">
<path fill-rule="evenodd" clip-rule="evenodd" d="M44.2441 38.024C45.1857 37.0825 46.4625 36.5533 47.7941 36.5527V36.55C49.1257 36.5507 50.4026 37.0797 51.3445 38.021C52.2864 38.9622 52.8164 40.2386 52.818 41.5702V45.8748C52.818 47.3075 52.0885 48.5571 51.1258 49.4445C51.095 49.472 51.0602 49.4917 51.0253 49.5114C50.9934 49.5293 50.9615 49.5473 50.9328 49.5712L51.0005 49.605C51.0252 49.6172 51.049 49.631 51.0719 49.6464C51.0556 49.6351 51.1004 49.6586 51.1886 49.7046C51.3173 49.7718 51.5383 49.8873 51.7964 50.0137L51.8918 50.0606C52.319 50.2705 52.8887 50.5504 53.5839 50.8974C55.6227 51.9162 57.638 52.9815 59.6282 54.0924C59.6375 54.0972 59.6467 54.1023 59.6557 54.1076C60.7676 54.8033 61.2113 56.004 61.2113 57.2763V57.9557C61.2113 58.0035 61.2058 58.0508 61.1952 58.0966C61.1937 58.4363 61.186 58.7514 61.1464 59.019C61.0932 59.3787 60.9697 59.7552 60.6406 60.0417C60.3313 60.3109 59.9278 60.4216 59.5069 60.479C59.0781 60.5374 58.5302 60.552 57.8508 60.552L57.8488 60.552L47.2755 60.5175C46.9294 60.5163 46.6497 60.2348 46.6509 59.8887C46.652 59.5426 46.9335 59.2629 47.2796 59.264L57.8508 59.2985H57.8519C58.531 59.2985 59.002 59.2827 59.3375 59.237C59.6811 59.1901 59.7872 59.1226 59.8177 59.0961L59.8183 59.0956C59.83 59.0855 59.8752 59.0463 59.9064 58.8356C59.9406 58.6047 59.9421 58.2909 59.9421 57.8024C59.9421 57.7542 59.9475 57.7073 59.9578 57.6623V57.2763C59.9578 56.2547 59.7134 55.6243 58.9926 55.173C57.0279 54.0768 55.0385 53.0253 53.0261 52.0193C52.4642 51.7383 51.9827 51.5026 51.5916 51.3111C51.4662 51.2497 51.3501 51.1929 51.2437 51.1405C51.1429 51.091 51.054 51.048 50.9741 51.0094C50.7238 50.8883 50.5627 50.8104 50.4088 50.7118L49.757 50.3935C49.7449 50.3979 49.7288 50.4014 49.7123 50.4049C49.6914 50.4094 49.6697 50.414 49.6543 50.4211C49.2105 50.6329 48.7555 50.7218 48.2955 50.7832C48.2238 50.7968 48.1735 50.8162 48.1241 50.8351C48.0552 50.8616 47.988 50.8874 47.8668 50.8962C47.8451 50.8973 47.8233 50.8973 47.8016 50.8962H47.7941C47.1711 50.8962 46.5444 50.7131 45.9415 50.4273L45.1768 50.8033C42.48 52.1453 39.806 53.5328 37.1559 54.9649C37.1497 54.9692 37.1434 54.9734 37.137 54.9774C36.3875 55.3522 35.7632 56.1169 35.7632 56.8238V57.8955C35.7632 57.9778 35.747 58.0593 35.7155 58.1353C35.684 58.2114 35.6379 58.2805 35.5797 58.3387C35.5215 58.3969 35.4524 58.443 35.3763 58.4745C35.3003 58.506 35.2188 58.5223 35.1365 58.5223C35.0542 58.5223 34.9727 58.506 34.8967 58.4745C34.8206 58.443 34.7515 58.3969 34.6933 58.3387C34.6351 58.2805 34.589 58.2114 34.5575 58.1353C34.526 58.0593 34.5098 57.9778 34.5098 57.8955V56.8238C34.5098 55.4676 35.4912 54.3995 36.5767 53.8568C40.3685 51.7886 44.6215 49.6828 44.6215 49.6828H44.6241L44.7331 49.6263C44.6938 49.5935 44.6504 49.5686 44.607 49.5437C44.5576 49.5154 44.5082 49.4871 44.4649 49.4471C43.5009 48.5597 42.7727 47.3099 42.7727 45.8772V41.574C42.7733 40.2425 43.3026 38.9656 44.2441 38.024ZM49.2399 38.0868C48.7813 37.8985 48.2899 37.8031 47.7941 37.8061C47.2985 37.8031 46.8073 37.8984 46.3489 38.0866C45.8905 38.2748 45.474 38.5523 45.1235 38.9026C44.7731 39.253 44.4956 39.6693 44.3072 40.1276C44.1189 40.586 44.0233 41.0773 44.0261 41.5728V45.8772C44.0261 46.8787 44.5514 47.8251 45.3135 48.5271C46.0568 49.2102 47.0107 49.5975 47.7327 49.6176C47.7456 49.6188 47.7568 49.6232 47.768 49.6276C47.7806 49.6327 47.7932 49.6376 47.8079 49.6376H47.8104C48.5374 49.6326 49.5201 49.224 50.276 48.5271C51.0381 47.8251 51.5645 46.88 51.5645 45.8772V41.574C51.5672 41.0783 51.4715 40.5869 51.2829 40.1284C51.0943 39.6699 50.8167 39.2534 50.466 38.9029C50.1153 38.5525 49.6986 38.275 49.2399 38.0868Z" fill="#EBF1F9"/>
<path fill-rule="evenodd" clip-rule="evenodd" d="M35.148 32.6285C33.5985 32.6293 32.1126 33.2451 31.0169 34.3408C29.9212 35.4365 29.3053 36.9225 29.3045 38.472V43.4797C29.3045 45.147 30.152 46.6014 31.2737 47.6341C31.3242 47.6807 31.3816 47.7136 31.4391 47.7465C31.4896 47.7755 31.5402 47.8044 31.5859 47.8427L31.459 47.9084H31.4561C31.4561 47.9084 26.5067 50.3589 22.0941 52.7658C20.8309 53.3974 19.6887 54.6403 19.6887 56.2186V57.214C19.6836 57.249 19.6809 57.2848 19.6809 57.3212L19.6809 57.3671C19.6808 57.8752 19.6808 58.3491 19.7382 58.7371C19.8001 59.1557 19.9438 59.5939 20.3268 59.9272C20.6868 60.2405 21.1563 60.3693 21.6461 60.4361C22.1451 60.5041 22.7827 60.5211 23.5733 60.5211H34.5555H35.8784H46.8514C47.642 60.5211 48.2796 60.5041 48.7786 60.4361C49.2684 60.3693 49.738 60.2405 50.0979 59.9272C50.4809 59.5939 50.6247 59.1557 50.6866 58.7371C50.7312 58.4352 50.7411 58.0815 50.7432 57.7C50.7556 57.6465 50.762 57.5915 50.762 57.5357V56.7451C50.762 55.2646 50.2456 53.8672 48.9517 53.0576L48.938 53.0498C48.9319 53.0464 48.9258 53.0432 48.9196 53.04C46.6036 51.7472 44.2584 50.5075 41.8858 49.3218C41.0767 48.9179 40.4136 48.5922 39.9165 48.348L39.9165 48.348L39.8057 48.2935C39.5054 48.1464 39.2482 48.0121 39.0984 47.9338L39.0983 47.9338C38.9957 47.8802 38.9436 47.8529 38.9625 47.866C38.9359 47.8481 38.9081 47.8321 38.8794 47.8179L38.8006 47.7785C38.8341 47.7507 38.8711 47.7298 38.9082 47.7089C38.9488 47.686 38.9894 47.6631 39.0253 47.6311C40.1455 46.5984 40.9945 45.1442 40.9945 43.4769V38.4676C40.9926 36.918 40.3759 35.4325 39.2797 34.3372C38.1836 33.2419 36.6976 32.6263 35.148 32.6255V32.6285ZM49.3033 57.1588V56.7451C49.3033 55.5563 49.0188 54.8226 48.1801 54.2975C45.8936 53.0218 43.5786 51.7981 41.2367 50.6274C40.5829 50.3005 40.0228 50.0263 39.5677 49.8034L39.5675 49.8033L39.5665 49.8029C39.4209 49.7316 39.2861 49.6656 39.1624 49.6048C39.0453 49.5472 38.9419 49.4972 38.849 49.4523L38.8487 49.4522C38.5574 49.3113 38.37 49.2206 38.1909 49.1058L37.4324 48.7355C37.4182 48.7406 37.3996 48.7446 37.3803 48.7487L37.3803 48.7487L37.3803 48.7487C37.3559 48.754 37.3307 48.7594 37.3128 48.7675C36.7964 49.014 36.2669 49.1175 35.7315 49.189C35.6481 49.2048 35.5895 49.2273 35.532 49.2494C35.4519 49.2802 35.3737 49.3102 35.2326 49.3204C35.2074 49.3217 35.1821 49.3217 35.1568 49.3204H35.148C34.4231 49.3204 33.6937 49.1074 32.9921 48.7748L32.1023 49.2123C28.9639 50.7741 25.852 52.3887 22.7681 54.0553C22.7609 54.0603 22.7536 54.0652 22.7462 54.0699C21.8739 54.5061 21.1474 55.3959 21.1474 56.2186V57.4658C21.1474 57.5009 21.1449 57.5359 21.1399 57.5706C21.1411 58.0003 21.1476 58.2964 21.1812 58.5237C21.2174 58.7689 21.2701 58.8145 21.2837 58.8263L21.2844 58.8269C21.3199 58.8577 21.4434 58.9362 21.8432 58.9908C22.2338 59.044 22.7823 59.0624 23.5733 59.0624H34.5555H35.8784H46.8514C47.6424 59.0624 48.1909 59.044 48.5815 58.9908C48.9813 58.9362 49.1049 58.8577 49.1403 58.8269L49.141 58.8263C49.1546 58.8145 49.2073 58.7689 49.2436 58.5237C49.2833 58.2549 49.2851 57.8898 49.2851 57.3213C49.2851 57.2654 49.2914 57.2111 49.3033 57.1588ZM35.148 34.0872C35.725 34.0837 36.2969 34.1947 36.8306 34.4138C37.3643 34.6329 37.8493 34.9557 38.2574 35.3636C38.6655 35.7714 38.9886 36.2561 39.2081 36.7897C39.4275 37.3233 39.5389 37.8951 39.5358 38.472V43.4797C39.5358 44.6467 38.9232 45.7466 38.0363 46.5634C37.1567 47.3745 36.0131 47.85 35.167 47.8558H35.1641C35.147 47.8558 35.1324 47.85 35.1176 47.8442C35.1047 47.8391 35.0916 47.8339 35.0766 47.8325C34.2364 47.8092 33.1263 47.3584 32.2613 46.5634C31.3744 45.7466 30.7632 44.6452 30.7632 43.4797V38.4706C30.7599 37.8939 30.8711 37.3222 31.0903 36.7888C31.3095 36.2554 31.6324 35.7709 32.0402 35.3632C32.4481 34.9555 32.9328 34.6326 33.4663 34.4136C33.9997 34.1946 34.5714 34.0837 35.148 34.0872Z" fill="#EBF1F9"/>
<path d="M41.9807 50.9922L44.6838 52.3906L47.5798 59.0508L29.7783 58.9679L34.9047 54.1996L41.9807 50.9922Z" fill="#136EF6"/>
<path d="M28.592 50.9922L25.8889 52.3906L22.9929 59.0508L40.7944 58.9679L35.668 54.1996L28.592 50.9922Z" fill="#136EF6"/>
</g>
<path d="M37.7214 23.1709C37.7214 23.8339 37.458 24.4696 36.9892 24.9385C36.5204 25.4073 35.8845 25.6709 35.2214 25.6709C34.5584 25.6709 33.9225 25.4073 33.4537 24.9385C32.9848 24.4696 32.7214 23.8339 32.7214 23.1709C32.7214 22.5079 32.9848 21.8716 33.4537 21.4027C33.9225 20.9339 34.5584 20.6709 35.2214 20.6709C35.8845 20.6709 36.5204 20.9339 36.9892 21.4027C37.458 21.8716 37.7214 22.5079 37.7214 23.1709Z" fill="#EBF1F9"/>
<path d="M35.5911 22.8618L46.5098 16.0754" stroke="#EBF1F9" stroke-linecap="round"/>
<path d="M35.5911 23.6882L46.5098 30.4746" stroke="#EBF1F9" stroke-linecap="round"/>
<path d="M48.8743 30.1257C48.8743 30.7888 48.6109 31.4245 48.142 31.8933C47.6732 32.3622 47.0373 32.6257 46.3743 32.6257C45.7112 32.6257 45.0753 32.3622 44.6065 31.8933C44.1377 31.4245 43.8743 30.7888 43.8743 30.1257C43.8743 29.4627 44.1377 28.8264 44.6065 28.3575C45.0753 27.8887 45.7112 27.6257 46.3743 27.6257C47.0373 27.6257 47.6732 27.8887 48.142 28.3575C48.6109 28.8264 48.8743 29.4627 48.8743 30.1257Z" fill="#EBF1F9"/>
<path d="M48.8743 16.2158C48.8743 16.8789 48.6109 17.5146 48.142 17.9834C47.6732 18.4522 47.0373 18.7158 46.3743 18.7158C45.7112 18.7158 45.0753 18.4522 44.6065 17.9834C44.1377 17.5146 43.8743 16.8789 43.8743 16.2158C43.8743 15.5528 44.1377 14.9165 44.6065 14.4476C45.0753 13.9788 45.7112 13.7158 46.3743 13.7158C47.0373 13.7158 47.6732 13.9788 48.142 14.4476C48.6109 14.9165 48.8743 15.5528 48.8743 16.2158Z" fill="#EBF1F9"/>
<defs>
<clipPath id="clip0_104_37738">
<rect width="43" height="51" fill="white" transform="translate(18.5 9.75391)"/>
</clipPath>
</defs>
</svg>
