<svg width="360" height="94" viewBox="0 0 360 94" fill="none" xmlns="http://www.w3.org/2000/svg">
<g opacity="0.7">
<path d="M-498.79 8.37372L-498.214 8.44762C-364.198 -11.9672 -322.292 13.4898 -232.017 37.8627C-186.984 50.0246 -104.517 115.958 -63.7817 84.6296C-10.0497 43.3072 85.7629 83.1679 155.461 77.4853C225.875 71.7452 308.726 28.7065 386.843 8.36553" stroke="#136EF6" stroke-width="0.49" stroke-miterlimit="10"/>
<path d="M-516.801 11.0672C-516.801 11.0672 -516.277 11.1411 -516.224 11.1411C-395.467 -6.87585 -327.866 18.6304 -242.289 39.8582C-198.095 50.8211 -108.606 107.114 -60.9704 77.6577C-42.4193 66.1446 -21.213 61.1436 0.0631426 59.5833C29.6891 57.4153 50.1966 66.4813 82.1633 69.9714C108.103 72.8045 135.179 76.2699 160.665 75.0463C234.887 71.4824 325.145 35.1282 406.843 15.9041" stroke="#136EF6" stroke-width="0.49" stroke-miterlimit="10"/>
<path d="M-534.827 13.7689C-534.827 13.7689 -534.338 13.8346 -534.251 13.8428C-426.752 -1.7681 -333.333 23.7299 -252.577 41.8537C-209.152 51.6012 -112.71 98.2696 -58.1573 70.6775C-36.986 59.9117 -14.225 54.9763 6.8066 53.1779C39.0702 50.4269 50.0052 64.2065 84.5047 67.2285C109.903 69.4539 138.045 73.1329 165.889 72.5991C243.866 71.1128 341.583 41.5416 426.88 23.4343" stroke="#136EF6" stroke-width="0.49" stroke-miterlimit="10"/>
<path d="M-552.854 16.4707C-552.854 16.4707 -552.4 16.5282 -552.278 16.5364C-458.038 3.32343 -338.643 28.7476 -262.866 43.8493C-220.139 52.3651 -116.833 89.4337 -55.3452 63.7057C-31.5711 53.679 -7.23805 48.7929 13.5315 46.781C48.4503 43.4059 49.7604 61.9976 86.8278 64.4859C111.65 66.1529 140.874 69.9714 171.094 70.1603C252.775 70.6694 358.003 47.9553 446.898 30.9648" stroke="#136EF6" stroke-width="0.49" stroke-miterlimit="10"/>
<path d="M-570.882 19.1642C-570.882 19.1642 -570.48 19.2135 -570.288 19.2299C-489.306 8.41481 -343.814 33.6747 -273.138 45.8448C-231.04 53.0959 -120.921 80.5894 -52.5156 56.7256C-26.1213 47.4379 -0.233582 42.5764 20.2914 40.3756C57.8304 36.3518 49.4981 59.8379 89.1857 61.7431C113.396 62.9009 143.756 66.7852 176.334 67.7213C261.718 70.1603 374.457 54.377 466.951 38.5033" stroke="#136EF6" stroke-width="0.49" stroke-miterlimit="10"/>
<path d="M-588.91 21.8659C-588.91 21.8659 -588.543 21.9069 -588.316 21.9315C-520.592 13.5225 -348.863 38.5032 -283.428 47.8402C-241.889 53.7692 -125.027 71.7451 -49.7045 49.7453C-20.69 41.2049 6.735 36.3517 27.0155 33.9702C67.1747 29.273 49.1999 57.7438 91.4902 58.992C115.09 59.69 146.585 63.5742 181.521 65.2659C270.626 69.5853 390.859 60.7822 486.933 46.0171" stroke="#136EF6" stroke-width="0.49" stroke-miterlimit="10"/>
<path d="M-606.936 24.5677C-606.936 24.5677 -606.604 24.6087 -606.342 24.6251C-551.876 18.614 -353.788 43.1923 -293.715 49.8358C-252.682 54.377 -129.13 62.9091 -46.9079 42.7735C-15.2732 34.9722 13.6889 30.1107 33.7423 27.5732C76.4868 22.1616 49.0619 54.4509 93.8152 56.2493C116.733 57.169 149.434 60.3552 186.746 62.827C279.589 68.986 407.298 67.204 506.971 53.5558" stroke="#136EF6" stroke-width="0.49" stroke-miterlimit="10"/>
<path d="M-624.946 27.2612C-624.946 27.2612 -624.667 27.294 -624.352 27.3187C-583.145 23.7054 -358.662 47.7335 -303.987 51.8313C-263.409 54.8697 -133.219 54.0649 -44.0791 35.7934C-9.82416 28.7311 20.6576 23.8615 40.484 21.168C85.8137 15.0172 48.659 52.7674 96.1548 53.5065C118.531 53.8514 152.315 57.1197 191.967 60.3881C288.584 68.3537 423.734 73.6257 527.006 61.0943" stroke="#136EF6" stroke-width="0.49" stroke-miterlimit="10"/>
<path d="M-642.973 29.9628C-642.973 29.9628 -642.728 30.0531 -642.379 30.012C-615.006 27.0886 -363.553 52.1103 -314.275 53.8266C-274.151 55.2226 -137.323 45.2287 -41.2661 28.8213C-4.40843 22.5063 27.6106 17.612 47.2273 14.7707C95.1073 7.84804 48.3977 51.9379 98.4962 50.7636C120.296 50.2544 155.215 53.8677 197.191 57.949C297.598 67.6965 440.172 80.0473 547.042 68.6245" stroke="#136EF6" stroke-width="0.49" stroke-miterlimit="10"/>
<path d="M-661 32.6645C-661 32.6645 -369.789 56.3477 -324.547 55.8222C-269.784 55.1981 -16.0773 19.1066 53.9698 8.37366C104.365 0.654452 48.2053 50.1806 100.837 48.0208C172.037 45.1056 409.656 90.846 567.061 76.1549" stroke="#136EF6" stroke-width="0.49" stroke-miterlimit="10"/>
</g>
</svg>
