<svg width="30" height="30" viewBox="0 0 30 30" fill="none" xmlns="http://www.w3.org/2000/svg">
<g clip-path="url(#clip0_208_1486)">
<path d="M15.1812 29.0909C23.2144 29.0909 29.7267 22.5787 29.7267 14.5455C29.7267 6.51222 23.2144 0 15.1812 0C7.14796 0 0.635742 6.51222 0.635742 14.5455C0.635742 22.5787 7.14796 29.0909 15.1812 29.0909Z" fill="#136EF6"/>
<path fill-rule="evenodd" clip-rule="evenodd" d="M7.30752 14.295C11.5372 12.4521 14.3574 11.2371 15.7682 10.6499C19.7977 8.97477 20.6393 8.68386 21.1805 8.67303C21.3812 8.66913 21.5781 8.72829 21.7434 8.84217C21.8594 8.94219 21.9333 9.08234 21.9504 9.23456C21.9795 9.42386 21.9877 9.6158 21.9748 9.8069C21.7569 12.1071 20.8111 17.6669 20.3308 20.2363C20.1278 21.3188 19.7273 21.6882 19.339 21.7247C18.4974 21.8018 17.8506 21.1672 17.0388 20.6328C15.7615 19.7952 15.0403 19.2797 13.8009 18.457C12.368 17.5099 13.2975 16.9944 14.1134 16.1474C14.3272 15.9255 18.0373 12.5482 18.1104 12.2424C18.12 12.1973 18.1189 12.1505 18.1072 12.1058C18.0954 12.0612 18.0734 12.0199 18.0427 11.9853C17.9983 11.9576 17.9481 11.9406 17.8959 11.9356C17.8438 11.9307 17.7912 11.938 17.7424 11.9569C17.6152 11.9849 15.5757 13.333 11.6238 16.0012C11.0447 16.399 10.5201 16.593 10.0502 16.5831C9.53196 16.5709 8.5361 16.2894 7.79462 16.0418C6.88671 15.7469 6.17095 15.5913 6.22777 15.0947C6.26115 14.8349 6.62106 14.5683 7.30752 14.295Z" fill="#EBF1F9"/>
</g>
<defs>
<clipPath id="clip0_208_1486">
<rect width="29.0909" height="29.0909" fill="white" transform="translate(0.636719)"/>
</clipPath>
</defs>
</svg>
