<svg width="50" height="50" viewBox="0 0 50 50" fill="none" xmlns="http://www.w3.org/2000/svg">
<g clip-path="url(#clip0_986_205)">
<path d="M25 50C38.8071 50 50 38.8071 50 25C50 11.1929 38.8071 0 25 0C11.1929 0 0 11.1929 0 25C0 38.8071 11.1929 50 25 50Z" fill="#136EF6"/>
<path d="M25.9165 34.2187C16.2235 34.2187 10.6979 27.5722 10.4653 16.5117H15.3188C15.4793 24.628 19.0584 28.0675 21.8932 28.7768V16.5117H26.4677V23.5117C29.2584 23.2117 32.2095 20.0233 33.2002 16.5117H37.7746C37.0118 20.835 33.8211 24.0257 31.5537 25.3373C33.3271 26.218 34.8934 27.465 36.149 28.9961C37.4046 30.5271 38.321 32.3072 38.8374 34.2187H33.8049C32.7235 30.8513 30.0281 28.2466 26.4677 27.8931V34.2187H25.9165Z" fill="#EBF1F9"/>
</g>
<defs>
<clipPath id="clip0_986_205">
<rect width="50" height="50" fill="white"/>
</clipPath>
</defs>
</svg>
