<svg width="30" height="30" viewBox="0 0 30 30" fill="none" xmlns="http://www.w3.org/2000/svg">
<g id="YouTube_black 1" clip-path="url(#clip0_203_1340)">
<g id="YouTube">
<path id="Background" d="M14.8194 29.0909C22.8526 29.0909 29.3648 22.5787 29.3648 14.5455C29.3648 6.51222 22.8526 0 14.8194 0C6.78615 0 0.273926 6.51222 0.273926 14.5455C0.273926 22.5787 6.78615 29.0909 14.8194 29.0909Z" fill="#EBF1F9"/>
<path id="YouTube_2" d="M21.9949 10.8487C21.9091 10.5292 21.7408 10.2379 21.5069 10.0039C21.2729 9.76999 20.9816 9.6017 20.6621 9.51595C19.4876 9.20068 14.7722 9.20068 14.7722 9.20068C14.7722 9.20068 10.0567 9.20068 8.88093 9.51595C8.56179 9.60245 8.27084 9.77099 8.03702 10.0048C7.8032 10.2386 7.63467 10.5296 7.54817 10.8487C7.2329 12.0245 7.23291 14.4776 7.23291 14.4776C7.23291 14.4776 7.2329 16.9307 7.54817 18.1066C7.63467 18.4257 7.8032 18.7167 8.03702 18.9505C8.27084 19.1843 8.56179 19.3528 8.88093 19.4393C10.0567 19.7546 14.7722 19.7546 14.7722 19.7546C14.7722 19.7546 19.4863 19.7546 20.6621 19.4393C20.9816 19.3536 21.2729 19.1853 21.5069 18.9514C21.7408 18.7174 21.9091 18.4261 21.9949 18.1066C22.3101 16.9307 22.3101 14.4776 22.3101 14.4776C22.3101 14.4776 22.3101 12.0245 21.9949 10.8487ZM13.2635 16.7386V12.2167L17.1874 14.4776L13.2635 16.7386Z" fill="#136EF6"/>
</g>
</g>
<defs>
<clipPath id="clip0_203_1340">
<rect width="29.0909" height="29.0909" fill="white" transform="translate(0.272949)"/>
</clipPath>
</defs>
</svg>
