<svg width="50" height="50" viewBox="0 0 50 50" fill="none" xmlns="http://www.w3.org/2000/svg">
<g clip-path="url(#clip0_986_213)">
<path d="M25 50C38.8071 50 50 38.8071 50 25C50 11.1929 38.8071 0 25 0C11.1929 0 0 11.1929 0 25C0 38.8071 11.1929 50 25 50Z" fill="#136EF6"/>
<path d="M37.333 18.6463C37.1856 18.0971 36.8964 17.5964 36.4943 17.1943C36.0922 16.7922 35.5915 16.503 35.0423 16.3556C33.0237 15.8137 24.9191 15.8137 24.9191 15.8137C24.9191 15.8137 16.8144 15.8137 14.7935 16.3556C14.2449 16.5043 13.7449 16.7939 13.343 17.1958C12.9411 17.5977 12.6515 18.0977 12.5028 18.6463C11.9609 20.6672 11.9609 24.8835 11.9609 24.8835C11.9609 24.8835 11.9609 29.0998 12.5028 31.1207C12.6515 31.6692 12.9411 32.1693 13.343 32.5712C13.7449 32.973 14.2449 33.2627 14.7935 33.4114C16.8144 33.9533 24.9191 33.9533 24.9191 33.9533C24.9191 33.9533 33.0214 33.9533 35.0423 33.4114C35.5915 33.264 36.0922 32.9748 36.4943 32.5727C36.8964 32.1706 37.1856 31.6699 37.333 31.1207C37.8749 29.0998 37.8749 24.8835 37.8749 24.8835C37.8749 24.8835 37.8749 20.6672 37.333 18.6463ZM22.326 28.7695V20.9974L29.0702 24.8835L22.326 28.7695Z" fill="#EBF1F9"/>
</g>
<defs>
<clipPath id="clip0_986_213">
<rect width="50" height="50" fill="white"/>
</clipPath>
</defs>
</svg>
