<svg width="50" height="50" viewBox="0 0 50 50" fill="none" xmlns="http://www.w3.org/2000/svg">
<g clip-path="url(#clip0_93_1180)">
<path d="M25 50C38.8071 50 50 38.8071 50 25C50 11.1929 38.8071 0 25 0C11.1929 0 0 11.1929 0 25C0 38.8071 11.1929 50 25 50Z" fill="#EBF1F9"/>
<path d="M37.3328 18.6463C37.1854 18.0971 36.8961 17.5964 36.4941 17.1943C36.092 16.7922 35.5913 16.503 35.0421 16.3556C33.0235 15.8137 24.9188 15.8137 24.9188 15.8137C24.9188 15.8137 16.8142 15.8137 14.7932 16.3556C14.2447 16.5043 13.7446 16.7939 13.3428 17.1958C12.9409 17.5977 12.6512 18.0977 12.5025 18.6463C11.9607 20.6672 11.9607 24.8835 11.9607 24.8835C11.9607 24.8835 11.9607 29.0998 12.5025 31.1207C12.6512 31.6692 12.9409 32.1693 13.3428 32.5712C13.7446 32.973 14.2447 33.2627 14.7932 33.4114C16.8142 33.9533 24.9188 33.9533 24.9188 33.9533C24.9188 33.9533 33.0212 33.9533 35.0421 33.4114C35.5913 33.264 36.092 32.9748 36.4941 32.5727C36.8961 32.1706 37.1854 31.6699 37.3328 31.1207C37.8746 29.0998 37.8746 24.8835 37.8746 24.8835C37.8746 24.8835 37.8746 20.6672 37.3328 18.6463ZM22.3258 28.7695V20.9974L29.07 24.8835L22.3258 28.7695Z" fill="#136EF6"/>
</g>
<defs>
<clipPath id="clip0_93_1180">
<rect width="50" height="50" fill="white"/>
</clipPath>
</defs>
</svg>
