<svg id="_2" data-name="2" xmlns="http://www.w3.org/2000/svg" viewBox="0 0 900 900"><defs><clipPath id="clip-path"><ellipse class="cls-1" cx="536.03" cy="484.81" rx="32.92" ry="42.09"/></clipPath><clipPath id="clip-path-2"><ellipse class="cls-2" cx="617.23" cy="484.75" rx="30.05" ry="38.42"/></clipPath><style>.cls-1{fill:#437eff}.cls-2{fill:#3078ff}.cls-3{fill:#fafafa}.cls-7{fill:#fff}.cls-6{fill:#0f0f0f}.cls-8{fill:#31313c}.cls-10{fill:#aedaef}.cls-12{fill:#2c5aff}</style></defs><path class="cls-3" d="M659.12 375.81h52.11v23.64h-52.11zM596.06 375.81h52.11v23.64h-52.11zM533 375.81h52.11v23.64H533zM690.65 408.71h52.11v23.64h-52.11zM627.59 408.71h52.11v23.64h-52.11zM564.53 408.71h52.11v23.64h-52.11zM501.47 408.71h52.11v23.64h-52.11zM792.3 441.62h52.11v23.64H792.3zM729.24 441.62h52.11v23.64h-52.11zM596.06 441.62h52.11v23.64h-52.11zM533 441.62h52.11v23.64H533zM469.94 441.62h52.11v23.64h-52.11zM760.77 474.53h52.11v23.64h-52.11zM627.59 474.53h52.11v23.64h-52.11zM564.53 474.53h52.11v23.64h-52.11zM501.47 474.53h52.11v23.64h-52.11zM255.49 40.54h52.11v23.64h-52.11zM192.43 40.54h52.11v23.64h-52.11zM287.02 73.44h52.11v23.64h-52.11zM223.96 73.44h52.11v23.64h-52.11zM97.84 73.44h52.11v23.64H97.84zM34.78 73.44h52.11v23.64H34.78zM192.43 106.35h52.11v23.64h-52.11zM766.48 233.15h52.11v23.64h-52.11zM656.67 233.15h52.11v23.64h-52.11zM798.01 266.06h52.11v23.64h-52.11zM734.95 266.06h52.11v23.64h-52.11zM196.88 199.94h52.11v23.64h-52.11zM63.69 199.94h52.11v23.64H63.69zM228.41 232.85h52.11v23.64h-52.11zM141.97 232.85h52.11v23.64h-52.11zM766.48 298.96h52.11v23.64h-52.11zM656.67 298.96h52.11v23.64h-52.11zM66.31 106.35h52.11v23.64H66.31zM804.67 41.43h52.11v23.64h-52.11zM741.61 41.43h52.11v23.64h-52.11zM773.14 74.33h52.11v23.64h-52.11zM522.18 41.95h52.11v23.64h-52.11zM459.12 41.95h52.11v23.64h-52.11zM553.71 74.85h52.11v23.64h-52.11zM490.65 74.85h52.11v23.64h-52.11zM427.59 74.85h52.11v23.64h-52.11zM585.24 107.76h52.11v23.64h-52.11zM522.18 107.76h52.11v23.64h-52.11zM459.12 107.76h52.11v23.64h-52.11zM553.71 140.67h52.11v23.64h-52.11zM490.65 140.67h52.11v23.64h-52.11zM129.86 366.87h52.11v23.64h-52.11zM66.8 366.87h52.11v23.64H66.8zM310.89 369.87H363v23.64h-52.11zM161.39 399.77h52.11v23.64h-52.11zM98.33 399.77h52.11v23.64H98.33zM342.42 402.78h52.11v23.64h-52.11zM279.36 402.78h52.11v23.64h-52.11zM446.7 296.39h52.11v23.64H446.7zM119.75 280.72h52.11v23.64h-52.11zM375.63 179.69h52.11v23.64h-52.11zM415.17 263.48h52.11v23.64h-52.11zM478.23 263.48h52.11v23.64h-52.11zM714.96 712.73h52.11v23.64h-52.11zM746.49 679.82h52.11v23.64h-52.11zM129.86 432.68h52.11v23.64h-52.11zM66.8 432.68h52.11v23.64H66.8zM161.39 465.59h52.11v23.64h-52.11zM98.33 465.59h52.11v23.64H98.33zM228.82 556.62h52.11v23.64h-52.11zM165.76 556.62h52.11v23.64h-52.11zM102.7 556.62h52.11v23.64H102.7zM39.64 556.62h52.11v23.64H39.64zM260.35 589.53h52.11v23.64h-52.11zM197.29 589.53h52.11v23.64h-52.11zM71.17 589.53h52.11v23.64H71.17zM291.88 622.43h52.11v23.64h-52.11zM228.82 622.43h52.11v23.64h-52.11zM165.76 622.43h52.11v23.64h-52.11zM260.35 655.34h52.11v23.64h-52.11zM197.29 655.34h52.11v23.64h-52.11zM134.23 655.34h52.11v23.64h-52.11zM655.44 555.1h52.11v23.64h-52.11zM522.26 555.1h52.11v23.64h-52.11zM459.2 555.1h52.11v23.64H459.2zM686.97 588.01h52.11v23.64h-52.11zM553.79 588.01h52.11v23.64h-52.11zM490.73 588.01h52.11v23.64h-52.11zM427.67 588.01h52.11v23.64h-52.11zM718.5 620.92h52.11v23.64H718.5zM655.44 620.92h52.11v23.64h-52.11zM522.26 620.92h52.11v23.64h-52.11zM459.2 620.92h52.11v23.64H459.2zM616.85 653.82h52.11v23.64h-52.11zM553.79 653.82h52.11v23.64h-52.11zM490.73 653.82h52.11v23.64h-52.11zM427.67 653.82h52.11v23.64h-52.11z"/><path d="M762.57 777.17a4.49 4.49 0 0 1-.1.8 1 1 0 0 1-.09.37 4 4 0 0 1-.24.71 4.5 4.5 0 0 1-.51.89 6.45 6.45 0 0 1-.71.94c-1.5 1.69-4.14 3.39-7.71 5-.71.33-1.51.66-2.3 1-2.26.94-4.8 1.83-7.67 2.73-1.79.56-3.67 1.08-5.69 1.64-33 8.89-96.16 16-175.67 20-3.1.14-6.21.33-9.31.47-5.08.23-10.2.42-15.42.65l-15.85.63c-3.62.14-7.29.23-10.95.38-8.7.23-17.5.47-26.43.61-1.08 0-2.16.09-3.24.09-2 .05-4.05.09-6.07.09s-3.9.1-5.88.1q-12.35.21-24.92.28h-22.66c-27.46 0-54.21-.32-79.79-1h-.05c-3.81-.09-7.62-.23-11.38-.38-3.29 0-6.58-.18-9.83-.28-5.12-.14-10.15-.33-15.14-.52l-19.7-.84-5.12-.28c-4.42-.19-8.79-.43-13.12-.66-21.58-1.22-41.85-2.64-60.47-4.33-44.58-3.95-79.89-9.07-101.8-15-.66-.19-1.27-.33-1.88-.51s-1.41-.38-2.07-.62c-3.53-1-6.58-2.11-9.26-3.15-1-.42-1.93-.8-2.78-1.22a40.88 40.88 0 0 1-4.09-2.21 8.67 8.67 0 0 1-1.27-.89c-.37-.28-.7-.52-1-.8a9.24 9.24 0 0 1-1-1 5.44 5.44 0 0 1-.7-.89 5.08 5.08 0 0 1-.76-1.65l-.14-.52a3.55 3.55 0 0 1 0-.65c0-15.33 83.83-28.5 203.93-34.28 3.19-.14 6.39-.28 9.63-.47 4.28-.14 8.61-.33 13-.52l19.94-.7c3.53-.1 7.15-.24 10.77-.33 8.32-.24 16.74-.43 25.29-.62h1.37c2.39 0 4.84 0 7.29-.14h4.93c7.43-.14 14.91-.19 22.48-.24h.05c.7 0 1.45-.05 2.16 0h.05c6.81-.09 13.68-.09 20.59-.09 27.84 0 54.87.37 80.78 1 6.35.19 12.65.38 18.86.61l8 .29h.1a4.11 4.11 0 0 1 .7 0c3 .1 5.83.19 8.75.33 1.92.05 3.81.14 5.73.24 5 .18 10 .42 14.86.65l14 .71c26.9 1.46 51.82 3.29 74.11 5.45 70.68 6.96 115.4 16.96 115.4 28.13Z" style="fill:#1a2e35"/><path d="M79.65 777.18c0-15.33 83.83-28.5 203.93-34.28 3.19-.14 6.39-.28 9.63-.47 4.28-.14 8.61-.33 13-.52 18-.7 36.73-1.22 56-1.64 2.87 0 5.74 0 8.66-.14h4.93c14.82-.24 30-.33 45.33-.33 27.84 0 54.87.38 80.78 1 6.35.18 12.65.37 18.86.61 47.23 1.59 90.12 4.22 126.23 7.7C717.86 756 762.58 766 762.58 777.18c0 5-8.89 9.78-25 14.11-20-5.41-51.3-10.16-90.56-14-36.11-3.48-79-6.16-126.25-7.71-6.21-.24-12.51-.42-18.86-.61-25.91-.66-52.94-1-80.78-1-15.37 0-30.51.1-45.33.33-1.64 0-3.29.05-4.93.05-2.92.09-5.79.14-8.66.14-19.27.42-38 .94-56 1.65-4.37.18-8.7.37-13 .51-3.24.19-6.44.33-9.63.47-81 3.91-145.49 11.15-178.92 20.18-16.13-4.39-25.01-9.09-25.01-14.12Z" style="opacity:.4;fill:#fff"/><path class="cls-6" d="M413 808.64c-.77-12.45-1-24.94-1.21-37.41-.29-16.65-.43-33.3-.59-49.94-.17-17.64-.34-35.28-.64-52.92-.27-15.41-.61-30.82-1.35-46.22-.5-10.51-.94-21.23-2.88-31.6-.14-.73-.29-1.46-.46-2.19a5.69 5.69 0 0 0-6.92-3.93 5.75 5.75 0 0 0-3.93 6.92c.38 1.6.66 3.22.91 4.85 0 .36.29 2.07.1.69s0-.19 0 .12.07.55.11.82c.13 1.11.25 2.23.37 3.35.56 5.55.92 11.13 1.23 16.7.81 14.91 1.17 29.85 1.46 44.78.33 17.5.51 35 .68 52.49.17 16.88.3 33.76.57 50.63.2 13.08.41 26.16 1.09 39.22.06 1.21.13 2.43.2 3.64.18 2.93 2.46 5.76 5.62 5.62 2.9-.13 5.82-2.48 5.63-5.62Z"/><path class="cls-7" d="M242.72 414.56s283.16-5.25 307.82-5.87c5.36 180-136.39 181.34-159.75 180-130.4-7.55-155.37-153.99-148.07-174.13Z"/><path class="cls-6" d="m242.72 420.19 7.62-.14 20.81-.39 30.84-.58 38.08-.71 42-.79 43.25-.81 41.29-.79 36.18-.69 28.31-.56 17.21-.36 2.2-.05-5.62-5.63a287.39 287.39 0 0 1-1.89 44.38c-.06.4-.11.8-.16 1.2-.08.65.07-.5.07-.5 0 .19-.06.4-.08.59-.13.85-.25 1.7-.37 2.56-.25 1.61-.51 3.21-.78 4.82-.55 3.16-1.17 6.32-1.87 9.46-1.28 5.79-2.81 11.52-4.64 17.17-.87 2.71-1.82 5.4-2.83 8.07-.48 1.27-1 2.53-1.5 3.79-.12.3-.24.59-.37.89-.38.94.47-1.08.07-.16-.27.63-.54 1.27-.82 1.9a148.47 148.47 0 0 1-6.91 13.68 137.54 137.54 0 0 1-7.89 12.22c-.69.94-1.39 1.86-2.08 2.79-.22.29.85-1.09.2-.26l-.51.65c-.36.46-.74.92-1.11 1.38-1.41 1.75-2.87 3.45-4.38 5.12a131.32 131.32 0 0 1-9.29 9.29c-1.57 1.41-3.16 2.78-4.79 4.11-.8.65-1.62 1.29-2.43 1.93s1.21-.92.25-.2l-.59.45-1.28 1a137.4 137.4 0 0 1-20.28 12.32c-1.69.83-3.4 1.64-5.12 2.41-.84.38-1.7.74-2.55 1.11s1.33-.55.53-.22l-.62.25-1.32.54q-5 2-10.2 3.7a170.06 170.06 0 0 1-19.38 5q-4.47.88-9 1.53l-1 .15h.23l-2.07.26c-1.33.16-2.66.3-4 .43q-6.87.66-13.78.79c-3.08 0-6.16 0-9.24-.14-2.86-.16-5.72-.39-8.56-.69l-2.36-.27L379 582a5.93 5.93 0 0 1-.59-.07c.31.07 1.1.15.34 0-1.6-.23-3.19-.47-4.77-.74a149.17 149.17 0 0 1-18.06-4.2c-2.89-.86-5.75-1.82-8.58-2.86-1.36-.5-2.71-1-4.06-1.57l-1-.39a3.9 3.9 0 0 0-.47-.2s1.12.48.55.23l-2.05-.89a140 140 0 0 1-15-7.78 149.38 149.38 0 0 1-13.31-9.08c-.28-.21 1 .78.13.1l-.75-.59-1.61-1.29c-1-.83-2-1.68-3-2.54q-3-2.6-5.89-5.36c-3.7-3.55-7.21-7.29-10.54-11.18-1.67-2-3.28-4-4.88-6-.22-.27.8 1 .15.19l-.55-.72-1.17-1.56c-.73-1-1.46-2-2.18-3a187.17 187.17 0 0 1-14.87-25c-1-2.08-2-4.18-3-6.3-.48-1-.94-2.09-1.4-3.13-.22-.5-.43-1-.64-1.51-.42-1 .28.68.14.35l-.42-1q-2.51-6.09-4.64-12.31a205.66 205.66 0 0 1-6.46-23.11c-.74-3.41-1.39-6.85-1.92-10.31-.13-.79-.24-1.58-.36-2.38-.2-1.45.17 1.28 0 .2l-.15-1.19c-.18-1.44-.33-2.9-.46-4.35a72.18 72.18 0 0 1-.1-13.71c.11-1.12-.06.52-.11.75 0-.19 0-.38.08-.57.06-.35.12-.7.2-1a13.54 13.54 0 0 1 .5-1.79c1-2.77-1.12-6.28-3.93-6.92a5.77 5.77 0 0 0-6.92 3.93c-1.31 3.67-1.38 7.94-1.35 11.79a125.79 125.79 0 0 0 1.72 18.28 186.61 186.61 0 0 0 4.78 21.8 218.2 218.2 0 0 0 21.79 51.26 183.18 183.18 0 0 0 18.36 25.57 157.41 157.41 0 0 0 23.88 22.49 140 140 0 0 0 28.69 17 152.18 152.18 0 0 0 36.22 10.87 162.75 162.75 0 0 0 23.73 2.35c3.93.08 7.87 0 11.8-.23 5.77-.33 11.51-1 17.23-1.79a172.74 172.74 0 0 0 18.72-3.76 158.17 158.17 0 0 0 20.32-6.78 152.05 152.05 0 0 0 21.94-10.93 139.24 139.24 0 0 0 21-15.72 136.19 136.19 0 0 0 18.71-21.13 142.29 142.29 0 0 0 15-26.4 184.12 184.12 0 0 0 11.07-34.34 249.11 249.11 0 0 0 5.14-41.89c.33-7.63.36-15.27.13-22.9a5.69 5.69 0 0 0-5.62-5.62c-4.71.12-9.42.21-14.14.31l-25.92.51-34.53.67-40.37.77-42.89.81-42.72.8-39.35.74-32.83.61-23.54.44c-3.68.07-7.37.09-11.05.2h-.48c-2.94.06-5.76 2.55-5.62 5.62a5.71 5.71 0 0 0 5.65 5.64Z"/><path class="cls-6" d="M365.2 480.76c-1.36 1.9-2.68 3.84-4 5.77q-5.16 7.58-10.08 15.3-6.94 10.84-13.43 22c-4.88 8.38-9.55 16.89-13.89 25.57a279.12 279.12 0 0 0-12.12 27.5 116.4 116.4 0 0 0-6.59 24.1c-1 7.19-1.46 14.94 1.18 21.86A25.12 25.12 0 0 0 312 632a26.05 26.05 0 0 0 9.52 5.79c8.63 3.15 18.52 2.17 27.36.6 14-2.48 27.56-7.55 40.63-13q6.93-2.91 13.77-6.05c2.68-1.23 3.55-5.31 2-7.69-1.78-2.77-4.83-3.34-7.69-2q-3.33 1.53-6.67 3l-3.06 1.34-1.51.64-.6.26c1.67-.73.22-.1-.14 0-3.81 1.6-7.65 3.13-11.53 4.56a193.93 193.93 0 0 1-19.94 6.33c-2.8.7-5.62 1.32-8.47 1.82l-1.89.31-.92.14c-1.38.2 1.08-.14.41 0-1.22.15-2.44.29-3.66.39a57.64 57.64 0 0 1-6.44.17c-1 0-2-.1-3-.21l-.67-.07c-1-.12 1.74.26.71.09-.47-.07-.93-.14-1.4-.23a27 27 0 0 1-4.67-1.3l-.52-.2c-.39-.14 1.7.76.74.31-.34-.16-.68-.31-1-.48a18.51 18.51 0 0 1-1.83-1.06c-.28-.18-.55-.38-.83-.57-.83-.57 1 .78.67.52s-.31-.25-.46-.38a17 17 0 0 1-1.45-1.37c-.21-.22-.41-.44-.61-.68l-.3-.37c-.57-.67 1.05 1.43.47.61-.39-.56-.77-1.11-1.11-1.69s-.63-1.18-.92-1.78c-.58-1.25.62 1.57.17.38-.13-.35-.26-.69-.38-1a26.15 26.15 0 0 1-1-4.17c0-.18-.06-.36-.08-.54-.16-1 .21 1.78.11.84-.05-.41-.1-.82-.13-1.23-.07-.8-.12-1.61-.14-2.41a49 49 0 0 1 .14-5c.07-.88.16-1.76.26-2.63l.09-.66-.1.71c.07-.47.14-.94.22-1.4q.46-2.88 1.13-5.72c.95-4.08 2.15-8.11 3.49-12.08 1.47-4.34 3.12-8.61 4.89-12.83.5-1.22-.43 1-.17.4l.3-.71c.23-.55.47-1.1.71-1.66.49-1.11 1-2.21 1.48-3.32q1.47-3.27 3-6.51c4.18-8.71 8.73-17.24 13.5-25.64q6.54-11.52 13.61-22.71 5.34-8.5 10.95-16.85c1.83-2.73 3.74-5.41 5.58-8.14l.25-.35c1.71-2.4.5-6.36-2-7.69a5.77 5.77 0 0 0-7.69 2Z"/><path class="cls-6" d="M608.85 525.33c-.57 1-1.19 2-1.82 3-1.75 2.75-3.61 5.43-5.54 8.06-.65.89-1.31 1.77-2 2.65-.17.22-.34.45-.52.67-.51.67.92-1.18.51-.66l-.29.37-1.14 1.46c-1.69 2.13-3.43 4.22-5.2 6.27q-6.32 7.29-13.29 14-3.95 3.78-8.09 7.34-2.21 1.89-4.47 3.72c-.77.63-1.54 1.25-2.32 1.86l-1.15.89.42-.32-.72.55a195 195 0 0 1-21.39 14.16q-6 3.4-12.19 6.38-3.25 1.54-6.55 3l-.87.38c-.33.14 1.3-.55.33-.15l-1.76.73c-1.15.47-2.29.92-3.45 1.36a186.78 186.78 0 0 1-29.86 8.66c-2.72.55-5.44 1-8.18 1.47l-2 .3-.94.13-.62.09c-.77.11.37 0 .54-.07-1.42.17-2.84.36-4.27.52-5.84.65-11.72 1-17.6 1.17q-9.44.21-18.88-.4c-3.29-.22-6.58-.5-9.86-.86-1.62-.17-3.24-.36-4.85-.57l-.77-.1-.58-.08-2.66-.39q-5.15-.78-10.25-1.77c-2.85-.55-6.14.8-6.84 3.89-.63 2.75.83 6.25 3.88 6.84a246.51 246.51 0 0 0 41.39 4.51 210.51 210.51 0 0 0 36.86-2.47 187.73 187.73 0 0 0 31.28-7.6 195 195 0 0 0 28-11.92 190.67 190.67 0 0 0 22.77-14 214.88 214.88 0 0 0 19.46-15.62c5-4.57 9.86-9.4 14.43-14.44 3.94-4.36 7.66-8.9 11.23-13.57q3.45-4.5 6.58-9.23c1-1.45 1.93-2.92 2.77-4.44a2 2 0 0 0 .11-.2 5.56 5.56 0 1 0-9.61-5.61Z"/><ellipse class="cls-8" cx="617.23" cy="484.16" rx="34.58" ry="44.21"/><path class="cls-8" d="m613.66 528.14-65.76-14.12v-61.54l65.82-12.3-.06 87.96zM533.72 532.34l-179.15-37.58c-12 0-21.86-10.26-21.86-22.81 0-12.54 9.83-22.81 21.86-22.81l182.9-13.41c12 0 33.07 23.68 33.07 36.22 0 12.55-24.8 60.39-36.82 60.39Z"/><ellipse class="cls-8" cx="536.03" cy="484.16" rx="37.88" ry="48.43"/><ellipse class="cls-1" cx="536.03" cy="484.81" rx="32.92" ry="42.09"/><g style="clip-path:url(#clip-path)"><path class="cls-10" d="M541.1 476.65a.65.65 0 0 1 .16-.9.64.64 0 1 1-.16.9ZM544.6 476.35a.63.63 0 0 1 .15-.89.64.64 0 0 1 .74 1.05.64.64 0 0 1-.89-.16ZM542 473.82a.64.64 0 1 1 .89.16.64.64 0 0 1-.89-.16ZM543.67 480.3a.63.63 0 0 1 .15-.89.64.64 0 1 1-.15.89ZM545.68 472.05a.64.64 0 0 1 .16-.89.63.63 0 0 1 .89.15.64.64 0 0 1-.16.89.63.63 0 0 1-.89-.15ZM547.15 478.88a.64.64 0 0 1 .16-.89.63.63 0 0 1 .89.15.64.64 0 0 1-.16.89.63.63 0 0 1-.89-.15ZM549.25 474.91a.64.64 0 0 1 .16-.89.64.64 0 1 1 .73 1.05.64.64 0 0 1-.89-.16ZM546 468.09a.64.64 0 1 1 .89.15.63.63 0 0 1-.89-.15ZM549.52 467.79a.64.64 0 1 1 .89.16.64.64 0 0 1-.89-.16ZM547 465.26a.63.63 0 0 1 .15-.89.64.64 0 0 1 .89.16.63.63 0 0 1-.15.89.64.64 0 0 1-.89-.16ZM548.59 471.74a.64.64 0 1 1 .89.16.64.64 0 0 1-.89-.16ZM550.61 463.49a.64.64 0 1 1 .89.16.64.64 0 0 1-.89-.16ZM552.08 470.32a.64.64 0 1 1 .89.15.63.63 0 0 1-.89-.15ZM554.18 466.35a.65.65 0 0 1 .15-.89.64.64 0 0 1 .89.16.63.63 0 0 1-.15.89.64.64 0 0 1-.89-.16ZM551.78 476.57a.64.64 0 1 1 .89.16.64.64 0 0 1-.89-.16ZM555.28 476.28a.64.64 0 1 1 1-.74.63.63 0 0 1-.15.89.65.65 0 0 1-.85-.15ZM552.72 473.75a.64.64 0 0 1 .16-.89.63.63 0 0 1 .89.15.64.64 0 0 1-.16.89.63.63 0 0 1-.89-.15ZM554.35 480.23a.64.64 0 1 1 .89.15.63.63 0 0 1-.89-.15ZM556.36 472a.64.64 0 1 1 .89.16.64.64 0 0 1-.89-.16ZM560.46 475.58a.63.63 0 0 1 .15-.89.64.64 0 0 1 .89.16.63.63 0 0 1-.15.89.64.64 0 0 1-.89-.16ZM560 471.37a.64.64 0 0 1 .16-.89.65.65 0 0 1 .89.15.64.64 0 0 1-.16.89.63.63 0 0 1-.89-.15ZM545.44 485.34a.64.64 0 1 1 .89.16.64.64 0 0 1-.89-.16ZM548.94 485.05a.64.64 0 1 1 1-.74.63.63 0 0 1-.15.89.65.65 0 0 1-.85-.15ZM546.38 482.52a.64.64 0 0 1 .16-.89.63.63 0 0 1 .89.15.64.64 0 0 1-.16.89.63.63 0 0 1-.89-.15ZM548 489a.64.64 0 1 1 .89.15.63.63 0 0 1-.89-.15ZM550 480.74a.64.64 0 1 1 .89.16.64.64 0 0 1-.89-.16ZM557.54 482.55a.63.63 0 0 1 .15-.89.64.64 0 0 1 .74 1 .64.64 0 0 1-.89-.11ZM553.59 483.6a.64.64 0 1 1 .89.16.64.64 0 0 1-.89-.16ZM536.4 468a.64.64 0 1 1 .89.15.63.63 0 0 1-.89-.15ZM539.9 467.71a.63.63 0 0 1 .15-.89.64.64 0 0 1 .89.16.63.63 0 0 1-.15.89.64.64 0 0 1-.89-.16ZM535.66 463.61a.63.63 0 0 1 .15-.89.64.64 0 0 1 .89.16.63.63 0 0 1-.15.89.64.64 0 0 1-.89-.16ZM539 471.66a.63.63 0 0 1 .15-.89.64.64 0 0 1 .89.16.65.65 0 0 1-.15.89.64.64 0 0 1-.89-.16ZM541 463.41a.64.64 0 1 1 .89.16.64.64 0 0 1-.89-.16ZM542.45 470.24a.64.64 0 1 1 .89.16.64.64 0 0 1-.89-.16ZM544.55 466.27a.64.64 0 1 1 .89.16.64.64 0 0 1-.89-.16ZM557.35 464.46a.64.64 0 0 1 .16-.89.65.65 0 0 1 .89.15.64.64 0 0 1-.16.89.63.63 0 0 1-.89-.15ZM560.85 464.16a.63.63 0 0 1 .15-.89.64.64 0 0 1 .89.16.63.63 0 0 1-.15.89.64.64 0 0 1-.89-.16ZM558.29 461.64a.64.64 0 0 1 .16-.89.63.63 0 0 1 .89.15.64.64 0 0 1-.16.89.65.65 0 0 1-.89-.15ZM556.61 468.7a.64.64 0 1 1 .89.16.64.64 0 0 1-.89-.16ZM556.83 458.44a.64.64 0 0 1 .16-.89.63.63 0 0 1 .89.15.64.64 0 0 1-.16.89.63.63 0 0 1-.89-.15ZM563.4 466.69a.64.64 0 1 1 .89.16.64.64 0 0 1-.89-.16ZM565.5 462.72a.64.64 0 1 1 .89.16.64.64 0 0 1-.89-.16ZM543.88 462a.64.64 0 0 1 .16-.89.63.63 0 0 1 .89.15.64.64 0 0 1-.16.89.63.63 0 0 1-.89-.15ZM547.94 457.75a.64.64 0 0 1 .16-.89.63.63 0 0 1 .89.15.64.64 0 0 1-.16.89.63.63 0 0 1-.89-.15ZM552.68 453.64a.64.64 0 0 1 .16-.89.64.64 0 1 1 .73 1.05.64.64 0 0 1-.89-.16ZM547 461.7a.64.64 0 0 1 .16-.89.65.65 0 0 1 .89.15.64.64 0 0 1-.16.89.63.63 0 0 1-.89-.15ZM543.43 456.59a.63.63 0 0 1 .15-.89.64.64 0 0 1 .89.16.63.63 0 0 1-.15.89.64.64 0 0 1-.89-.16ZM550.49 460.27a.64.64 0 1 1 .9.16.65.65 0 0 1-.9-.16ZM554.4 462.21a.63.63 0 0 1 .15-.89.64.64 0 0 1 .89.16.63.63 0 0 1-.15.89.64.64 0 0 1-.89-.16ZM529.93 475.49a.64.64 0 0 1 .16-.89.63.63 0 0 1 .89.15.64.64 0 0 1-.16.89.65.65 0 0 1-.89-.15ZM534.44 481.91a.64.64 0 1 1 .89.16.64.64 0 0 1-.89-.16ZM534.9 472.26a.64.64 0 1 1 .89.16.64.64 0 0 1-.89-.16ZM542.1 484.74a.63.63 0 0 1 .15-.89.64.64 0 0 1 .89.16.63.63 0 0 1-.15.89.64.64 0 0 1-.89-.16ZM535.53 477.61a.64.64 0 1 1 .89.16.64.64 0 0 1-.89-.16ZM538.3 487.41a.64.64 0 0 1 .16-.89.63.63 0 0 1 .89.15.64.64 0 0 1-.16.89.63.63 0 0 1-.89-.15ZM539.1 480.47a.64.64 0 1 1 .89.16.64.64 0 0 1-.89-.16Z"/><path class="cls-10" d="M548 468.3a.63.63 0 1 1 .4-.81.64.64 0 0 1-.4.81ZM548.64 464.86a.63.63 0 0 1-.81-.39.64.64 0 1 1 1.2-.42.64.64 0 0 1-.39.81ZM545.51 466.62a.64.64 0 1 1-.42-1.2.64.64 0 0 1 .42 1.2ZM552.18 466.84a.64.64 0 0 1-.81-.39.65.65 0 0 1 .4-.82.64.64 0 0 1 .41 1.21ZM544.8 462.64a.64.64 0 1 1 .4-.82.65.65 0 0 1-.4.82ZM551.77 463.1a.64.64 0 1 1 .4-.82.66.66 0 0 1-.4.82ZM548.53 460a.64.64 0 1 1 .4-.82.65.65 0 0 1-.4.82ZM541.09 461.22a.65.65 0 0 1-.82-.4.64.64 0 0 1 .4-.81.63.63 0 0 1 .81.39.64.64 0 0 1-.39.82ZM541.76 457.77a.64.64 0 1 1-.42-1.2.64.64 0 1 1 .42 1.2ZM538.63 459.54a.64.64 0 1 1 .39-.82.64.64 0 0 1-.39.82ZM545.31 459.75a.64.64 0 1 1-.42-1.2.64.64 0 0 1 .42 1.2ZM537.92 455.55a.64.64 0 0 1-.81-.39.64.64 0 1 1 .81.39ZM544.89 456a.64.64 0 0 1-.81-.39.64.64 0 1 1 .81.39ZM541.65 452.9a.64.64 0 1 1-.41-1.21.65.65 0 0 1 .81.4.64.64 0 0 1-.4.81ZM550.82 458a.64.64 0 0 1-.81-.39.63.63 0 0 1 .4-.81.63.63 0 1 1 .41 1.2ZM551.5 454.57a.63.63 0 0 1-.81-.39.64.64 0 1 1 1.2-.42.64.64 0 0 1-.39.81ZM548.37 456.33a.64.64 0 0 1-.82-.39.66.66 0 0 1 .4-.82.65.65 0 0 1 .81.4.63.63 0 0 1-.39.81ZM555 456.55a.64.64 0 0 1-.42-1.21.65.65 0 0 1 .82.4.64.64 0 0 1-.4.81ZM547.66 452.35a.65.65 0 0 1-.81-.4.63.63 0 0 1 .39-.81.64.64 0 0 1 .82.39.66.66 0 0 1-.4.82ZM552.26 449.4a.65.65 0 0 1-.82-.4.64.64 0 1 1 .82.4ZM548.09 448.64a.63.63 0 0 1-.81-.39.64.64 0 1 1 1.2-.42.63.63 0 0 1-.39.81ZM557.52 466.52a.64.64 0 1 1-.42-1.21.63.63 0 0 1 .81.39.64.64 0 0 1-.39.82ZM558.19 463.07a.63.63 0 0 1-.81-.39.64.64 0 0 1 .39-.82.66.66 0 0 1 .82.4.64.64 0 0 1-.4.81ZM555.06 464.84a.64.64 0 1 1 .4-.82.66.66 0 0 1-.4.82ZM561.74 465.05a.64.64 0 1 1 .39-.81.63.63 0 0 1-.39.81ZM554.35 460.85a.64.64 0 1 1 .4-.82.65.65 0 0 1-.4.82ZM558.15 454.12a.64.64 0 1 1 .4-.82.65.65 0 0 1-.4.82ZM558.09 458.2a.64.64 0 1 1 .39-.81.64.64 0 0 1-.39.81ZM538.37 470.45a.64.64 0 1 1 .39-.81.63.63 0 0 1-.39.81ZM539 467a.64.64 0 0 1-.81-.39.65.65 0 0 1 .4-.82.64.64 0 0 1 .81.4.63.63 0 0 1-.4.81ZM533.94 470a.64.64 0 1 1 .39-.81.63.63 0 0 1-.39.81ZM542.59 469a.63.63 0 0 1-.81-.39.64.64 0 1 1 1.2-.42.64.64 0 0 1-.39.81ZM535.21 464.79a.65.65 0 0 1-.82-.4.64.64 0 1 1 .82.4ZM542.18 465.25a.65.65 0 0 1-.82-.4.64.64 0 1 1 .82.4ZM538.94 462.14a.64.64 0 1 1-.42-1.21.63.63 0 0 1 .81.39.64.64 0 0 1-.39.82ZM540.71 449.33a.64.64 0 1 1-.42-1.21.65.65 0 0 1 .81.4.63.63 0 0 1-.39.81ZM541.38 445.89a.64.64 0 0 1-.42-1.21.64.64 0 1 1 .42 1.21ZM538.25 447.65a.63.63 0 0 1-.81-.39.64.64 0 1 1 1.2-.42.63.63 0 0 1-.39.81ZM544.58 451.21a.63.63 0 0 1-.81-.39.64.64 0 0 1 .39-.82.64.64 0 1 1 .42 1.21ZM534.77 448.18a.63.63 0 0 1-.81-.39.64.64 0 1 1 .81.39ZM544.51 444.13a.64.64 0 1 1 .4-.82.65.65 0 0 1-.4.82ZM541.27 441a.64.64 0 0 1-.81-.4.63.63 0 0 1 .39-.81.64.64 0 1 1 .42 1.21ZM534.62 461.61a.65.65 0 0 1-.81-.4.63.63 0 0 1 .39-.81.64.64 0 1 1 .42 1.21ZM531.67 456.54a.63.63 0 0 1-.81-.39.64.64 0 1 1 1.2-.42.64.64 0 0 1-.39.81ZM529 450.85a.64.64 0 1 1 .39-.81.63.63 0 0 1-.39.81ZM535.21 458.52a.64.64 0 0 1-.81-.39.64.64 0 1 1 .81.39ZM529.32 460.56a.64.64 0 1 1-.42-1.2.64.64 0 1 1 .42 1.2ZM534.8 454.78a.64.64 0 0 1-.42-1.21.65.65 0 0 1 .82.39.66.66 0 0 1-.4.82ZM537.73 451.56a.64.64 0 0 1-.81-.4.63.63 0 0 1 .4-.81.64.64 0 0 1 .81.39.65.65 0 0 1-.4.82ZM543.79 478.72a.64.64 0 1 1-.42-1.2.64.64 0 1 1 .42 1.2ZM551.2 476.15a.64.64 0 0 1-.81-.39.64.64 0 1 1 .81.39ZM542.05 473.06a.63.63 0 0 1-.81-.39.64.64 0 0 1 .39-.82.66.66 0 0 1 .82.4.65.65 0 0 1-.4.81ZM556 469.57a.65.65 0 0 1-.82-.4.64.64 0 1 1 .82.4ZM547.36 473.93a.65.65 0 0 1-.81-.4.64.64 0 1 1 .81.4ZM557.55 474a.64.64 0 1 1 .39-.81.64.64 0 0 1-.39.81ZM551.1 471.28a.65.65 0 0 1-.82-.4.64.64 0 1 1 .82.4ZM542.24 459.17a.64.64 0 1 1 0-.91.64.64 0 0 1 0 .91ZM541.2 455.82a.64.64 0 1 1-.94-.87.63.63 0 0 1 .9 0 .65.65 0 0 1 .04.87Z"/><path class="cls-10" d="M539.28 458.85a.63.63 0 0 1-.9 0 .64.64 0 1 1 .9 0ZM545.26 455.87a.64.64 0 1 1 0-.9.63.63 0 0 1 0 .9ZM536.77 455.68a.65.65 0 0 1-.91 0 .64.64 0 1 1 .91 0ZM543.12 452.78a.64.64 0 1 1 0-.91.64.64 0 0 1 0 .91ZM538.79 451.58a.64.64 0 0 1-.94-.86.63.63 0 0 1 .9 0 .63.63 0 0 1 .04.86ZM532.83 456.2a.64.64 0 0 1-1-.87.64.64 0 1 1 1 .87ZM531.78 452.85a.63.63 0 0 1-.9 0 .64.64 0 1 1 .9 0ZM529.87 455.89a.66.66 0 0 1-.91 0 .64.64 0 1 1 .87-.95.66.66 0 0 1 .04.95ZM535.84 452.91a.64.64 0 1 1 0-.91.65.65 0 0 1 0 .91ZM527.35 452.71a.64.64 0 1 1 0-.9.63.63 0 0 1 0 .9ZM533.7 449.81a.63.63 0 0 1-.9 0 .65.65 0 0 1 0-.91.64.64 0 0 1 .94.87ZM529.38 448.61a.65.65 0 0 1-.91 0 .63.63 0 0 1 0-.9.64.64 0 0 1 1 .86ZM539.87 448.75a.64.64 0 1 1 0-.9.63.63 0 0 1 0 .9ZM538.83 445.4a.64.64 0 1 1 0-.9.63.63 0 0 1 0 .9ZM536.91 448.44a.64.64 0 1 1 0-.9.63.63 0 0 1 0 .9ZM542.89 445.46a.64.64 0 1 1 0-.9.63.63 0 0 1 0 .9ZM534.4 445.27a.65.65 0 0 1-.91 0 .64.64 0 1 1 .87-.95.65.65 0 0 1 .04.95ZM537 440.49a.64.64 0 1 1 0-.9.63.63 0 0 1 0 .9ZM533 441.8a.64.64 0 1 1 0-.9.63.63 0 0 1 0 .9ZM549.8 453.06a.64.64 0 1 1-.94-.87.63.63 0 0 1 .9 0 .65.65 0 0 1 .04.87ZM548.76 449.71a.64.64 0 1 1-.94-.87.63.63 0 0 1 .9 0 .65.65 0 0 1 .04.87ZM546.84 452.74a.63.63 0 0 1-.9 0 .64.64 0 1 1 .9 0ZM552.82 449.76a.64.64 0 1 1 0-.9.63.63 0 0 1 0 .9ZM544.33 449.57a.65.65 0 0 1-.91 0 .63.63 0 0 1 0-.9.64.64 0 0 1 1 .86ZM544.47 441.84a.64.64 0 1 1 0-.9.63.63 0 0 1 0 .9ZM546.35 445.47a.63.63 0 0 1-.9 0 .65.65 0 0 1 0-.91.64.64 0 0 1 .94.87ZM534.82 465.62a.64.64 0 1 1 0-.91.65.65 0 0 1 0 .91ZM533.78 462.26a.63.63 0 0 1-.9 0 .64.64 0 1 1 .9 0ZM530.69 467.29a.64.64 0 1 1 0-.9.65.65 0 0 1 0 .9ZM537.84 462.32a.64.64 0 1 1 0-.9.63.63 0 0 1 0 .9ZM529.35 462.13a.65.65 0 0 1-.91 0 .63.63 0 0 1 0-.9.64.64 0 0 1 1 .86ZM535.7 459.23a.66.66 0 0 1-.91 0 .65.65 0 0 1 0-.91.63.63 0 0 1 .9 0 .65.65 0 0 1 .01.91ZM531.37 458a.63.63 0 0 1-.9 0 .64.64 0 1 1 .9 0ZM526.85 445.92a.65.65 0 0 1-.91 0 .64.64 0 1 1 .87-.94.64.64 0 0 1 .04.94ZM525.8 442.57a.63.63 0 0 1-.9 0 .64.64 0 0 1 .86-.95.64.64 0 0 1 .04.95ZM523.89 445.61a.66.66 0 0 1-.91 0 .65.65 0 0 1 0-.91.64.64 0 1 1 .95.87ZM531.15 445.73a.64.64 0 1 1 0-.9.63.63 0 0 1 0 .9ZM521.08 447.72a.64.64 0 1 1 0-.9.63.63 0 0 1 0 .9ZM527.72 439.53a.64.64 0 1 1 0-.9.63.63 0 0 1 0 .9ZM523.4 438.33a.65.65 0 0 1-.91 0 .63.63 0 0 1 0-.9.64.64 0 0 1 .95.86ZM527.32 459.61a.63.63 0 0 1-.9 0 .64.64 0 1 1 .9 0ZM522.32 456.55a.65.65 0 0 1-.91 0 .63.63 0 0 1 0-.9.64.64 0 0 1 1 .86ZM517.28 452.81a.63.63 0 0 1-.9 0 .65.65 0 0 1 0-.91.63.63 0 0 1 .9 0 .63.63 0 0 1 0 .91ZM526.38 456.61a.65.65 0 0 1-.91 0 .63.63 0 0 1 0-.9.64.64 0 0 1 1 .86ZM522.16 461.21a.64.64 0 1 1 0-.9.63.63 0 0 1 0 .9ZM524.23 453.52a.64.64 0 0 1-.94-.87.64.64 0 1 1 .94.87ZM525.29 449.29a.65.65 0 0 1-.91 0 .64.64 0 1 1 .87-.95.65.65 0 0 1 .04.95ZM543.51 470.32a.64.64 0 0 1-.94-.86.65.65 0 0 1 .91 0 .63.63 0 0 1 .03.86ZM548.82 464.53a.64.64 0 1 1 0-.9.63.63 0 0 1 0 .9ZM539.3 466.16a.64.64 0 1 1 0-.9.63.63 0 0 1 0 .9ZM549.94 456.45a.65.65 0 0 1-.91 0 .64.64 0 1 1 .91 0ZM544.39 464.4a.64.64 0 1 1 0-.9.65.65 0 0 1 0 .9ZM553.36 459.58a.64.64 0 1 1 0-.9.63.63 0 0 1 0 .9ZM546.41 460.3a.64.64 0 1 1-.94-.87.63.63 0 0 1 .9 0 .65.65 0 0 1 .04.87Z"/></g><ellipse class="cls-2" cx="617.23" cy="484.75" rx="30.05" ry="38.42"/><g style="clip-path:url(#clip-path-2)"><path class="cls-10" d="M622 477.64a.59.59 0 0 1 .15-.82.59.59 0 0 1 .67 1 .6.6 0 0 1-.82-.18ZM625.2 477.37a.58.58 0 1 1 .81.14.59.59 0 0 1-.81-.14ZM622.86 475.06a.59.59 0 0 1 1-.67.59.59 0 0 1-1 .67ZM624.35 481a.58.58 0 0 1 .14-.81.59.59 0 0 1 .67 1 .58.58 0 0 1-.81-.19ZM626.19 473.44a.58.58 0 1 1 .81.14.58.58 0 0 1-.81-.14ZM627.53 479.67a.58.58 0 0 1 .14-.81.59.59 0 0 1 .67 1 .58.58 0 0 1-.81-.19ZM629.45 476.05a.57.57 0 0 1 .14-.81.58.58 0 0 1 .67.95.57.57 0 0 1-.81-.14ZM626.5 469.82a.59.59 0 0 1 .14-.81.6.6 0 0 1 .82.14.59.59 0 0 1-.15.82.58.58 0 0 1-.81-.15ZM629.69 469.55a.58.58 0 0 1 .15-.81.59.59 0 0 1 .81.14.6.6 0 0 1-.14.82.59.59 0 0 1-.82-.15ZM627.36 467.25a.6.6 0 0 1 .14-.82.59.59 0 0 1 .82.15.58.58 0 0 1-.15.81.59.59 0 0 1-.81-.14ZM628.84 473.16a.59.59 0 0 1 1-.67.59.59 0 0 1-.14.81.58.58 0 0 1-.86-.14ZM630.68 465.63a.58.58 0 0 1 .15-.81.57.57 0 0 1 .81.14.59.59 0 0 1-1 .67ZM632 471.86a.57.57 0 0 1 .14-.81.58.58 0 0 1 .67.95.57.57 0 0 1-.81-.14ZM633.94 468.24a.59.59 0 0 1 1-.67.59.59 0 0 1-1 .67ZM631.75 477.57a.58.58 0 0 1 .15-.81.57.57 0 0 1 .81.14.59.59 0 0 1-1 .67ZM635 477.3a.58.58 0 1 1 .95-.67.58.58 0 0 1-.95.67ZM632.61 475a.59.59 0 1 1 .82.14.58.58 0 0 1-.82-.14ZM634.1 480.91a.58.58 0 1 1 .81.14.59.59 0 0 1-.81-.14ZM635.94 473.37a.58.58 0 1 1 .95-.67.59.59 0 0 1-.14.82.58.58 0 0 1-.81-.15ZM639.67 476.67a.59.59 0 0 1 .15-.82.59.59 0 0 1 .67 1 .6.6 0 0 1-.82-.18ZM639.3 472.82a.57.57 0 0 1 .14-.81.58.58 0 1 1-.14.81ZM626 485.57a.58.58 0 0 1 .14-.81.59.59 0 0 1 .67 1 .58.58 0 0 1-.81-.19ZM629.16 485.3a.58.58 0 0 1 .14-.81.59.59 0 0 1 .67 1 .58.58 0 0 1-.81-.19ZM626.83 483a.58.58 0 1 1 .81.14.59.59 0 0 1-.81-.14ZM628.31 488.91a.58.58 0 1 1 1-.67.58.58 0 0 1-1 .67ZM630.15 481.38a.58.58 0 0 1 .14-.81.58.58 0 0 1 .67.95.58.58 0 0 1-.81-.14ZM637 483a.59.59 0 0 1 .14-.82.58.58 0 0 1 .81.15.57.57 0 0 1-.14.81.59.59 0 0 1-.81-.14ZM633.41 484a.58.58 0 1 1 .81.14.58.58 0 0 1-.81-.14ZM617.71 469.75a.59.59 0 0 1 1-.67.6.6 0 0 1-.14.82.59.59 0 0 1-.86-.15ZM620.91 469.48a.57.57 0 0 1 .14-.81.59.59 0 0 1 .67 1 .58.58 0 0 1-.81-.19ZM617 465.74a.58.58 0 0 1 1-.67.58.58 0 1 1-1 .67ZM620.06 473.09a.57.57 0 0 1 .14-.81.58.58 0 1 1-.14.81ZM621.9 465.56a.59.59 0 0 1 .14-.82.59.59 0 0 1 .67 1 .59.59 0 0 1-.81-.18ZM623.24 471.79a.58.58 0 1 1 .81.14.58.58 0 0 1-.81-.14ZM625.16 468.17a.58.58 0 0 1 1-.67.58.58 0 1 1-1 .67ZM636.84 466.51a.58.58 0 0 1 .14-.81.59.59 0 1 1-.14.81ZM640 466.24a.59.59 0 0 1 .14-.81.6.6 0 0 1 .82.14.59.59 0 0 1-.15.82.58.58 0 0 1-.81-.15ZM637.7 463.94a.59.59 0 0 1 .14-.82.58.58 0 0 1 .81.15.57.57 0 0 1-.14.81.59.59 0 0 1-.81-.14ZM636.16 470.38a.59.59 0 0 1 .14-.81.6.6 0 0 1 .82.14.59.59 0 0 1-.15.82.58.58 0 0 1-.81-.15ZM636.36 461a.59.59 0 0 1 .15-.82.58.58 0 0 1 .81.15.59.59 0 0 1-.14.81.6.6 0 0 1-.82-.14ZM642.36 468.55a.59.59 0 0 1 1-.67.59.59 0 0 1-1 .67ZM644.28 464.93a.59.59 0 1 1 .81.14.58.58 0 0 1-.81-.14ZM624.54 464.25a.59.59 0 0 1 .15-.82.59.59 0 0 1 .67 1 .59.59 0 0 1-.82-.18ZM628.25 460.39a.59.59 0 0 1 .14-.82.58.58 0 0 1 .81.15.57.57 0 0 1-.14.81.59.59 0 0 1-.81-.14ZM632.58 456.64a.58.58 0 1 1 .81.14.58.58 0 0 1-.81-.14ZM627.4 464a.58.58 0 0 1 .14-.81.59.59 0 1 1-.14.81ZM624.13 459.33a.58.58 0 0 1 .14-.81.59.59 0 1 1-.14.81ZM630.58 462.69a.59.59 0 0 1 .14-.81.6.6 0 0 1 .82.14.59.59 0 0 1-.15.82.58.58 0 0 1-.81-.15ZM634.14 464.46a.59.59 0 1 1 .82.14.58.58 0 0 1-.82-.14ZM611.81 476.58a.59.59 0 1 1 .81.14.58.58 0 0 1-.81-.14ZM615.93 482.44a.58.58 0 0 1 .14-.81.59.59 0 0 1 .81.14.58.58 0 1 1-1 .67ZM616.35 473.64a.58.58 0 0 1 .14-.81.57.57 0 0 1 .81.14.58.58 0 0 1-.95.67ZM622.91 485a.58.58 0 0 1 .15-.81.57.57 0 0 1 .81.14.58.58 0 0 1-.14.81.59.59 0 0 1-.82-.14ZM616.92 478.52a.59.59 0 1 1 .81.14.58.58 0 0 1-.81-.14ZM619.45 487.46a.58.58 0 0 1 .95-.67.58.58 0 1 1-.95.67ZM620.18 481.13a.58.58 0 1 1 1-.67.57.57 0 0 1-.14.81.58.58 0 0 1-.86-.14Z"/><path class="cls-10" d="M628.27 470a.58.58 0 1 1-.38-1.1.58.58 0 0 1 .74.36.57.57 0 0 1-.36.74ZM628.89 466.88a.58.58 0 0 1-.74-.36.57.57 0 0 1 .36-.74.58.58 0 0 1 .74.36.59.59 0 0 1-.36.74ZM626 468.49a.58.58 0 0 1-.74-.36.57.57 0 0 1 .36-.74.58.58 0 0 1 .74.36.59.59 0 0 1-.36.74ZM632.12 468.69a.59.59 0 0 1-.74-.36.6.6 0 0 1 .36-.75.59.59 0 0 1 .38 1.11ZM625.38 464.85a.59.59 0 0 1-.74-.36.58.58 0 0 1 .36-.74.57.57 0 0 1 .74.36.58.58 0 0 1-.36.74ZM631.75 465.27a.58.58 0 1 1-.39-1.1.58.58 0 0 1 .75.36.59.59 0 0 1-.36.74ZM628.79 462.43a.58.58 0 1 1 .36-.74.58.58 0 0 1-.36.74ZM622 463.55a.58.58 0 0 1-.74-.36.58.58 0 0 1 1.1-.38.57.57 0 0 1-.36.74ZM622.61 460.41a.58.58 0 0 1-.38-1.1.58.58 0 0 1 .74.36.59.59 0 0 1-.36.74ZM619.75 462a.58.58 0 1 1 .36-.74.57.57 0 0 1-.36.74ZM625.84 462.22a.59.59 0 0 1-.74-.36.58.58 0 0 1 .36-.74.57.57 0 0 1 .74.36.58.58 0 0 1-.36.74ZM619.11 458.38a.58.58 0 1 1 .36-.74.58.58 0 0 1-.36.74ZM625.47 458.8a.58.58 0 1 1 .36-.74.58.58 0 0 1-.36.74ZM622.51 456a.58.58 0 1 1-.38-1.1.59.59 0 0 1 .74.36.57.57 0 0 1-.36.74ZM630.88 460.63a.59.59 0 0 1-.74-.36.58.58 0 0 1 1.1-.38.58.58 0 0 1-.36.74ZM631.5 457.49a.59.59 0 0 1-.38-1.11.59.59 0 0 1 .74.36.6.6 0 0 1-.36.75ZM628.64 459.1a.59.59 0 0 1-.38-1.11.59.59 0 0 1 .38 1.11ZM634.73 459.29a.58.58 0 0 1-.74-.36.59.59 0 0 1 .36-.74.58.58 0 1 1 .38 1.1ZM628 455.46a.59.59 0 0 1-.74-.36.6.6 0 0 1 .36-.75.59.59 0 0 1 .38 1.11ZM632.19 452.76a.57.57 0 0 1-.74-.36.58.58 0 0 1 .36-.74.59.59 0 0 1 .74.36.58.58 0 0 1-.36.74ZM628.38 452.07a.58.58 0 0 1-.74-.36.59.59 0 0 1 .36-.71.58.58 0 0 1 .74.36.57.57 0 0 1-.36.71ZM637 468.39a.58.58 0 1 1 .36-.74.57.57 0 0 1-.36.74ZM637.61 465.25a.58.58 0 0 1-.74-.36.57.57 0 0 1 .36-.74.58.58 0 0 1 .74.36.59.59 0 0 1-.36.74ZM634.75 466.86a.59.59 0 0 1-.38-1.11.59.59 0 0 1 .38 1.11ZM640.84 467.05a.58.58 0 0 1-.74-.36.59.59 0 0 1 .36-.74.58.58 0 0 1 .74.36.57.57 0 0 1-.36.74ZM634.1 463.22a.59.59 0 0 1-.74-.36.6.6 0 0 1 .36-.75.59.59 0 0 1 .38 1.11ZM637.57 457.07a.58.58 0 0 1-.38-1.1.59.59 0 0 1 .74.36.57.57 0 0 1-.36.74ZM637.51 460.8a.58.58 0 0 1-.74-.36.58.58 0 0 1 1.1-.38.58.58 0 0 1-.36.74ZM619.51 472a.59.59 0 0 1-.38-1.11.59.59 0 0 1 .38 1.11ZM620.13 468.84a.58.58 0 1 1-.38-1.1.58.58 0 1 1 .38 1.1ZM615.47 471.54a.59.59 0 1 1 .36-.75.6.6 0 0 1-.36.75ZM623.37 470.65a.6.6 0 0 1-.75-.36.59.59 0 0 1 1.11-.38.59.59 0 0 1-.36.74ZM616.63 466.81a.58.58 0 1 1 .36-.74.58.58 0 0 1-.36.74ZM623 467.23a.57.57 0 0 1-.74-.36.58.58 0 0 1 .36-.74.58.58 0 1 1 .38 1.1ZM620 464.39a.58.58 0 0 1-.38-1.1.59.59 0 0 1 .74.36.57.57 0 0 1-.36.74ZM621.65 452.71a.59.59 0 1 1 .35-.71.6.6 0 0 1-.35.71ZM622.26 449.56a.58.58 0 1 1 .36-.74.57.57 0 0 1-.36.74ZM619.4 451.17a.58.58 0 0 1-.38-1.1.58.58 0 1 1 .38 1.1ZM625.18 454.42a.58.58 0 0 1-.74-.36.58.58 0 1 1 .74.36ZM616.23 451.65a.57.57 0 0 1-.74-.36.58.58 0 0 1 .36-.74.59.59 0 0 1 .74.36.58.58 0 0 1-.36.74ZM625.12 448a.58.58 0 0 1-.38-1.1.58.58 0 0 1 .38 1.1ZM622.16 445.11a.58.58 0 0 1-.74-.36.59.59 0 0 1 .36-.74.58.58 0 0 1 .74.36.57.57 0 0 1-.36.74ZM616.09 463.91a.59.59 0 0 1-.74-.36.58.58 0 1 1 .74.36ZM613.4 459.28a.58.58 0 0 1-.75-.36.59.59 0 0 1 .36-.74.6.6 0 0 1 .75.36.58.58 0 0 1-.36.74ZM611 454.09a.57.57 0 0 1-.74-.36.58.58 0 0 1 .36-.74.59.59 0 0 1 .74.36.58.58 0 0 1-.36.74ZM616.63 461.09a.58.58 0 1 1 .36-.74.58.58 0 0 1-.36.74ZM611.25 463a.59.59 0 0 1-.74-.36.6.6 0 0 1 .36-.75.59.59 0 0 1 .38 1.11ZM616.26 457.68a.59.59 0 1 1 .36-.75.6.6 0 0 1-.36.75ZM618.93 454.74a.59.59 0 1 1 .36-.75.58.58 0 0 1-.36.75ZM624.46 479.53a.58.58 0 0 1-.75-.36.59.59 0 0 1 .36-.74.6.6 0 0 1 .75.36.58.58 0 0 1-.36.74ZM631.23 477.18a.57.57 0 0 1-.74-.36.58.58 0 0 1 .36-.74.59.59 0 0 1 .74.36.58.58 0 0 1-.36.74ZM622.87 474.37a.59.59 0 0 1-.74-.36.6.6 0 0 1 .36-.75.59.59 0 0 1 .38 1.11ZM635.63 471.18a.59.59 0 1 1 .36-.75.59.59 0 0 1-.36.75ZM627.72 475.15a.58.58 0 0 1-.74-.36.59.59 0 0 1 .36-.74.58.58 0 0 1 .74.36.57.57 0 0 1-.36.74ZM637 475.18a.59.59 0 0 1-.38-1.11.59.59 0 0 1 .74.36.6.6 0 0 1-.36.75ZM631.13 472.74a.59.59 0 1 1 .36-.75.59.59 0 0 1-.36.75Z"/><path class="cls-10" d="M622.9 461.35a.58.58 0 0 1-.82 0 .58.58 0 0 1 .78-.86.59.59 0 0 1 .04.86ZM622 458.29a.58.58 0 1 1 0-.83.59.59 0 0 1 0 .83ZM620.2 461.06a.59.59 0 0 1-.83 0 .59.59 0 0 1 0-.83.58.58 0 0 1 .82 0 .57.57 0 0 1 .01.83ZM625.66 458.34a.59.59 0 1 1-.87-.79.59.59 0 0 1 .87.79ZM617.9 458.16a.58.58 0 0 1-.86-.78.58.58 0 1 1 .86.78ZM623.7 455.51a.57.57 0 0 1-.82 0 .58.58 0 1 1 .78-.86.57.57 0 0 1 .04.86ZM619.75 454.42a.58.58 0 1 1 0-.82.58.58 0 0 1 0 .82ZM614.3 458.64a.58.58 0 0 1-.82 0 .57.57 0 0 1 0-.82.59.59 0 0 1 .83 0 .59.59 0 0 1-.01.82ZM613.35 455.58a.58.58 0 0 1-.86-.79.58.58 0 1 1 .86.79ZM611.6 458.35a.57.57 0 0 1-.82 0 .59.59 0 0 1 0-.83.59.59 0 0 1 .83 0 .58.58 0 0 1-.01.83ZM617.06 455.63a.58.58 0 1 1-.86-.79.58.58 0 0 1 .86.79ZM609.3 455.45a.57.57 0 0 1-.82 0 .58.58 0 1 1 .79-.86.57.57 0 0 1 .03.86ZM615.1 452.8a.57.57 0 0 1-.82 0 .58.58 0 1 1 .79-.86.57.57 0 0 1 .03.86ZM611.15 451.71a.58.58 0 0 1-.82 0 .6.6 0 0 1 0-.83.59.59 0 0 1 .83 0 .57.57 0 0 1-.01.83ZM620.74 451.84a.6.6 0 0 1-.83 0 .59.59 0 0 1 0-.83.57.57 0 0 1 .82 0 .58.58 0 0 1 .01.83ZM619.79 448.78a.59.59 0 1 1-.87-.79.59.59 0 0 1 .87.79ZM618 451.56a.58.58 0 1 1 0-.83.58.58 0 0 1 0 .83ZM623.49 448.83a.58.58 0 1 1 0-.82.57.57 0 0 1 0 .82ZM615.74 448.66a.58.58 0 1 1 0-.83.59.59 0 0 1 0 .83ZM618.15 444.3a.58.58 0 0 1-.86-.79.58.58 0 1 1 .86.79ZM614.48 445.5a.59.59 0 0 1-.83 0 .58.58 0 1 1 .79-.86.6.6 0 0 1 .04.86ZM629.8 455.77a.58.58 0 1 1 0-.83.59.59 0 0 1 0 .83ZM628.85 452.71a.58.58 0 1 1-.86-.79.58.58 0 0 1 .86.79ZM627.1 455.48a.58.58 0 1 1-.86-.78.58.58 0 1 1 .86.78ZM632.55 452.76a.57.57 0 0 1-.82 0 .58.58 0 1 1 .79-.86.57.57 0 0 1 .03.86ZM624.8 452.59a.58.58 0 0 1-.82 0 .58.58 0 0 1 .78-.86.59.59 0 0 1 .04.86ZM624.93 445.53a.57.57 0 0 1-.82 0 .58.58 0 1 1 .79-.86.57.57 0 0 1 .03.86ZM626.65 448.84a.57.57 0 0 1-.82 0 .58.58 0 1 1 .78-.86.57.57 0 0 1 .04.86ZM616.12 467.23a.57.57 0 0 1-.82 0 .58.58 0 1 1 .79-.86.57.57 0 0 1 .03.86ZM615.17 464.17a.57.57 0 0 1-.82 0 .58.58 0 1 1 .79-.86.57.57 0 0 1 .03.86ZM612.35 468.76a.58.58 0 1 1-.86-.79.58.58 0 0 1 .86.79ZM618.88 464.23a.58.58 0 0 1-.82 0 .58.58 0 1 1 .78-.86.59.59 0 0 1 .04.86ZM611.13 464.05a.6.6 0 0 1-.83 0 .59.59 0 0 1 0-.83.57.57 0 0 1 .82 0 .58.58 0 0 1 .01.83ZM616.93 461.4a.59.59 0 1 1-.87-.79.59.59 0 0 1 .87.79ZM613 460.31a.59.59 0 0 1-.83 0 .58.58 0 0 1 .79-.86.6.6 0 0 1 .04.86ZM608.84 449.25a.57.57 0 0 1-.82 0 .58.58 0 1 1 .79-.86.57.57 0 0 1 .03.86ZM607.89 446.19a.57.57 0 0 1-.82 0 .58.58 0 1 1 .79-.86.57.57 0 0 1 .03.86ZM606.14 449a.58.58 0 0 1-.86-.79.58.58 0 1 1 .86.79ZM612.77 449.08a.57.57 0 0 1-.82 0 .59.59 0 0 1 0-.83.59.59 0 0 1 .83 0 .58.58 0 0 1-.01.83ZM603.58 450.9a.59.59 0 0 1-.83 0 .59.59 0 0 1 0-.83.58.58 0 0 1 .82 0 .57.57 0 0 1 .01.83ZM609.64 443.42a.58.58 0 0 1-.82 0 .6.6 0 0 1 0-.83.59.59 0 0 1 .83 0 .57.57 0 0 1-.01.83ZM605.7 442.33a.59.59 0 0 1-.83 0 .58.58 0 0 1 .79-.86.6.6 0 0 1 .04.86ZM609.28 461.75a.58.58 0 1 1 0-.83.59.59 0 0 1 0 .83ZM604.71 459a.58.58 0 1 1-.86-.79.58.58 0 0 1 .86.79ZM600.12 455.54a.58.58 0 1 1 0-.82.59.59 0 0 1 0 .82ZM608.42 459a.59.59 0 0 1-.83 0 .58.58 0 0 1 .79-.86.58.58 0 0 1 .04.86ZM604.57 463.21a.58.58 0 1 1-.86-.79.58.58 0 0 1 .86.79ZM606.46 456.19a.58.58 0 0 1-.82 0 .57.57 0 0 1 0-.82.59.59 0 0 1 .83 0 .59.59 0 0 1-.01.82ZM607.42 452.33a.58.58 0 0 1-.86-.79.58.58 0 1 1 .86.79ZM624.06 471.53a.58.58 0 0 1-.86-.79.58.58 0 1 1 .86.79ZM628.9 466.24a.58.58 0 0 1-.86-.78.58.58 0 1 1 .86.78ZM620.21 467.73a.57.57 0 0 1-.82 0 .59.59 0 0 1 0-.83.59.59 0 0 1 .83 0 .58.58 0 0 1-.01.83ZM629.92 458.87a.58.58 0 1 1 0-.83.58.58 0 0 1 0 .83ZM624.86 466.12a.58.58 0 1 1 0-.82.59.59 0 0 1 0 .82ZM633 461.73a.58.58 0 1 1 0-.83.58.58 0 0 1 0 .83ZM626.7 462.38a.57.57 0 0 1-.82 0 .58.58 0 0 1 0-.82.6.6 0 0 1 .83 0 .59.59 0 0 1-.01.82Z"/></g><path class="cls-8" d="M411.47 442.54a44.15 44.15 0 0 0-3.58 2.69h67.76c-25.91-25.08-54.35-9.49-64.18-2.69Z"/><path class="cls-7" d="m541.21 362.52 21.6-38.93A103.74 103.74 0 1 1 587.92 351Z"/><path class="cls-6" d="m543.37 363.78 7.29-13.14 11.62-21 2.68-4.83a2.5 2.5 0 0 0 0-2.52 102.1 102.1 0 0 1-14.8-66 100.62 100.62 0 0 1 21-50.45 101.1 101.1 0 1 1 31.92 151.92 105.71 105.71 0 0 1-13.93-8.94 2.49 2.49 0 0 0-3.23.64 2.56 2.56 0 0 0 .2 3.29l1.11-4.18-15.85 3.9-25.12 6.17-5.77 1.42c-3.13.76-1.81 5.59 1.32 4.82l15.85-3.9 25.12-6.17 5.78-1.41c2-.5 2.18-2.78 1.1-4.18l-3 3.93a106 106 0 1 0-34.13-44 108.48 108.48 0 0 0 8.13 15.74v-2.52l-7.29 13.14-11.63 21-2.68 4.82c-1.57 2.74 2.75 5.27 4.31 2.45Z"/><path class="cls-12" d="m615 244.43 17.81-.17s-.15-14.95 15.39-15.37a14.4 14.4 0 0 1 14 9.06 16 16 0 0 1-1.13 14.43c-3 5-9.55 9.6-21.57 7.6l.39 40.15 17.6-.17-.22-23.52s24.63-6.62 24.37-33.83c-.25-26-23.66-31.86-33.65-31.76-7.62.07-33.64 2.15-32.99 33.58Z"/><path class="cls-12" transform="rotate(-.55 648.537 316.682)" d="M640.03 308.32h17.87v16.69h-17.87z"/></svg>