<svg width="80" height="80" viewBox="0 0 80 80" fill="none" xmlns="http://www.w3.org/2000/svg">
<rect width="80" height="80" rx="40" fill="#136EF6"/>
<path d="M33.1082 33.0371L27.8936 38.2527L32.9946 43.4109" stroke="#EBF1F9" stroke-width="1.74476" stroke-linecap="round"/>
<path d="M46.8918 33.0371L52.1064 38.2527L47.0054 43.4109" stroke="#EBF1F9" stroke-width="1.74476" stroke-linecap="round"/>
<path d="M44.5079 30.5605L35.5303 45.9231" stroke="#EBF1F9" stroke-width="1.74476" stroke-linecap="round"/>
<path fill-rule="evenodd" clip-rule="evenodd" d="M61.1374 51.3456H55.7159H24.6298H19.2083V44.0893C19.2085 44.0775 19.2085 44.0655 19.2083 44.0535C19.2085 44.0414 19.2085 44.0295 19.2083 44.0177V25.823H61.1374V44.0177C61.1372 44.0295 61.1372 44.0414 61.1374 44.0535C61.1372 44.0655 61.1372 44.0774 61.1374 44.0893V51.3456ZM62.0579 53.1687H64.3573C63.907 54.1713 63.0028 54.9917 61.6118 54.9917H55.7159H24.6298H18.7339C17.3429 54.9917 16.4387 54.1713 15.9884 53.1687H18.2878L18.2968 53.1687H24.62H24.6298H55.7159H55.7257H62.0489C62.0519 53.1687 62.0549 53.1687 62.0579 53.1687ZM62.9604 51.3456V44.0893C62.9606 44.0774 62.9606 44.0655 62.9604 44.0535C62.9606 44.0414 62.9606 44.0295 62.9604 44.0177V34.9383L62.9614 34.9383V24.9115C62.9614 24.6698 62.8653 24.4378 62.6944 24.2668C62.5235 24.0959 62.2916 24 62.0499 24H62.0489H18.2968H18.2958C18.0541 24 17.8222 24.0959 17.6513 24.2668C17.4804 24.4378 17.3843 24.6698 17.3843 24.9115V34.9383L17.3853 34.9383V44.0177C17.3851 44.0295 17.3851 44.0414 17.3853 44.0535C17.3851 44.0655 17.3851 44.0774 17.3853 44.0893V51.3456H14.6503C14.4085 51.3456 14.1767 51.4415 14.0057 51.6124C13.8348 51.7834 13.7388 52.0154 13.7388 52.2571C13.7388 54.8258 16.0358 56.8148 18.7339 56.8148H24.6298H55.7159H61.6118C64.3099 56.8148 66.6069 54.8258 66.6069 52.2571C66.6069 52.0154 66.5109 51.7834 66.34 51.6124C66.169 51.4415 65.9372 51.3456 65.6954 51.3456H62.9604Z" fill="#EBF1F9"/>
</svg>
