<svg width="80" height="81" viewBox="0 0 80 81" fill="none" xmlns="http://www.w3.org/2000/svg">
<rect y="0.949463" width="80" height="80" rx="40" fill="#136EF6"/>
<g clip-path="url(#clip0_109_38488)">
<path fill-rule="evenodd" clip-rule="evenodd" d="M48.9353 41.2704C49.8769 40.3288 51.1537 39.7997 52.4853 39.799V39.7964C53.8168 39.797 55.0937 40.3261 56.0356 41.2673C56.9776 42.2085 57.5075 43.485 57.5092 44.8166V49.1211C57.5092 50.5538 56.7797 51.8034 55.817 52.6909C55.7862 52.7184 55.7513 52.738 55.7164 52.7577C55.6846 52.7757 55.6527 52.7936 55.624 52.8176L55.6916 52.8514C55.7163 52.8636 55.7402 52.8773 55.7631 52.8927C55.7468 52.8815 55.7916 52.9049 55.8798 52.951C56.0085 53.0182 56.2295 53.1336 56.4876 53.2601L56.583 53.3069C57.0101 53.5168 57.5799 53.7967 58.2751 54.1437C60.3139 55.1626 62.3292 56.2278 64.3193 57.3388C64.3286 57.3435 64.3378 57.3487 64.3469 57.3539C65.4587 58.0496 65.9025 59.2504 65.9025 60.5226V61.202C65.9025 61.2498 65.897 61.2971 65.8864 61.3429C65.8849 61.6827 65.8771 61.9977 65.8376 62.2653C65.7844 62.6251 65.6608 63.0016 65.3317 63.288C65.0224 63.5572 64.6189 63.6679 64.1981 63.7253C63.7692 63.7838 63.2213 63.7983 62.542 63.7983L62.54 63.7983L51.9667 63.7638C51.6206 63.7627 51.3409 63.4812 51.342 63.135C51.3431 62.7889 51.6247 62.5092 51.9708 62.5103L62.542 62.5449H62.543C63.2221 62.5449 63.6932 62.5291 64.0287 62.4833C64.3722 62.4365 64.4784 62.369 64.5088 62.3425L64.5094 62.3419C64.5211 62.3318 64.5664 62.2927 64.5976 62.0819C64.6317 61.851 64.6333 61.5373 64.6333 61.0487C64.6333 61.0006 64.6387 60.9537 64.649 60.9086V60.5226C64.649 59.5011 64.4045 58.8706 63.6838 58.4193C61.719 57.3232 59.7297 56.2716 57.7173 55.2656C57.1553 54.9846 56.6739 54.7489 56.2828 54.5574C56.1574 54.496 56.0413 54.4392 55.9348 54.3869C55.8341 54.3374 55.7451 54.2943 55.6653 54.2557C55.4149 54.1346 55.2539 54.0568 55.1 53.9581L54.4482 53.6399C54.436 53.6443 54.42 53.6477 54.4035 53.6513C54.3825 53.6557 54.3608 53.6604 54.3454 53.6674C53.9017 53.8792 53.4467 53.9682 52.9866 54.0296C52.9149 54.0432 52.8646 54.0625 52.8152 54.0815C52.7463 54.1079 52.6791 54.1337 52.558 54.1425C52.5362 54.1436 52.5145 54.1436 52.4928 54.1425H52.4853C51.8623 54.1425 51.2355 53.9595 50.6326 53.6737L49.868 54.0496C47.1712 55.3916 44.4971 56.7791 41.847 58.2112C41.8408 58.2155 41.8346 58.2197 41.8282 58.2238C41.0786 58.5986 40.4544 59.3632 40.4544 60.0702V61.1419C40.4544 61.2242 40.4382 61.3056 40.4067 61.3817C40.3752 61.4577 40.329 61.5268 40.2708 61.585C40.2126 61.6432 40.1435 61.6894 40.0675 61.7209C39.9915 61.7524 39.91 61.7686 39.8277 61.7686C39.7454 61.7686 39.6639 61.7524 39.5878 61.7209C39.5118 61.6894 39.4427 61.6432 39.3845 61.585C39.3263 61.5268 39.2801 61.4577 39.2486 61.3817C39.2171 61.3056 39.2009 61.2242 39.2009 61.1419V60.0702C39.2009 58.7139 40.1824 57.6459 41.2679 57.1031C45.0597 55.0349 49.3127 52.9291 49.3127 52.9291H49.3152L49.4243 52.8726C49.385 52.8398 49.3415 52.8149 49.2981 52.79C49.2487 52.7618 49.1994 52.7335 49.156 52.6935C48.1921 51.806 47.4638 50.5563 47.4638 49.1235V44.8204C47.4645 43.4888 47.9938 42.2119 48.9353 41.2704ZM53.9311 41.3331C53.4725 41.1448 52.981 41.0495 52.4853 41.0525C51.9897 41.0495 51.4985 41.1447 51.0401 41.3329C50.5817 41.5212 50.1652 41.7986 49.8147 42.1489C49.4642 42.4993 49.1868 42.9156 48.9984 43.374C48.81 43.8323 48.7145 44.3236 48.7173 44.8192V49.1235C48.7173 50.1251 49.2425 51.0715 50.0046 51.7734C50.7479 52.4566 51.7018 52.8439 52.4238 52.8639C52.4367 52.8651 52.448 52.8696 52.4591 52.874C52.4718 52.879 52.4844 52.884 52.499 52.884H52.5016C53.2286 52.879 54.2113 52.4703 54.9671 51.7734C55.7292 51.0715 56.2557 50.1263 56.2557 49.1235V44.8204C56.2584 44.3246 56.1626 43.8332 55.9741 43.3747C55.7855 42.9162 55.5078 42.4997 55.1572 42.1493C54.8065 41.7988 54.3897 41.5214 53.9311 41.3331Z" fill="#EBF1F9"/>
<path fill-rule="evenodd" clip-rule="evenodd" d="M39.8394 35.8747C38.2899 35.8755 36.804 36.4913 35.7083 37.587C34.6126 38.6827 33.9967 40.1687 33.9959 41.7183V46.726C33.9959 48.3933 34.8434 49.8476 35.9651 50.8804C36.0156 50.9269 36.073 50.9598 36.1305 50.9928C36.181 51.0217 36.2316 51.0507 36.2773 51.0889L36.1504 51.1546H36.1475C36.1475 51.1546 31.1981 53.6051 26.7855 56.012C25.5223 56.6436 24.3802 57.8865 24.3802 59.4648V60.4603C24.375 60.4953 24.3723 60.531 24.3723 60.5675L24.3723 60.6133C24.3723 61.1215 24.3722 61.5953 24.4296 61.9833C24.4915 62.4019 24.6352 62.8401 25.0182 63.1734C25.3782 63.4867 25.8477 63.6155 26.3375 63.6823C26.8365 63.7504 27.4741 63.7673 28.2647 63.7673H39.247H40.5698H51.5429C52.3334 63.7673 52.971 63.7504 53.47 63.6823C53.9599 63.6155 54.4294 63.4867 54.7893 63.1734C55.1723 62.8401 55.3161 62.4019 55.378 61.9833C55.4226 61.6815 55.4325 61.3277 55.4346 60.9462C55.447 60.8928 55.4534 60.8377 55.4534 60.782V59.9914C55.4534 58.5108 54.937 57.1134 53.6431 56.3038C53.6353 56.2993 53.6274 56.2949 53.6194 56.2906L53.611 56.2862C51.295 54.9934 48.9498 53.7537 46.5772 52.5681C45.769 52.1646 45.1065 51.8392 44.6096 51.595L44.6092 51.5948L44.4971 51.5397C44.1967 51.3926 43.9395 51.2582 43.7898 51.18C43.6871 51.1264 43.635 51.0992 43.6539 51.1122C43.6273 51.0944 43.5995 51.0783 43.5708 51.0641L43.492 51.0248C43.5255 50.9969 43.5625 50.976 43.5996 50.9551C43.6402 50.9322 43.6808 50.9094 43.7167 50.8773C44.837 49.8446 45.6859 48.3904 45.6859 46.7231V41.7138C45.684 40.1642 45.0673 38.6788 43.9711 37.5834C42.875 36.4881 41.389 35.8725 39.8394 35.8717V35.8747ZM53.9947 60.4051V59.9914C53.9947 58.8025 53.7102 58.0688 52.8715 57.5437C50.585 56.268 48.27 55.0444 45.9281 53.8736C45.2749 53.547 44.7152 53.273 44.2603 53.0503L44.2589 53.0496C44.1129 52.9781 43.9778 52.9119 43.8538 52.851C43.7366 52.7934 43.6331 52.7433 43.5401 52.6984L43.54 52.6983C43.2488 52.5575 43.0614 52.4669 42.8823 52.3521L42.1238 51.9817C42.1096 51.9868 42.0909 51.9908 42.0717 51.995L42.0717 51.995C42.0473 52.0002 42.0221 52.0056 42.0042 52.0137C41.4878 52.2603 40.9583 52.3637 40.4229 52.4352C40.3395 52.4511 40.2809 52.4735 40.2234 52.4956C40.1433 52.5264 40.0651 52.5564 39.9241 52.5666C39.8988 52.568 39.8735 52.568 39.8482 52.5666H39.8394C39.1145 52.5666 38.3851 52.3536 37.6835 52.021L36.7937 52.4585C33.6553 54.0203 30.5435 55.6349 27.4595 57.3015C27.4523 57.3065 27.445 57.3114 27.4376 57.3161C26.5653 57.7523 25.8389 58.6421 25.8389 59.4648V60.712C25.8389 60.7471 25.8363 60.7822 25.8313 60.8168C25.8325 61.2465 25.839 61.5427 25.8726 61.7699C25.9088 62.0152 25.9615 62.0607 25.9751 62.0725L25.9758 62.0731C26.0113 62.1039 26.1348 62.1825 26.5346 62.237C26.9252 62.2903 27.4738 62.3086 28.2647 62.3086H39.247H40.5698H51.5429C52.3338 62.3086 52.8823 62.2903 53.2729 62.237C53.6727 62.1825 53.7963 62.1039 53.8317 62.0731L53.8324 62.0725C53.846 62.0607 53.8987 62.0152 53.935 61.7699C53.9747 61.5012 53.9765 61.1361 53.9765 60.5675C53.9765 60.5117 53.9828 60.4573 53.9947 60.4051ZM39.8394 37.3334C40.4164 37.33 40.9883 37.4409 41.522 37.66C42.0557 37.8791 42.5407 38.202 42.9488 38.6098C43.3569 39.0176 43.68 39.5023 43.8995 40.0359C44.1189 40.5695 44.2303 41.1413 44.2272 41.7183V46.726C44.2272 47.8929 43.6146 48.9928 42.7277 49.8097C41.8481 50.6207 40.7045 51.0962 39.8584 51.1021H39.8555C39.8384 51.1021 39.8238 51.0963 39.809 51.0904C39.7961 51.0853 39.783 51.0801 39.768 51.0787C38.9278 51.0554 37.8177 50.6047 36.9527 49.8097C36.0658 48.9928 35.4546 47.8915 35.4546 46.726V41.7168C35.4513 41.1402 35.5625 40.5684 35.7817 40.035C36.0009 39.5016 36.3238 39.0172 36.7316 38.6095C37.1395 38.2017 37.6242 37.8789 38.1577 37.6598C38.6911 37.4408 39.2628 37.33 39.8394 37.3334ZM45.8084 19.9253C44.8452 19.928 43.9223 20.3121 43.2416 20.9936C42.5609 21.6751 42.1778 22.5986 42.1763 23.5618V30.7677C42.1778 31.7307 42.561 32.6538 43.2417 33.3348C43.9225 34.0159 44.8455 34.3995 45.8084 34.4014H47.3459L47.4568 37.4675C47.4622 37.6143 47.5119 37.756 47.5992 37.874C47.6865 37.9921 47.8074 38.0812 47.9461 38.1294C48.0848 38.1776 48.2348 38.1828 48.3766 38.1443C48.5183 38.1059 48.6451 38.0256 48.7404 37.9139L51.7599 34.4014H60.8739C61.8369 34.3995 62.7599 34.0162 63.4411 33.3356C64.1223 32.6549 64.5063 31.7323 64.509 30.7693V23.5618C64.5067 22.5983 64.123 21.6749 63.4418 20.9934C62.7607 20.312 61.8374 19.928 60.8739 19.9253H45.8084ZM45.8084 21.384H60.8739C62.0919 21.384 63.0503 22.3438 63.0503 23.5618V30.7677C63.0503 31.9857 62.0905 32.9427 60.8739 32.9427H51.4259C51.3209 32.9428 51.2172 32.9654 51.1218 33.0092C51.0263 33.053 50.9415 33.1169 50.8731 33.1965L48.8484 35.5494L48.7798 33.6472C48.7734 33.4581 48.6937 33.279 48.5576 33.1475C48.4215 33.0161 48.2397 32.9426 48.0505 32.9427H45.8084C44.5904 32.9427 43.635 31.9859 43.635 30.7693V23.5618C43.635 22.3438 44.5904 21.384 45.8084 21.384Z" fill="#EBF1F9"/>
<path fill-rule="evenodd" clip-rule="evenodd" d="M23.1299 41.2704C24.0714 40.3288 25.3483 39.7997 26.6798 39.799V39.7964C28.0114 39.797 29.2883 40.3261 30.2302 41.2673C31.1721 42.2085 31.7021 43.485 31.7038 44.8166V49.1211C31.7038 50.5538 30.9742 51.8034 30.0116 52.6909C29.9808 52.7184 29.9459 52.738 29.911 52.7577C29.8791 52.7757 29.8473 52.7936 29.8185 52.8176L29.8862 52.8514C29.9109 52.8636 29.9348 52.8773 29.9577 52.8927C29.9414 52.8815 29.9862 52.9049 30.0744 52.951C30.2031 53.0182 30.4241 53.1336 30.6822 53.2601L30.7777 53.307C31.2048 53.5169 31.7745 53.7967 32.4696 54.1437C34.5085 55.1626 36.5237 56.2278 38.5139 57.3388C38.5232 57.3435 38.5324 57.3487 38.5415 57.3539C39.6533 58.0496 40.097 59.2504 40.097 60.5226V61.202C40.097 61.3682 40.031 61.5276 39.9135 61.6451C39.7959 61.7627 39.6365 61.8288 39.4703 61.8288C39.3041 61.8288 39.1447 61.7627 39.0271 61.6451C38.9096 61.5276 38.8436 61.3682 38.8436 61.202V60.5226C38.8436 59.5011 38.5991 58.8706 37.8784 58.4193C35.9136 57.3232 33.9243 56.2716 31.9118 55.2656C31.35 54.9847 30.8686 54.749 30.4775 54.5575C30.3521 54.4961 30.2359 54.4392 30.1294 54.3869C30.0287 54.3374 29.9397 54.2943 29.8599 54.2557C29.6095 54.1346 29.4485 54.0568 29.2946 53.9581L28.6428 53.6399C28.6306 53.6443 28.6146 53.6477 28.5981 53.6512C28.5771 53.6557 28.5554 53.6604 28.54 53.6674C28.0963 53.8792 27.6413 53.9682 27.1812 54.0296C27.1095 54.0432 27.0592 54.0625 27.0098 54.0815C26.9409 54.1079 26.8737 54.1337 26.7525 54.1425C26.7308 54.1436 26.7091 54.1436 26.6874 54.1425H26.6798C26.0569 54.1425 25.4301 53.9595 24.8272 53.6737L24.0626 54.0496C21.3657 55.3916 18.6917 56.7791 16.0416 58.2112C16.0354 58.2155 16.0291 58.2197 16.0228 58.2238C15.2732 58.5986 14.649 59.3632 14.649 60.0702V60.8524C14.6611 60.9011 14.6675 60.952 14.6675 61.0043C14.6675 61.4929 14.6691 61.8066 14.7032 62.0375C14.7344 62.2483 14.7796 62.2874 14.7914 62.2976L14.792 62.2981C14.8224 62.3246 14.9286 62.3921 15.2721 62.4389C15.6078 62.4847 16.0791 62.5005 16.7588 62.5005H27.3124C27.6586 62.5005 27.9392 62.7811 27.9392 63.1272C27.9392 63.4734 27.6586 63.754 27.3124 63.754H16.7588C16.0794 63.754 15.5315 63.7394 15.1027 63.6809C14.6818 63.6235 14.2784 63.5128 13.969 63.2436C13.64 62.9572 13.5164 62.5807 13.4632 62.2209C13.4235 61.9523 13.4158 61.6357 13.4144 61.2944C13.4019 61.2446 13.3955 61.1934 13.3955 61.1419V60.0702C13.3955 58.7139 14.377 57.6459 15.4625 57.1031C19.2543 55.0349 23.5073 52.9291 23.5073 52.9291H23.5098L23.6189 52.8726C23.5795 52.8398 23.5361 52.8149 23.4927 52.79C23.4433 52.7618 23.394 52.7335 23.3506 52.6935C22.3867 51.806 21.6584 50.5563 21.6584 49.1235V44.8204C21.6591 43.4888 22.1883 42.2119 23.1299 41.2704ZM28.1257 41.3331C27.667 41.1448 27.1756 41.0495 26.6798 41.0525C26.1843 41.0495 25.6931 41.1447 25.2347 41.3329C24.7762 41.5212 24.3597 41.7986 24.0093 42.1489C23.6588 42.4993 23.3813 42.9156 23.193 43.374C23.0046 43.8323 22.9091 44.3236 22.9119 44.8192V49.1235C22.9119 50.1251 23.4371 51.0715 24.1992 51.7734C24.9425 52.4566 25.8964 52.8439 26.6184 52.8639C26.6313 52.8651 26.6426 52.8696 26.6537 52.874C26.6664 52.879 26.6789 52.884 26.6936 52.884H26.6961C27.4232 52.879 28.4059 52.4703 29.1617 51.7734C29.9238 51.0715 30.4503 50.1263 30.4503 49.1235V44.8204C30.453 44.3246 30.3572 43.8332 30.1687 43.3747C29.9801 42.9162 29.7024 42.4997 29.3517 42.1493C29.001 41.7988 28.5843 41.5214 28.1257 41.3331Z" fill="#EBF1F9"/>
<path d="M22.7536 26.7256C21.3781 26.7256 20.249 27.8547 20.249 29.2302V33.6414C20.249 35.017 21.3781 36.1459 22.7536 36.1459H28.1975L29.9625 38.194C30.0584 38.3037 30.1849 38.3821 30.3258 38.4192C30.4666 38.4564 30.6154 38.4505 30.7529 38.4023C30.8904 38.3541 31.0103 38.2659 31.0972 38.1489C31.184 38.032 31.2339 37.8917 31.2403 37.7461L31.3001 36.1445H31.9668C33.3423 36.1445 34.4713 35.0155 34.4713 33.6414V29.2302C34.4713 28.0487 33.5728 27.1925 32.4656 26.9343C32.458 26.9263 32.4502 26.9186 32.4423 26.911C32.4241 26.8949 32.4051 26.8798 32.3854 26.8657C32.3265 26.8233 32.2616 26.7898 32.1929 26.7665C32.1689 26.7585 32.1446 26.7516 32.1199 26.7461C32.0697 26.7339 32.0184 26.727 31.9668 26.7256H22.7536ZM22.7536 28.1843H31.9668C32.5604 28.1843 33.0126 28.638 33.0126 29.2302V33.6414C33.0126 34.2336 32.5604 34.6872 31.9668 34.6872H30.5956C30.4066 34.6871 30.225 34.7603 30.0889 34.8914C29.9529 35.0226 29.873 35.2015 29.8662 35.3904L29.8516 35.8323L29.0844 34.9397C29.0158 34.8599 28.9307 34.7958 28.835 34.752C28.7393 34.7082 28.6353 34.6856 28.5301 34.6858H22.7536C22.6157 34.6883 22.4786 34.6631 22.3507 34.6115C22.2227 34.5599 22.1065 34.4832 22.0089 34.3857C21.9112 34.2882 21.8343 34.1721 21.7825 34.0442C21.7308 33.9163 21.7053 33.7793 21.7077 33.6414V29.2302C21.7077 28.638 22.1599 28.1843 22.7536 28.1843Z" fill="#EBF1F9"/>
<path d="M46.6719 54.2385L49.375 55.637L52.271 62.2971L34.4695 62.2143L39.5959 57.4459L46.6719 54.2385Z" fill="#136EF6"/>
<path d="M33.2834 54.2385L30.5803 55.637L27.6843 62.2971L45.4858 62.2143L40.3594 57.4459L33.2834 54.2385Z" fill="#136EF6"/>
</g>
<defs>
<clipPath id="clip0_109_38488">
<rect width="53" height="45" fill="white" transform="translate(13.5 19.4495)"/>
</clipPath>
</defs>
</svg>
