<svg width="392" height="68" viewBox="0 0 392 68" fill="none" xmlns="http://www.w3.org/2000/svg">
<path d="M43.8124 15.2905L30.687 20.0767L22.8167 32.7951L15.0319 20.2236L1.82094 15.4129L17.3417 39.5766L0 67.0697H10.1923L22.5845 46.811L35.1355 67.0697H45.3156L28.0595 40.1152L43.8124 15.2905ZM57.1823 41.4862C58.6243 35.8553 63.0361 31.7424 69.5744 31.7424C75.8927 31.7424 80.2189 35.7819 81.5143 41.4862H57.1823ZM69.5866 24.2631C56.9623 24.2631 47.992 33.554 47.992 46.1989C47.992 58.8438 57.0356 67.9878 69.7333 67.9878C78.6302 67.9878 86.6105 63.5688 89.8858 54.2045H80.9888C79.009 58.3175 74.8294 60.4474 69.8066 60.4474C62.8039 60.4474 57.4144 56.1875 56.7301 48.488H90.7168C91.56 34.7047 83.042 24.2631 69.5866 24.2631ZM137.181 25.1812H126.158L108.058 43.3101V25.1812H99.467V67.0697H108.058V47.729L127.759 67.0697H138.855L116.735 45.0605L137.181 25.1812ZM161.978 32.2687C167.379 32.2687 172.011 35.1576 173.612 40.4212H182.509C180.603 30.2857 171.864 24.2754 161.978 24.2754C149.512 24.2754 140.224 33.6397 140.224 46.1377C140.224 58.6235 149.5 68 161.892 68C171.706 68 180.517 62.1366 182.497 51.7808H173.6C171.999 56.9587 167.367 60.0067 161.892 60.0067C154.364 60.0067 148.889 54.2902 148.889 46.1377C148.901 38.0587 154.23 32.2687 161.978 32.2687ZM195.524 50.0181C194.229 57.7911 192.481 59.9945 188.448 59.9945C187.617 59.9945 186.774 59.8353 185.943 59.7619V67.5349C187.312 67.7675 188.827 67.9878 190.196 67.9878C197.345 67.9878 201.989 63.2628 204.043 50.777L206.78 33.2602H220.626V67.082H229.218V25.1812H199.484L195.524 50.0181ZM247.391 41.4862C248.833 35.8553 253.244 31.7424 259.783 31.7424C266.089 31.7424 270.427 35.7819 271.723 41.4862H247.391ZM259.783 24.2631C247.158 24.2631 238.188 33.554 238.188 46.1989C238.188 58.8438 247.232 67.9878 259.942 67.9878C268.838 67.9878 276.819 63.5688 280.094 54.2045H271.197C269.217 58.3175 265.038 60.4474 260.015 60.4474C253.024 60.4474 247.623 56.1875 246.938 48.488H280.925C281.756 34.7047 273.238 24.2631 259.783 24.2631ZM307.848 25.1812H285.569V33.2602H299.257V67.0697H307.848V33.2602H321.45V25.1812H307.848Z" fill="#EBF1F9"/>
<path d="M43.8851 8.61921L22.6572 0.662598L1.4292 8.61921L22.6572 16.3677L43.8851 8.61921Z" fill="#050914"/>
<path d="M325.708 42.1624V25.1224H332.908C333.644 25.1224 334.316 25.2744 334.924 25.5784C335.532 25.8824 336.06 26.2984 336.508 26.8264C336.972 27.3384 337.324 27.9144 337.564 28.5544C337.82 29.1784 337.948 29.8184 337.948 30.4744C337.948 31.2904 337.788 32.0584 337.468 32.7784C337.164 33.4984 336.724 34.1064 336.148 34.6024C335.588 35.0984 334.924 35.4264 334.156 35.5864L338.332 42.1624H336.436L332.428 35.8744H327.388V42.1624H325.708ZM327.388 34.3864H332.956C333.628 34.3864 334.212 34.2024 334.708 33.8344C335.204 33.4664 335.588 32.9864 335.86 32.3944C336.132 31.7864 336.268 31.1464 336.268 30.4744C336.268 29.7864 336.108 29.1544 335.788 28.5784C335.484 27.9864 335.068 27.5144 334.54 27.1624C334.028 26.7944 333.452 26.6104 332.812 26.6104H327.388V34.3864ZM340.744 37.0024V29.6584H342.376V36.7144C342.376 38.1384 342.616 39.2024 343.096 39.9064C343.592 40.6104 344.32 40.9624 345.28 40.9624C345.92 40.9624 346.536 40.8264 347.128 40.5544C347.736 40.2664 348.272 39.8664 348.736 39.3544C349.2 38.8264 349.552 38.2184 349.792 37.5304V29.6584H351.424V40.1944C351.424 40.4184 351.472 40.5864 351.568 40.6984C351.664 40.7944 351.808 40.8504 352 40.8664V42.1624C351.808 42.1784 351.656 42.1864 351.544 42.1864C351.432 42.2024 351.328 42.2104 351.232 42.2104C350.912 42.1784 350.632 42.0504 350.392 41.8264C350.168 41.6024 350.048 41.3304 350.032 41.0104L349.984 39.3304C349.44 40.2904 348.696 41.0424 347.752 41.5864C346.824 42.1304 345.816 42.4024 344.728 42.4024C343.416 42.4024 342.424 41.9464 341.752 41.0344C341.08 40.1224 340.744 38.7784 340.744 37.0024ZM365.626 42.1624H363.994V35.1784C363.994 33.7064 363.778 32.6344 363.346 31.9624C362.914 31.2744 362.234 30.9304 361.306 30.9304C360.666 30.9304 360.034 31.0904 359.41 31.4104C358.786 31.7144 358.234 32.1384 357.754 32.6824C357.29 33.2104 356.954 33.8184 356.746 34.5064V42.1624H355.114V29.6584H356.602V32.4904C356.938 31.8824 357.378 31.3544 357.922 30.9064C358.466 30.4424 359.082 30.0824 359.77 29.8264C360.458 29.5704 361.17 29.4424 361.906 29.4424C362.594 29.4424 363.178 29.5704 363.658 29.8264C364.138 30.0824 364.522 30.4504 364.81 30.9304C365.098 31.3944 365.306 31.9624 365.434 32.6344C365.562 33.2904 365.626 34.0264 365.626 34.8424V42.1624ZM369.442 42.1624V25.1224H371.122V42.1624H369.442ZM387.491 26.6104H381.419V42.1624H379.739V26.6104H373.667V25.1224H387.491V26.6104Z" fill="#050914"/>
</svg>
