<svg width="30" height="30" viewBox="0 0 30 30" fill="none" xmlns="http://www.w3.org/2000/svg">
<g id="Telegram_black 1" clip-path="url(#clip0_203_1336)">
<g id="Telegram">
<path id="Background" d="M15.1807 29.0909C23.2139 29.0909 29.7262 22.5787 29.7262 14.5455C29.7262 6.51222 23.2139 0 15.1807 0C7.14748 0 0.635254 6.51222 0.635254 14.5455C0.635254 22.5787 7.14748 29.0909 15.1807 29.0909Z" fill="#EBF1F9"/>
<path id="Telegram_2" fill-rule="evenodd" clip-rule="evenodd" d="M7.30703 14.295C11.5367 12.4521 14.357 11.2371 15.7678 10.6499C19.7972 8.97477 20.6388 8.68386 21.18 8.67303C21.3807 8.66913 21.5776 8.72829 21.7429 8.84217C21.8589 8.94219 21.9328 9.08234 21.9499 9.23456C21.979 9.42386 21.9872 9.6158 21.9743 9.8069C21.7564 12.1071 20.8106 17.6669 20.3303 20.2363C20.1273 21.3188 19.7268 21.6882 19.3385 21.7247C18.4969 21.8018 17.8501 21.1672 17.0383 20.6328C15.761 19.7952 15.0398 19.2797 13.8004 18.457C12.3675 17.5099 13.297 16.9944 14.1129 16.1474C14.3267 15.9255 18.0368 12.5482 18.1099 12.2424C18.1195 12.1973 18.1184 12.1505 18.1067 12.1058C18.0949 12.0612 18.0729 12.0199 18.0423 11.9853C17.9978 11.9576 17.9476 11.9406 17.8954 11.9356C17.8433 11.9307 17.7907 11.938 17.7419 11.9569C17.6147 11.9849 15.5752 13.333 11.6233 16.0012C11.0442 16.399 10.5197 16.593 10.0497 16.5831C9.53147 16.5709 8.53561 16.2894 7.79413 16.0418C6.88622 15.7469 6.17046 15.5913 6.22729 15.0947C6.26066 14.8349 6.62057 14.5683 7.30703 14.295Z" fill="#136EF6"/>
</g>
</g>
<defs>
<clipPath id="clip0_203_1336">
<rect width="29.0909" height="29.0909" fill="white" transform="translate(0.63623)"/>
</clipPath>
</defs>
</svg>
