<svg width="30" height="30" viewBox="0 0 30 30" fill="none" xmlns="http://www.w3.org/2000/svg">
<g clip-path="url(#clip0_208_1495)">
<path d="M15.4546 29.0909C23.4879 29.0909 30.0001 22.5787 30.0001 14.5455C30.0001 6.51222 23.4879 0 15.4546 0C7.4214 0 0.90918 6.51222 0.90918 14.5455C0.90918 22.5787 7.4214 29.0909 15.4546 29.0909Z" fill="#136EF6"/>
<path d="M12.9519 20.9183C18.5347 20.9183 21.5872 16.2936 21.5872 12.2831C21.5872 12.1478 21.5872 12.0219 21.5777 11.892C22.1715 11.4622 22.6841 10.9303 23.0918 10.3211C22.5379 10.5661 21.9505 10.7271 21.3491 10.7988C21.9824 10.419 22.4564 9.82239 22.6832 9.11962C22.0875 9.47276 21.4359 9.72169 20.7564 9.85569C20.2988 9.36923 19.6936 9.04716 19.0345 8.9393C18.3754 8.83143 17.6991 8.94379 17.1103 9.259C16.5215 9.5742 16.053 10.0747 15.7772 10.683C15.5015 11.2913 15.434 11.9735 15.585 12.6241C14.3786 12.5638 13.1983 12.2504 12.1208 11.7042C11.0434 11.158 10.0929 10.3913 9.33113 9.45382C8.94284 10.1218 8.82381 10.9127 8.99828 11.6653C9.17274 12.418 9.62759 13.0759 10.2702 13.5049C9.7872 13.4903 9.31482 13.3599 8.89274 13.1247V13.1626C8.89263 13.8636 9.13512 14.5432 9.57907 15.0858C10.023 15.6283 10.641 16.0006 11.3283 16.1393C10.8818 16.2611 10.4133 16.2787 9.95896 16.1907C10.1529 16.795 10.5312 17.3233 11.0409 17.7014C11.5506 18.0795 12.1659 18.2884 12.8004 18.2988C12.1717 18.7941 11.4512 19.1601 10.6805 19.3758C9.9098 19.5915 9.10402 19.6527 8.30957 19.5558C9.69444 20.4453 11.306 20.9173 12.9519 20.9156" fill="#EBF1F9"/>
</g>
<defs>
<clipPath id="clip0_208_1495">
<rect width="29.0909" height="29.0909" fill="white" transform="translate(0.90918)"/>
</clipPath>
</defs>
</svg>
