<svg width="50" height="50" viewBox="0 0 50 50" fill="none" xmlns="http://www.w3.org/2000/svg">
<g clip-path="url(#clip0_986_217)">
<path d="M25 50C38.8071 50 50 38.8071 50 25C50 11.1929 38.8071 0 25 0C11.1929 0 0 11.1929 0 25C0 38.8071 11.1929 50 25 50Z" fill="#136EF6"/>
<path d="M20.6973 35.9534C30.2927 35.9534 35.5392 28.0046 35.5392 21.1116C35.5392 20.879 35.5392 20.6627 35.5229 20.4395C36.5434 19.7007 37.4245 18.7865 38.1252 17.7395C37.1732 18.1606 36.1636 18.4373 35.1299 18.5604C36.2184 17.9077 37.0332 16.8823 37.4229 15.6744C36.399 16.2813 35.2791 16.7092 34.1113 16.9395C33.3247 16.1034 32.2846 15.5498 31.1517 15.3644C30.0189 15.1791 28.8566 15.3722 27.8445 15.9139C26.8325 16.4557 26.0272 17.3159 25.5533 18.3614C25.0794 19.4069 24.9633 20.5795 25.2229 21.6976C23.1493 21.594 21.1207 21.0553 19.2689 20.1166C17.417 19.1778 15.7834 17.86 14.4741 16.2488C13.8067 17.3969 13.6021 18.7562 13.902 20.0498C14.2018 21.3435 14.9836 22.4742 16.088 23.2116C15.2579 23.1864 14.446 22.9623 13.7206 22.5581V22.6232C13.7204 23.8282 14.1372 24.9961 14.9002 25.9287C15.6632 26.8613 16.7255 27.5011 17.9066 27.7395C17.1393 27.9488 16.3341 27.979 15.5531 27.8279C15.8864 28.8664 16.5368 29.7744 17.4127 30.4243C18.2887 31.0742 19.3463 31.4333 20.4369 31.4511C19.3563 32.3023 18.118 32.9314 16.7933 33.3022C15.4687 33.673 14.0837 33.7781 12.7183 33.6116C15.0985 35.1403 17.8684 35.9517 20.6973 35.9488" fill="#EBF1F9"/>
</g>
<defs>
<clipPath id="clip0_986_217">
<rect width="50" height="50" fill="white"/>
</clipPath>
</defs>
</svg>
