<svg width="50" height="50" viewBox="0 0 50 50" fill="none" xmlns="http://www.w3.org/2000/svg">
<g clip-path="url(#clip0_93_1184)">
<path d="M25 50C38.8071 50 50 38.8071 50 25C50 11.1929 38.8071 0 25 0C11.1929 0 0 11.1929 0 25C0 38.8071 11.1929 50 25 50Z" fill="#EBF1F9"/>
<path d="M20.6976 35.9534C30.2929 35.9534 35.5394 28.0046 35.5394 21.1116C35.5394 20.879 35.5394 20.6627 35.5232 20.4395C36.5436 19.7007 37.4248 18.7865 38.1255 17.7395C37.1734 18.1606 36.1639 18.4373 35.1301 18.5604C36.2187 17.9077 37.0334 16.8823 37.4232 15.6744C36.3993 16.2813 35.2793 16.7092 34.1115 16.9395C33.325 16.1034 32.2848 15.5498 31.152 15.3644C30.0192 15.1791 28.8568 15.3722 27.8448 15.9139C26.8328 16.4557 26.0275 17.3159 25.5536 18.3614C25.0797 19.4069 24.9635 20.5795 25.2232 21.6976C23.1496 21.594 21.121 21.0553 19.2691 20.1166C17.4173 19.1778 15.7837 17.86 14.4743 16.2488C13.8069 17.3969 13.6024 18.7562 13.9022 20.0498C14.2021 21.3435 14.9838 22.4742 16.0883 23.2116C15.2582 23.1864 14.4463 22.9623 13.7208 22.5581V22.6232C13.7206 23.8282 14.1374 24.9961 14.9005 25.9287C15.6635 26.8613 16.7257 27.5011 17.9069 27.7395C17.1395 27.9488 16.3343 27.979 15.5534 27.8279C15.8867 28.8664 16.537 29.7744 17.413 30.4243C18.2889 31.0742 19.3465 31.4333 20.4371 31.4511C19.3565 32.3023 18.1182 32.9314 16.7936 33.3022C15.4689 33.673 14.084 33.7781 12.7185 33.6116C15.0988 35.1403 17.8687 35.9517 20.6976 35.9488" fill="#136EF6"/>
</g>
<defs>
<clipPath id="clip0_93_1184">
<rect width="50" height="50" fill="white"/>
</clipPath>
</defs>
</svg>
