<svg width="30" height="30" viewBox="0 0 30 30" fill="none" xmlns="http://www.w3.org/2000/svg">
<g id="VK_black 1" clip-path="url(#clip0_203_1332)">
<g id="VK">
<path id="Background" d="M14.5455 29.0909C22.5787 29.0909 29.0909 22.5787 29.0909 14.5455C29.0909 6.51222 22.5787 0 14.5455 0C6.51222 0 0 6.51222 0 14.5455C0 22.5787 6.51222 29.0909 14.5455 29.0909Z" fill="#EBF1F9"/>
<path id="VK_2" d="M15.0786 19.9092C9.43906 19.9092 6.22417 16.0421 6.08887 9.60693H8.91272C9.00608 14.3291 11.0884 16.3303 12.7378 16.743V9.60693H15.3993V13.6797C17.023 13.5051 18.74 11.6501 19.3164 9.60693H21.9779C21.5341 12.1223 19.6777 13.9787 18.3585 14.7418C19.3903 15.2542 20.3016 15.9798 21.0321 16.8706C21.7626 17.7613 22.2958 18.797 22.5963 19.9092H19.6682C19.0391 17.9499 17.4709 16.4345 15.3993 16.2288V19.9092H15.0786Z" fill="#136EF6"/>
</g>
</g>
<defs>
<clipPath id="clip0_203_1332">
<rect width="29.0909" height="29.0909" fill="white"/>
</clipPath>
</defs>
</svg>
